<?xml version="1.0" encoding="utf-8"?>
<svg version="1.1" id="Layer_1" x="0px" y="0px" viewBox="0 0 1200 1200" enable-background="new 0 0 1200 1200" xmlns="http://www.w3.org/2000/svg">
  <path style="stroke: rgb(0, 0, 0); fill: rgb(255, 255, 255);" d="M 434.45 55.502 L 1100.479 331.101 L 1111.962 455.502 L 807.655 1125.359 L 187.56 838.278 C 187.56 838.278 80.383 704.306 80.383 702.392 C 80.383 700.478 434.45 57.416 434.45 55.502 Z"/>
  <g>
    <path fill="#261123" d="M1127.032,431.839c-0.431,9.582-0.589,19.185-1.353,28.74c-1.249,15.629-10.747,28.155-17.086,41.696 c-11.482,24.526-24.626,48.286-37.427,72.178c-10.239,19.11-21.553,37.658-31.407,56.957 c-17.639,34.547-35.026,69.242-51.61,104.304c-17.088,36.127-33.78,72.475-49.396,109.256 c-19.026,44.811-36.917,90.107-54.987,135.319c-16.708,41.803-33.081,83.74-49.419,125.689c-3.471,8.912-6.254,18.1-9.169,27.22 c-4.371,13.681-10.365,17.909-24.898,16.563c-4.522-0.419-9.219-1.275-13.365-3.038c-25.638-10.901-51.383-21.604-76.622-33.38 c-24.142-11.264-48.069-23.101-71.439-35.88c-25.154-13.755-49.125-29.687-74.38-43.24c-34-18.246-68.924-34.763-103.093-52.705 c-27.964-14.683-55.387-30.395-83.078-45.598c-39.066-21.447-79.435-40.091-120.911-56.391 c-12.024-4.725-23.721-10.28-35.693-15.146c-4.988-2.028-10.397-3.005-15.444-4.911c-4.992-1.886-9.852-4.179-14.607-6.612 c-2.535-1.297-4.592-4.453-7.093-4.734c-13.02-1.466-18.863-10.891-24.641-20.75c-11.971-20.428-29.654-35.964-46.308-52.172 c-8.053-7.838-16.571-14.814-21.952-24.956c-4.081-7.691-8.192-15.519-13.46-22.389c-7.181-9.365-6.151-18.88-1.781-28.257 c28.384-60.903,56.559-121.913,85.826-182.392c16.354-33.796,33.87-67.095,52.296-99.81 c30.528-54.204,62.89-107.287,99.636-157.647c10.997-15.07,18.894-32.391,28.336-48.608c10.28-17.656,21.055-35.034,30.98-52.885 c12.973-23.333,25.187-47.087,38.003-70.509c5.93-10.836,12.372-21.402,18.854-31.923c3.809-6.183,10.054-7.077,18.823-4.415 c50.336,15.283,99.815,32.881,148.449,52.977c51.629,21.333,103.598,41.84,155.362,62.847 c43.703,17.736,87.476,35.314,130.925,53.657c25.752,10.872,50.934,23.096,76.375,34.707 c31.096,14.193,62.354,28.043,93.231,42.698c18.012,8.549,36.352,16.539,52.396,28.97c5.558,4.307,8.593,9.066,9.58,15.265 c3.339,20.969,6.471,41.976,9.243,63.026c1.142,8.671,1.17,17.488,1.703,26.24C1126.634,431.815,1126.833,431.827,1127.032,431.839 z M388.569,657.156c5.168-0.629,10.068-1.063,14.912-1.841c47.369-7.61,94.67-15.768,142.825-16.692 c7.922-0.152,15.844-0.589,23.752-1.124c24.539-1.659,49.05-4.432,73.61-4.939c45.462-0.939,90.952-0.674,136.43-0.623 c5.144,0.006,8.718-1.308,11.715-5.402c9.114-12.447,18.734-24.536,27.532-37.199c10.472-15.071,19.068-31.604,30.671-45.697 c20.417-24.799,42.473-48.25,63.893-72.221c14.092-15.769,28.272-31.459,43.229-48.092c-14.538-10.107-28.031-19.755-41.796-28.999 c-29.91-20.087-60.376-39.373-89.853-60.073c-45.356-31.85-89.854-64.919-135.137-96.873 c-28.263-19.945-57.13-39.052-86.052-58.039c-18.734-12.298-38.261-23.383-57.058-35.588c-21.656-14.062-42.97-28.659-64.291-43.23 c-9.13-6.24-17.902-13.004-27.671-20.14c-2.416,19.251-4.687,36.874-6.829,54.512c-2.915,24.007-4.961,48.149-8.781,72.01 c-4.945,30.878-11.532,61.489-16.908,92.303c-3.51,20.122-6.631,40.34-9.027,60.621c-3.913,33.138-7.099,66.362-10.577,99.552 c-2.174,20.751-4.923,41.463-6.358,62.266C393.73,566.178,391.345,610.756,388.569,657.156z M205.553,833.613 c2.17,1.442,3.71,2.896,5.538,3.615c19.785,7.784,39.808,14.996,59.391,23.253c34.95,14.737,70.171,28.989,104.313,45.446 c46.575,22.449,92.185,46.893,138.332,70.238c20.833,10.54,42.312,19.843,62.873,30.871c28.659,15.372,56.092,33.137,85.222,47.499 c35.461,17.484,72.162,32.448,108.272,48.625c7.209,3.23,14.149,7.061,21.262,10.514c2.035,0.987,4.241,1.62,6.868,2.602 c-2.39-52.223-5.274-103.43-6.927-154.678c-1.637-50.748-2.947-101.54-2.718-152.305c0.232-51.21,2.631-102.409,2.903-153.971 c-23.976-2.297-46.606-1.269-68.722,2.001c-40.908,6.048-82.018,9.086-123.197,11.483c-24.954,1.452-50.025,0.822-74.995,2.081 c-27.907,1.407-55.755,3.97-83.64,5.88c-14.144,0.969-28.362,1.125-42.445,2.61c-6.358,0.67-13.637,2.165-18.49,5.897 c-21.387,16.449-42.09,33.791-62.948,50.922c-23.15,19.014-46.543,37.753-69.166,57.379 C232.895,806.055,219.72,819.93,205.553,833.613z M431.047,98.432c-2.721,4.056-4.245,5.842-5.241,7.885 c-10.747,22.036-20.892,44.383-32.263,66.09c-9.085,17.344-19.591,33.947-29.544,50.833c-11.194,18.991-21.03,38.99-34.009,56.677 c-29.415,40.085-55.449,82.268-81.538,124.481c-32.466,52.532-59.668,107.886-86.849,163.173 c-23.274,47.338-44.067,95.896-66.464,145.026c10.209,12.97,19.683,27.412,31.54,39.52c18.993,19.393,37.977,38.622,53.291,61.172 c1.545,2.274,4.136,3.838,6.427,5.898c12.742-7.78,22.831-17.64,32.438-28.126c6.451-7.041,12.875-14.181,19.97-20.542 c13.616-12.209,27.52-24.114,41.629-35.751c23.775-19.609,47.466-39.35,71.901-58.114c9.053-6.952,13.052-14.26,13.743-25.768 c1.522-25.348,5.315-50.551,7.415-75.877c1.896-22.875,2.037-45.907,4.258-68.743c4.118-42.341,8.896-84.624,13.952-126.864 c4.212-35.189,8.643-70.372,14.036-105.395c4.882-31.704,11.932-63.077,16.649-94.801 C426.237,153.318,428.054,127.127,431.047,98.432z M814.666,1085.962c1.087,0.049,2.173,0.098,3.26,0.147 c4.13-9.953,8.383-19.856,12.369-29.867c25.007-62.813,49.225-125.952,75.103-188.402c34.05-82.17,70.961-163.091,111.497-242.294 c14.071-27.492,29.867-54.105,43.811-81.658c11.163-22.059,23.179-43.44,38.254-63.061c1.874-2.44,3.169-5.324,4.83-8.17 c-43.036-14.081-84.926-27.787-125.094-40.93c-25.957,30.459-50.942,60.002-76.194,89.315 c-13.028,15.122-27.573,29.049-39.56,44.929c-15.274,20.234-27.833,42.521-43.157,62.713 c-9.341,12.308-10.991,25.594-11.504,39.739c-0.272,7.51,0.084,15.044,0.214,22.566c0.331,19.174,1.03,38.349,0.957,57.521 c-0.088,23.367-1.103,46.731-1.176,70.098c-0.064,20.412,0.732,40.825,0.944,61.239c0.182,17.515-0.259,35.041,0.168,52.548 c0.775,31.721,1.95,63.432,3.039,95.145C813.094,1047.015,813.914,1066.487,814.666,1085.962z M1094.107,346.184 c-18.45-9.726-36.204-19.793-54.56-28.608c-32.257-15.491-64.775-30.454-97.384-45.194c-32.291-14.596-64.717-28.905-97.292-42.854 c-31.023-13.284-62.307-25.957-93.491-38.865c-28.471-11.785-56.847-23.808-85.471-35.211 c-34.457-13.727-69.134-26.905-103.711-40.332c-13.417-5.21-26.822-10.45-40.232-15.676c-0.436,0.909-0.871,1.817-1.307,2.726 c31.554,19.135,63.108,38.27,94.543,57.333c7.11-8.311,10.576-9.052,20.998-4.946c25.615,10.092,51.331,19.94,76.795,30.398 c17.539,7.203,34.725,15.263,52.069,22.94c-21.814-0.774-43.824,1.921-63.883-8.804c4.304,3.009,8.608,6.018,12.981,9.076 c-1.691,1.978-2.445,3.235-2.727,3.136c-11.918-4.159-23.794-8.44-37.404-13.326c3.621,2.882,5.922,4.891,8.397,6.657 c35.344,25.21,71.12,49.836,105.971,75.71c43.567,32.345,87.85,63.592,133.39,93.09c17.481,11.323,34.452,23.432,51.754,35.037 c4.413,2.96,8.907,6.265,13.863,7.87c21.786,7.055,43.724,13.646,65.666,20.207c16.684,4.989,33.456,9.68,51.333,14.833 C1102.288,415.448,1089.74,381.818,1094.107,346.184z"/>
    <path fill="#261123" d="M535.337,413.034c11.55-24.669,30.237-37.423,51.242-47.447c21.044-10.043,41.745-10.598,61.792,2.767 c2.082,1.388,4.151,2.884,6.422,3.884c23.993,10.558,35.611,31.286,41.778,54.713c6.877,26.129-0.388,49.112-23.359,64.838 c-31.01,21.23-64.973,25.758-99.728,10.467c-21.508-9.462-38.339-25.815-47.823-47.398c-21.472-48.86-19.387-97.888,6.244-144.404 c14.725-26.724,38.466-43.584,70.359-45.698c8.238-0.546,16.685-1.184,24.781-0.012c22.353,3.237,36.353,17.099,44.416,37.57 c1.494,3.794,4.099,8.124-0.295,11.407c-4.42,3.302-9.497,2.843-13.983-0.297c-6.449-4.513-12.673-9.346-19.072-13.932 c-22.495-16.124-66.242-12.585-85.565,19C535.285,346.705,529.201,376.96,535.337,413.034z M549.012,449.364 c0.724,1.721,0.949,3.078,1.718,3.964c29.05,33.497,58.718,39.314,96.095,24.048c22.835-9.326,31.635-40.643,13.726-60.644 c-11.221-12.533-27.422-18.366-42.315-25.617c-1.647-0.802-4.095,0.109-6.172,0.115c-15.623,0.046-28.724,6.427-37.833,18.531 C564.798,422.294,557.25,436.245,549.012,449.364z"/>
    <path fill="#261123" d="M415.624,632.871c-1.974-7.48-5.49-14.587-5.424-21.66c0.244-26.139,1.219-52.295,2.778-78.393 c1.663-27.844,4.001-55.658,6.667-83.426c0.986-10.269,3.516-20.419,5.804-30.518c0.863-3.809,3.457-6.949,8.185-5.784 c4.4,1.084,5.317,4.328,5.319,8.612c0.011,20.398,0.318,40.796,0.509,61.195c0.027,2.877,0.004,5.755,0.004,9.707 c6.896-0.602,12.961,0.524,13.612,8.711c0.462,5.81,0.675,11.641,1.042,18.232c7.465,0.508,9.209,5.662,7.953,11.978 c-2.431,12.23-5.289,24.378-8.102,36.53c-0.912,3.94-2.236,7.784-3.898,13.473c8.663-4.43,15.436-8.21,22.468-11.426 c16.191-7.405,26.314-0.736,26.629,18.646c6.965-0.001,14.047-0.609,20.98,0.149c9.053,0.99,10.136,5.146,3.507,14.097 c3.692,0.972,7.055,2.008,10.485,2.718c3.536,0.732,7.138,1.148,11.047,3.551c-3.12,1.117-6.239,2.234-9.625,3.446 c1.008,0.559,1.613,1.188,2.215,1.186c39.236-0.144,78.361-1.244,117.375-6.592c21.025-2.882,42.478-2.605,63.732-3.87 c4.906-0.292,9.784-1.062,15.778-1.735c-1.891-3.12-3.046-5.026-4.286-7.073c9.777,0.305,9.777,0.305,22.494,9.785 c-3.216,7.909-10.47,9.917-17.653,11.218c-15.185,2.749-30.416,5.407-45.734,7.215c-19.483,2.299-39.042,4.233-58.623,5.325 c-11.586,0.646-23.276-0.709-34.924-1.026c-6.258-0.171-12.527-0.185-18.786-0.041c-35.04,0.81-70.077,1.793-105.119,2.492 c-13.302,0.266-26.622-0.327-39.92,0.01C427.346,629.721,422.619,631.425,415.624,632.871z"/>
    <path fill="#261123" d="M857.587,426.168c-2.72-1.173-4.848-2.305-7.108-3.02c-3.971-1.256-8.121-1.988-12.022-3.415 c-12.602-4.608-13.393-8.322-3.479-18.199c-11.512-5.305-22.889-10.282-34.024-15.752c-12.021-5.905-14.781-9.51-12.166-14.391 c2.859-5.336,7.797-5.483,19.019-0.505c6.099,2.705,12.136,5.551,18.275,8.161c1.757,0.747,3.772,0.889,6.115,0.472 c-21.058-18.475-45.143-33.066-64.899-52.591c3.84-8.24,8.372-7.795,13.714-4.093c12.687,8.792,25.529,17.366,38.09,26.334 c29.878,21.33,59.635,42.829,89.424,64.285c2.702,1.946,5.547,3.806,7.86,6.162c8.879,9.046,9.397,13.977,1.394,23.814 c-37.848,46.525-75.874,92.904-113.879,139.3c-2.363,2.884-5.018,5.543-7.667,8.176c-3.755,3.733-7.905,3.916-13.629,0.521 c12.007-23.424,31.078-41.703,43.939-64.448c-3.168,2.316-6.336,4.633-9.546,6.979c-4.237-2.831-3.62-6.118-1.758-9.789 c4.242-8.362,10.091-15.723,11.816-25.624c0.885-5.082,6.215-9.735,10.277-13.85c9.943-10.072,20.316-19.719,32.237-31.194 c-13.428,1.463-23.594,6.722-34.413,9.319c-11.235,2.696-22.593,4.879-34.573,7.431c4.381-10.186,13.369-14.42,21.093-20.446 c-2.931-2.632-5.765-5.175-9.245-8.3C823.376,423.247,842.2,432.285,857.587,426.168z"/>
    <path fill="#261123" d="M565.796,211.855c-16.242-2.293-27.613-12.972-41.467-19.912c5.612,8.021,11.225,16.042,16.642,23.783 c-2.322,6.867-6.428,8.87-11.408,4.182c-6.951-6.544-13.405-13.666-19.61-20.936c-4.277-5.011-7.772-10.69-13.386-15.233 c0.683,2.52,1.183,5.108,2.083,7.548c3.467,9.395,7.141,18.713,10.565,28.123c1.136,3.121,2.643,6.512,2.36,9.632 c-0.296,3.266-1.739,7.312-4.116,9.305c-4.043,3.39-8.134,0.497-10.635-3.008c-3.372-4.727-6.189-9.888-8.872-15.057 c-2.475-4.768-4.457-9.793-8.801-14.675c0,5.854,0.034,11.708-0.011,17.562c-0.025,3.331,0.433,6.824-0.399,9.96 c-1.946,7.337-6.158,8.492-14.879,3.728c-4.026,14.791-3.191,29.773-4.756,44.435c-0.485,4.541-0.752,9.121-1.543,13.608 c-0.698,3.961-3.192,8.001-7.248,6.911c-2.633-0.708-5.964-5.18-6.025-8.03c-0.316-14.58-0.613-29.274,0.825-43.756 c3.46-34.859,8.758-69.557,11.386-104.465c0.764-10.148,5.413-19.222,4.954-29.452c-0.184-4.107,4.009-6.523,8.235-5.274 c3.942,1.165,7.833,3.038,11.259,5.329c27.408,18.324,55.1,36.261,81.901,55.441c21.318,15.256,41.502,32.096,61.859,47.974 c-1.537,6.064-4.846,7.216-8.843,5.421c-4.532-2.034-8.928-4.526-13.03-7.335c-17.575-12.032-35.005-24.275-52.531-36.38 c-2.213-1.529-4.675-2.698-7.704-3.195C552.312,187.831,560.162,198.55,565.796,211.855z"/>
    <path fill="#261123" d="M761.6,527.763c-11.95,11.711-27.704,14.739-43.276,16.307c-38.501,3.875-77.13,6.466-115.689,9.78 c-19.117,1.643-38.19,3.799-57.295,5.596c-4.969,0.468-9.991,0.34-14.973,0.707c-4.827,0.356-8.511-1.448-9.541-6.13 c-1.166-5.304,0.469-9.928,6.168-11.971c3.532-1.266,7.12-2.417,10.75-3.359c31.966-8.293,64.443-13.689,97.239-17.432 c31.933-3.644,63.82-7.685,95.727-11.55c1.245-0.151,2.492-0.289,3.737-0.432C754.058,507.032,755.644,508.091,761.6,527.763z"/>
    <path fill="#261123" d="M624.081,703.613c-15.276,2.026-30.54,4.151-45.834,6.036c-7.664,0.945-15.382,1.453-23.631,0.092 c6.162-2.927,12.324-5.855,20.916-9.936c-19.948,1.405-37.167,2.76-54.405,3.794c-20.823,1.249-41.661,2.217-62.493,3.324 c-6.243,0.331-12.798,0.059-15.923,7.655c1.431,1.862,2.862,3.726,5.028,6.545c-17.615,2.602-33.423,1.379-46.147-11.222 c-30.074,26.464-59.073,51.982-88.071,77.499c0.437,0.778,0.875,1.557,1.312,2.335c28.619-8.941,54.725-25.954,86.232-28.637 c-0.195,6.702-5.195,8.648-9.13,10.766c-15.057,8.104-30.335,15.797-45.504,23.695c-2.541,1.323-4.951,2.897-8.832,5.187 c13.102,2.268,23.273-9.005,37.039-3.363c-13.429,14.623-31.525,17.67-49.572,26.174c9.988,2.315,17.514,3.726,24.845,5.82 c25.677,7.333,51.309,14.825,76.904,22.441c5.393,1.605,10.763,3.686,14.753,9.18c-6.762,3.92-12.496,1.297-17.857-0.089 c-27.47-7.104-54.789-14.789-82.268-21.853c-12.378-3.182-25.006-5.394-37.52-8.047c-0.24,0.924-0.479,1.847-0.719,2.771 c15.173,5.346,30.328,10.742,45.523,16.022c13.014,4.522,26.2,8.58,39.071,13.472c9.201,3.498,18.482,6.559,24.864,15.663 c3.22,4.594,10.457,6.371,18.296,10.783c-8.915-2.131-15.254-3.646-22.333-5.339c0.645,7.434,5.588,7.583,9.078,9.208 c26.119,12.16,52.581,23.629,78.333,36.518c17.853,8.935,34.758,19.766,52.059,29.798c2.514,1.458,4.875,3.179,7.307,4.778 c-0.728,1.087-1.455,2.174-2.183,3.26c-3.606-1.293-7.335-2.32-10.8-3.919c-34.871-16.089-69.673-32.328-104.563-48.377 c-6.428-2.957-13.017-5.729-19.779-7.766c-47.287-14.25-92.84-33.018-137.226-54.388c-11.342-5.461-22.529-10.257-34.527-13.689 c-5.163-1.477-10.258-3.712-14.862-6.474c-4.785-2.87-4.651-5.976-0.572-10.08c0.882-0.887,1.839-1.718,2.85-2.453 c26.665-19.387,53.949-37.986,79.831-58.366c22.609-17.802,43.671-37.574,65.352-56.549c6.275-5.492,12.327-11.239,17.052-15.563 c10.668-0.001,19.622,0.097,28.574-0.02c30.898-0.403,61.852-2.197,92.675-0.878c21.355,0.914,42.148-2.153,63.191-3.417 c22.79-1.369,45.563-3.009,68.347-4.483c20.374-1.318,40.744-2.705,61.13-3.802c13.329-0.717,26.68-1.153,40.027-1.362 c7.286-0.114,13.959,4.524,21.871,2.223c3.293-0.958,7.733,2.36,6.704,7.067c-4.28,19.59,0.198,39.094,0.217,58.628 c0.025,26.246,0.673,52.454-2.484,78.62c-0.834,6.915,1.093,14.116,1.049,21.181c-0.264,42.175-1.081,84.349-0.972,126.522 c0.046,17.869,2.082,35.726,2.863,53.603c0.801,18.308,0.961,36.645,1.848,54.948c0.305,6.295-2.277,8.151-7.968,7.986 c-5.971-0.173-11.243-1.181-16.945-4.057c-36.101-18.209-72.889-35.07-108.823-53.592c-18.018-9.287-36.649-18.009-51.601-33.499 c8.028,2.219,16.358,3.695,24.028,6.799c22.06,8.93,43.851,18.525,65.756,27.841c3.715,1.58,7.466,3.072,12.312,2.96 c-13.712-12.188-27.423-24.376-42.72-37.973c23.24,3.865,39.814,16.237,57.464,27.092c-9.897-11.036-19.794-22.072-31.493-35.117 c5.81,1.491,9.29,2.385,14.037,3.603c-1.793-4.34-3.156-7.638-4.787-11.586c2.301-0.23,4.35-0.435,7.307-0.73 c-5.183-11.068-10.075-21.514-14.967-31.961c26.217,20.107,36.205,52.341,58.746,75.561c-5.666-19.46-11.265-38.939-17.034-58.368 c-2.11-7.106-3.944-13.617-2.953-21.716c0.991-8.105-3.307-16.914-5.561-25.34c-1.8-6.728-4.015-13.345-3.89-20.932 c7.662,14.77,15.325,29.539,22.988,44.309c0.264-10.153,10.788-16.57,8.411-26.672c10.829-9.162,6.825-22.366,8.23-33.65 c2.984-23.973,3.872-48.207,5.567-72.338c0.079-1.123-0.347-2.282-0.644-4.069c-5.263,5.815-10.141,11.205-15.395,17.012 c1.528-19.275,2.986-37.669,4.444-56.064c-15.759,17.294-16.791,40.289-26.906,61.584c-5.211-15.216-7.039-29.146-2.186-43.06 c4.242-12.163,9.813-23.863,14.838-35.751c1.723-4.076,3.568-8.101,3.889-13.152c-18.046,22.423-36.092,44.846-54.819,68.116 c2.622-30.692,25.927-48.592,39.099-72.585c-15.624,11.349-31.249,22.697-46.873,34.046c-0.494-0.512-0.988-1.024-1.483-1.536 c12.957-13.003,25.913-26.006,40.28-40.424c-12.713,0.505-23.082,5.568-33.948,7.814c-11.288,2.333-22.362,5.698-33.728,8.115 c18.083-12.127,38.358-19.527,58.528-27.701c-40.946,4.628-81.668,11.358-123.37,6.829c13.161-3.354,26.346-6.624,39.46-10.152 c2.004-0.539,3.687-2.272,5.54-3.43c4.319,0.022,8.616,0.022,12.913,0.022c-0.069-0.689-0.137-1.378-0.206-2.067 C632.395,702.083,628.238,702.848,624.081,703.613z"/>
    <path fill="#261123" d="M429.143,807.153c5.922-8.31,11.574-14.688,20.817-18.53c25.425,22.452,51.752,46.072,78.494,69.212 c26.665,23.074,53.745,45.668,81.315,69.041c2.644-3.763,4.447-6.433,6.359-9.023c1.97-2.667,3.738-5.591,6.149-7.797 c3.353-3.068,8.023-6.565,11.859-2.747c2.673,2.662,4.572,8.637,3.484,12.077c-3.623,11.454-8.318,22.636-13.442,33.527 c-3.999,8.501-10.305,10.693-18.623,6.251c-8.039-4.293-15.82-9.428-22.798-15.285c-25.572-21.46-50.87-43.251-76.062-65.158 c-20.132-17.508-40.068-35.247-59.858-53.14C440.706,820.039,435.337,813.653,429.143,807.153z"/>
    <path fill="#261123" d="M142.696,671.062c18.594-13.485,34.991-25.439,51.539-37.18c0.777-0.552,2.9,0.792,5.779,1.679 c-5.823,13.835-18.556,20.458-26.749,31.806c2.841-0.878,5.654-1.867,8.53-2.609c4.451-1.147,9.926-6.149,13.049,0.536 c2.863,6.128-3.629,8.489-7.533,11.185c-5.828,4.024-11.985,7.571-17.984,11.349c-1.303,0.821-2.529,1.764-3.266,4.991 c5.315-0.414,10.63-0.827,17.437-1.357c5.478,4.516,2.351,13.415,5.414,21.445c6.332-8.88,3.541-21.831,15.628-27.685 c3.801,14.477-1.621,27.978-1.526,44.225c8.011-11.841,10.885-25.914,27.382-26.161c-5.303,13.196-12.716,24.212-14.931,37.97 c36.096-24.949,71.394-49.346,107.113-74.035c-0.766-2.878-2.142-5.566-1.965-8.148c0.149-2.164,2.111-4.203,3.204-6.178 c-1.899-4.628-3.766-9.179-5.89-14.356c3.176-1.574,5.538-2.745,8.198-4.064c-1.894-7.327-3.74-14.471-5.946-23.007 c6.749,1.863,12.017,3.317,17.966,4.96c5.111-22.322,9.051-44.709,10.303-67.54c0.305-5.553-0.457-11.648,5.988-15.326 c6.068,6.202,6.28,13.429,5.473,20.253c-3.67,31.012-7.822,61.966-11.823,92.939c-0.266,2.058-1.733,4.747-0.91,6.034 c6.218,9.718-1.286,14.992-6.878,19.889c-20.992,18.383-42.482,36.196-63.712,54.308c-20.618,17.591-41.199,35.228-61.685,52.973 c-6.402,5.545-12.444,11.507-20.358,18.865c-3.516-2.151-8.936-4.884-13.701-8.483c-22.824-17.237-41.169-38.933-59.782-60.382 c-4.024-4.638-8.836-8.875-14.012-12.15c-5.176-3.276-5.534-6.503-2.862-11.333c13.934-25.187,27.965-50.324,41.583-75.682 c7.091-13.204,13.397-26.828,20.067-40.258c0.74-1.49,1.172-3.536,2.389-4.299c2.254-1.413,5.454-3.371,7.385-2.675 c1.979,0.714,4.352,4.552,4.037,6.642c-1.048,6.953-2.143,14.265-5.178,20.484c-8.766,17.966-18.486,35.466-27.838,53.146 C145.709,665.58,144.744,667.305,142.696,671.062z M143.747,709.741c0.105,0.653,0.211,1.305,0.316,1.958 c8.779,3.045,17.557,6.09,27.451,9.522c0.508-5.216,0.924-9.493,1.488-15.293C162.331,707.319,153.039,708.53,143.747,709.741z"/>
    <path fill="#261123" d="M286.516,561.375c-8.566-0.899-16.488-1.162-24.17-2.659c-13.886-2.706-27.632-6.135-41.426-9.305 c-1.21-0.278-2.385-0.793-3.51-1.336c-19.633-9.461-21.428-18.684-4.857-32.51c19.817-16.534,40.554-31.966,60.91-47.852 c18.095-14.122,36.105-28.358,54.398-42.22c4.836-3.665,10.58-6.133,15.365-8.843c11.773,8.435,14.708,16.508,11.131,28.335 c-9.289,30.719-20.218,61.071-27.173,92.308c-3.259,14.635-11.302,27.064-13.751,41.748c-2.39,14.326-6.688,28.335-10.197,42.471 c-3.616,14.57-7.213,29.145-10.987,43.674c-1.041,4.01-2.015,8.314-4.258,11.651c-1.804,2.683-6.071,6.182-8.173,5.579 c-2.726-0.782-5.5-5.013-6.255-8.228c-1.214-5.167-1.127-10.727-1.003-16.107c0.688-29.764,6.63-58.787,12.661-87.792 C285.786,567.572,286.029,564.787,286.516,561.375z M313.208,472.813c-0.727-0.56-1.455-1.12-2.182-1.68 c-23.02,17.249-46.04,34.499-71.127,53.298c20.18,5.92,37.808,3.761,56.921,3.987C302.282,509.884,307.745,491.348,313.208,472.813 z"/>
    <path fill="#261123" d="M316.768,339.743c22.047-53.591,73.539-145.116,91.157-161.92c5.402,0.911,6.203,4.856,5.538,9.274 c-1.363,9.056-2.426,18.22-4.68,27.067c-10.609,41.644-21.182,83.321-38.209,122.976c-0.786,1.83-1.836,3.546-3.527,5.158 c0.049-21.361,4.304-42.151,7.11-63.348c-7.19,20.919-14.38,41.839-21.57,62.758c-0.657-0.154-1.313-0.309-1.97-0.463 c3.176-20.475,6.351-40.95,9.635-62.125c-14.171,20.726-28.058,41.04-42.004,61.312 C318.197,340.508,317.28,339.987,316.768,339.743z"/>
    <path fill="#261123" d="M855.246,717.341c3.52-3.055,5.147-4.357,6.65-5.79c15.576-14.854,33.681-21.512,55.598-20.871 c17.576,0.514,35.868,18.064,38.047,35.454c2.817,22.488-13.812,52.664-34.577,61.983c-5.536,2.484-12.092,4.074-18.112,3.888 c-60.345-1.866-92.853-60.564-69.548-109.419c10.253-21.493,22.337-41.424,42.623-54.241 c17.938-11.333,38.267-16.823,59.624-11.935c12.864,2.944,23.166,11.213,31.771,21.194c1.548,1.796,2.792,4.518,2.796,6.816 c0.006,2.988-0.482,6.955-2.398,8.694c-1.913,1.737-5.92,1.863-8.877,1.528c-2.279-0.258-4.57-2.059-6.485-3.626 c-25.817-21.125-67.124-4.825-81.178,15.883c-8.327,12.269-13.871,25.673-16.545,40.217 C854.155,709.724,854.917,712.561,855.246,717.341z M869.859,752.75c9.384,3.169,17.797,6.884,26.603,8.738 c8.773,1.847,17.369-0.086,23.676-7.44c6.636-7.737,8.43-16.957,7.599-26.816c-0.463-5.489-4.025-7.73-9.194-8.293 C894.957,716.37,877.494,723.946,869.859,752.75z"/>
    <path fill="#261123" d="M984.68,454.403c6.585,6.529,12.439,8.006,19.479,7.479c6.554-0.491,13.314,0.423,19.852,1.505 c4.867,0.805,10.561,1.649,14.061,4.624c7.153,6.08,13.636,11.073,23.484,6.074c1.174-0.596,3.835,1.158,5.524,2.257 c8.067,5.253,11.784,19.884,6.651,28.727c-9.622,16.574-19.725,32.87-29.728,49.222c-3.914,6.399-7.833,12.822-12.208,18.904 c-8.668,12.052-17.654,23.874-27.297,35.337c3.303-27.33,2.409-55.294,18.136-79.554c2.285-3.524,3.513-8.644,3.09-12.809 c-0.708-6.955,0.956-12.196,7.461-16.743c-4.627-1.285-8.395-2.331-13.015-3.614c-0.237,2.783-0.453,5.322-0.664,7.813 c-12.097,4.285-14.523-6.908-20.263-12.374c-7.802,6.922-8.508,19.263-19.068,23.667c-5.585-8.447,3.08-13.797,2.666-22.73 c-4.237,3.514-7.531,6.117-10.682,8.883c-12.535,11.002-25.036,22.043-37.529,33.093c-7.43,6.572-16.175,6.933-27.653,6.067 C927.44,505.074,961.814,485.487,984.68,454.403z"/>
    <path fill="#261123" d="M843.894,900.234c1.702,3.196,3.405,6.392,5.617,10.544c6.975-11.429,7.976-25.203,18.077-34.924 c0.531,5.912,1.062,11.824,1.743,19.403c9.665-6.168,8.441-20.253,22.141-23.713c-2.552,6.925-4.412,12.15-6.395,17.328 c-13.237,34.562-26.771,69.013-39.622,103.717c-5.181,13.993-8.804,28.56-13.35,42.798c-0.674,2.113-2.189,4.841-3.945,5.44 c-1.365,0.466-3.683-1.987-5.624-3.058c-7.274-4.016-8.075-10.654-7.508-17.982c1.605-20.737,3.266-41.472,4.623-62.226 c1.086-16.599,1.741-33.225,2.636-49.837c0.13-2.413,0.533-4.812,1.004-8.918c5.196,1.872,9.536,3.436,14.711,5.3 c1.159-8.324,2.458-17.652,3.879-27.86c4.41,8.096,3.496,16.021,2.032,24.014c0.001,5.899,0.002,11.792,0.002,17.684 c0.699-0.053,1.398-0.105,2.096-0.158C845.306,911.936,844.6,906.085,843.894,900.234z"/>
    <path fill="#261123" d="M850.394,599.637c5.117-9.696,12.858-14.461,21.95-18.315c21.469-9.102,43.962-14.617,66.43-20.287 c7.613-1.921,15.393-3.171,23.064-4.872c4.823-1.069,9.556-1.137,11.759,3.999c2.673,6.232-2.006,9.4-6.676,11.39 c-15.246,6.498-30.646,12.639-46.012,18.852c-13.085,5.291-26.483,9.899-39.243,15.874 C863.579,614.747,863.775,615.165,850.394,599.637z"/>
    <path fill="#261123" d="M981.97,403.066c-9.928-10.248-19.439-19.573-28.325-29.458c-4.056-4.512-7.009-10.053-10.165-15.305 c-0.71-1.181-0.84-3.8-0.071-4.531c1.24-1.18,3.719-2.211,5.191-1.753c3.119,0.971,6.089,2.7,8.834,4.545 c14.89,10.004,29.488,20.457,44.606,30.099c8.29,5.287,17.406,9.277,26.149,13.852c0.493-0.688,0.986-1.377,1.479-2.065 c-3.169-2.821-6.472-5.507-9.481-8.49c-7.944-7.874-16.789-15.062-16.714-28.026c0.019-3.37-3.598-6.625-4.331-10.183 c-0.471-2.288,0.66-5.603,2.276-7.338c0.85-0.913,4.685-0.031,6.457,1.13c2.731,1.79,4.895,4.471,7.218,6.854 c9.319,9.558,18.573,19.18,27.94,28.691c1.602,1.627,3.637,2.83,5.76,4.449c-2.705-8.965-4.895-17.234-7.801-25.243 c-0.873-2.405-3.438-4.58-5.755-6c-5.681-3.48-11.691-6.418-17.527-9.65c-5.187-2.873-9.346-6.659-11.296-12.503 c7.271-3.359,13.108-1.663,19.104,2.048c9.217,5.704,18.682,11.049,28.307,16.033c2.97,1.538,7.357,2.827,10.13,1.748 c6.171-2.402,8.64,0.651,10.551,5.211c1.107,2.643,1.445,5.616,2.063,8.455c3.365,15.465,6.734,30.929,10.042,46.406 c0.69,3.229,1.617,6.513,1.603,9.768c-0.042,9.741-5.54,13.232-14.417,9.502c-23.402-9.833-46.792-19.696-70.217-29.476 C992.508,397.214,992.478,397.289,981.97,403.066z"/>
    <path fill="#261123" d="M936.346,284.726c-1.722,9.428-5.849,16.841-12.872,22.506c-13.324,10.748-28.808,16.316-45.723,17.248 c-10.839,0.597-19.561-5.537-25.573-13.554c-8.193-10.926-14.841-23.038-21.797-34.85c-2.948-5.006-4.663-10.73-7.531-15.791 c-3.933-6.941-9.36-7.579-15.373-2.251c-3.638,3.222-7.161,6.572-12.546,11.532c-2.073-5.418-5.047-9.212-4.477-12.366 c3.003-16.614,17.749-32.966,38.11-19.992c9.248,5.893,15.652,13.463,20.451,22.909c5.095,10.028,9.929,20.206,15.452,29.994 c5.014,8.888,8.134,10.036,17.32,6.189c5.695-2.386,10.901-6.038,16.107-9.456c3.462-2.272,6.358-5.408,9.823-7.675 c6.641-4.346,13.321-6.955,20.138,0.223C930.012,281.662,933.295,282.863,936.346,284.726z"/>
  </g>
</svg>