<?xml version="1.0" encoding="utf-8"?>
<svg version="1.1" id="Layer_1" x="0px" y="0px" viewBox="0 0 1200 1200" enable-background="new 0 0 1200 1200" xmlns="http://www.w3.org/2000/svg">
  <path style="stroke: rgb(0, 0, 0); fill: rgb(255, 255, 255);" d="M 574.163 80.383 L 899.522 118.66 L 1115.79 359.809 L 1144.498 681.34 L 981.818 1000.957 L 658.373 1123.445 L 310.048 1062.201 C 310.048 1062.201 99.522 796.172 101.435 796.172 C 103.348 796.172 65.072 476.555 65.072 476.555 L 235.407 189.474 L 574.163 80.383 Z"/>
  <g>
    <path fill="#261123" d="M90.142,764.676c-7.861-50.897-16.823-105.852-24.68-160.965c-4.566-32.027-11.794-63.812-10.951-96.481 c0.044-1.725-0.369-3.723-1.259-5.169c-5.743-9.319-3.059-17.719,1.74-26.514c15.311-28.062,29.972-56.481,45.399-84.479 c13.463-24.433,27.077-48.815,41.601-72.623c21.107-34.599,42.966-68.742,64.779-102.904c6.491-10.165,13.424-20.138,21.1-29.418 c3.808-4.604,9.265-8.694,14.817-10.877c67.071-26.366,134.454-51.786,204.56-69.329c30.099-7.532,59.783-16.74,89.577-25.456 c8.981-2.627,17.539-6.8,26.593-9.048c5.974-1.483,12.535-1.438,18.751-0.973c41.738,3.124,83.499,6.066,125.16,10.031 c28.671,2.729,57.193,7.014,85.783,10.59c20.525,2.567,40.991,6.263,61.595,7.375c26.425,1.426,49.37,9.691,67.73,28.828 c27.709,28.881,55.856,57.409,82.273,87.445c32.127,36.527,62.651,74.464,93.872,111.788c1.157,1.383,2.114,3.098,3.564,4.048 c19.342,12.684,23.301,32.505,25.562,53.455c2.466,22.851,5.011,45.73,8.708,68.403c7.861,48.203,7.401,96.88,9.506,145.422 c1.171,26.997,2.626,53.981,3.965,80.97c0.318,6.408,0.409,12.585-5.672,17.032c-1.607,1.175-2.451,3.737-3.098,5.831 c-15.657,50.7-40.994,97.086-64.817,144.073c-21.178,41.77-43.889,82.761-65.845,124.138c-2.743,5.169-5.319,10.472-7.42,15.925 c-4.622,11.995-13.061,20.679-24.214,26.133c-23.04,11.267-46.336,22.034-69.762,32.481 c-46.504,20.738-93.576,40.14-141.936,56.147c-24.346,8.059-49.5,13.762-73.625,22.384c-29.085,10.395-58.684,6.34-87.985,4.957 c-29.627-1.398-59.061-6.498-88.639-9.365c-57.13-5.537-112.434-20.612-168.468-31.842c-14.536-2.913-28.784-7.436-42.953-11.894 c-3.99-1.255-7.89-4.339-10.661-7.584c-4.88-5.713-8.487-12.504-13.28-18.303c-25.259-30.563-50.645-61.022-76.133-91.395 c-33.339-39.727-63.96-81.522-94.708-123.241C96.25,814.714,87.569,793.686,90.142,764.676z M581.698,297.526 c-3.319,3.141-7.069,7.016-11.151,10.503c-32.534,27.791-64.859,55.836-97.772,83.171 c-46.475,38.598-89.225,81.168-132.809,122.863c-4.136,3.957-4.989,7.305-2.751,12.988c14.665,37.223,27.977,74.999,43.355,111.918 c19.195,46.081,40.346,91.344,59.846,137.302c7.835,18.466,13.525,37.842,20.362,57.29c2.898,0.115,6.023,0.286,9.15,0.357 c23.396,0.528,46.798,0.872,70.189,1.59c39.163,1.202,78.311,3.272,117.48,3.809c45.003,0.617,90.026,0.15,135.035-0.269 c11.512-0.107,23.008-1.808,34.055-2.738c6.865-33.016,12.61-64.947,20.248-96.418c13.067-53.837,25.304-107.849,33.934-162.552 c5.523-35.006,8.66-70.388,12.909-105.967c-2.917-1.591-5.233-2.853-7.547-4.117c-43.118-23.546-86.507-46.612-129.271-70.786 c-36.067-20.388-71.184-42.453-107.154-63.02C628,320.979,605.371,309.945,581.698,297.526z M306.069,1042.694 c45.09-63.828,97.445-120.544,134.389-186.171c-19.45-36.179-30.319-74.389-45.895-110.591 c-15.641-36.352-32.126-72.37-46.671-109.155c-14.545-36.787-27.146-74.342-40.23-110.539 c-77.741-11.183-154.196-25.364-232.236-27.832c-0.262,1.94-0.728,3.267-0.569,4.514c5.021,39.276,9.92,78.569,15.241,117.805 c3.386,24.961,7.403,49.837,11.153,74.749c4.349,28.894,8.702,57.788,13.081,86.678c1.372,9.05,5.608,18.177-1.724,26.541 c25.753,26.536,46.463,55.955,68.238,84.614c26.381,34.723,54.584,68.079,82.489,101.618 C276.795,1011.104,291.38,1026.346,306.069,1042.694z M913.74,497.046c-3.024,58.639-15.646,115.261-27.5,171.957 c-11.952,57.164-25.194,114.058-38.409,173.488c12.894,13.234,27.496,28.32,42.21,43.296 c15.118,15.386,30.562,30.458,45.462,46.051c14.42,15.09,28.328,30.669,43.138,46.77c2.581-3.559,4.346-5.55,5.618-7.817 c14.931-26.618,30.118-53.099,44.588-79.966c22.422-41.631,44.573-83.413,66.38-125.369c11.198-21.545,21.498-43.56,31.959-65.479 c1.701-3.564,2.858-7.707,3.014-11.632c0.501-12.601,0.779-25.234,0.486-37.84c-0.731-31.502-1.597-63.005-2.843-94.491 c-0.996-25.172-2.044-50.368-4.144-75.463c-2.217-26.484-5.745-52.858-8.615-79.289c-0.762-7.016-1.21-14.067-1.951-22.866 c-7.858,3.599-14.476,6.254-20.747,9.567c-31.062,16.411-61.84,33.371-93.099,49.395c-23.625,12.111-47.667,23.451-71.849,34.416 c-8.923,4.046-12.045,9.739-10.736,19.159c9.953-5.27,19.125-10.775,28.81-15.138c37.727-16.996,75.439-33.874,109.566-57.793 c11.139-7.807,24.527-11.196,37.992-13.009c10.535-1.419,13.689,1.293,15.471,11.891c0.671,3.995,1.067,8.054,1.299,12.101 c1.545,26.96,3.086,53.922,4.403,80.894c0.153,3.146-1.077,6.36-1.918,10.9c-8.167-3.745-7.752-10.367-9.811-15.349 c-1.353-3.275-1.701-9.624-3.09-9.795c-9.272-1.14-5.858-10.075-10.357-14.959c-10.588,3.495-13.71-4.152-15.187-13.091 c-9.939,6.441-11.03,21.405-24.818,21.705c-7.324-10.082,3.647-16.049,4.191-24.042c-15.823,3.409-15.823,3.409-22.817-4.831 c-7.967,3.181-16.113,6.434-26.08,10.414c5.018-5.244,8.567-8.954,13.228-13.826c-16.393,4.482-38.112,17.01-44.44,25.246 c18.484-0.942,35.533-9.987,54.01-8.982c1.464,9.905,1.192,10.724-5.514,12.725c-5.98,1.785-12.077,3.178-17.741,4.645 c-1.827,11.928-1.842,11.701-12.031,12.385c-13.407,0.899-26.786,2.199-40.899,3.387c-1.117,7.511,2.512,19.22-12.282,19.095 c-2.022,14.091-1.219,28.666-6.607,40.399c-5.46,11.89-1.827,26.042-11.222,39.542c-7.354-38.435,1.863-72.794,5.382-107.935 C922.004,497.355,918.526,497.225,913.74,497.046z M321.37,1055.204c14.06,3.954,25.963,8.109,38.204,10.608 c60.371,12.325,120.358,26.776,181.793,33.345c33.989,3.635,67.943,7.613,101.924,11.327c3.98,0.435,8.275,1.067,12.017,0.073 c15.138-4.021,30.218-8.323,45.132-13.105c39.416-12.637,79.182-24.369,117.97-38.727c41.36-15.311,81.786-33.15,122.547-50.062 c6.504-2.699,12.622-6.328,19.509-9.826c-45.757-48.546-90.723-96.253-135.941-144.227c-10.507,1.387-22.022,3.796-33.616,4.274 c-36.873,1.521-73.775,3.167-110.666,3.195c-48.988,0.036-97.975-1.697-146.966-2.086c-22.407-0.178-44.826,1.039-66.111,1.594 C423.259,930.198,372.822,991.659,321.37,1055.204z M587.499,98.079c1.188,8.542,2.596,16.774,3.43,25.065 c1.574,15.642,3.057,31.3,4.137,46.982c1.263,18.344,2.264,36.712,2.979,55.085c0.523,13.433,0.378,26.892,0.572,40.339 c0.073,5.051,0.455,9.943,5.722,12.772c5.141,2.762,10.111,5.841,15.247,8.614c35.564,19.202,72.104,36.808,106.49,57.924 c42.914,26.353,86.098,52.027,130.686,75.452c18.605,9.774,37.374,19.781,52.913,35.39 c60.743-30.429,121.503-60.867,182.758-91.553c-9.105-11.876-16.613-22.486-24.952-32.396 c-26.9-31.969-54.915-63.034-80.971-95.669c-26.936-33.738-57.548-63.983-86.569-95.741c-5.088-5.568-9.422-12.395-18.54-6.282 c-1.115,0.747-3.481-0.302-5.251-0.612c-15.048-2.629-30.048-5.571-45.147-7.864c-31.558-4.793-63.087-9.95-94.781-13.634 c-29.472-3.425-59.159-4.979-88.724-7.646C627.908,102.541,608.366,100.264,587.499,98.079z M84.57,472.146 c7.882,0.898,12.747,1.667,17.643,1.976c41.749,2.637,83.433,5.88,124.651,13.408c24.772,4.524,49.567,8.952,74.239,13.976 c6.996,1.424,11.532-0.161,16.748-5.026c20.038-18.689,40.466-36.973,61.104-55c28.772-25.131,57.618-50.188,86.877-74.747 c38.178-32.045,76.79-63.572,115.791-95.797c-7.588-56.345-5.455-115.049-18.08-170.906 c-107.034,27.353-211.881,57.269-313.845,95.219c-2.804,5.529-5.185,11.383-8.526,16.625 c-21.99,34.497-44.338,68.766-66.255,103.308c-12.272,19.341-24.294,38.86-35.789,58.669 c-11.943,20.579-23.105,41.611-34.628,62.434C98.242,447.592,91.946,458.876,84.57,472.146z"/>
    <path fill="#261123" d="M354.189,526.158c4.375-3.321,7.626-4.994,9.812-7.571c19.671-23.194,43.265-41.984,66.948-60.765 c10.903-8.646,21.317-18.015,31.214-27.803c28.251-27.939,58.702-53.22,90.614-76.816c10.511-7.772,10.422-7.892,15.369-20.105 c4.548-0.474,9.777,2.591,14.495-2.528c1.56-1.692,8.566,0.411,12.355,2.265c6.841,3.347,13.241,7.65,19.635,11.843 c15.404,10.1,30.698,20.367,45.557,31.995c-17.366-7.024-34.732-14.048-54.911-22.21c5.863,8.155,10.123,13.695,13.957,19.515 c4.641,7.046,4.496,11.498,0.087,15.678c-4.107,3.894-8.818,3.31-15.615-2.068c-1.763-1.395-3.318-3.049-4.982-4.571 c-1.616-1.477-3.248-2.937-6.683-6.038c-0.64,7.326-1.126,12.853-1.604,18.382c-0.308,3.57,0.158,7.458-1.152,10.609 c-1.004,2.414-4.166,5.221-6.513,5.358c-1.723,0.1-4.491-3.568-5.333-6.051c-1.113-3.28-0.799-7.045-1.098-10.597 c-9.509-0.123-9.509-0.123-10.911-11.492c-2.144,4.468-3.855,8.114-5.636,11.726c-5.206,10.563-6.44,11.168-18.567,9.276 c-9.956,7.506-16.145,20.415-31.506,22.673c0.221-4.212,0.372-7.083,0.592-11.281c-23.801,15.094-42.747,34.387-61.833,53.829 c11.66-7.625,23.319-15.249,36.392-23.799c-4.259,16.127-15.477,24.749-25.411,34.664c2.222,2.422,4.159,4.534,6.526,7.114 c-10.743,17.449-27.436,27.14-46.093,37.721c5.779,0.819,9.242,1.63,12.724,1.725c4.699,0.128,8.813,2.122,8.546,6.594 c-0.192,3.223-3.2,7.514-6.143,9.06c-4.992,2.623-10.924,3.456-17.628,5.375c1.888,2.594,3.555,4.088,4.191,5.937 c1.055,3.064,2.964,8.249,1.812,9.173c-2.692,2.159-7.241,3.613-10.568,2.959c-4.183-0.822-7.917-3.998-11.808-6.221 c-3.757-2.148-7.469-4.376-11.2-6.569c-0.647,0.726-1.294,1.451-1.941,2.177c8.516,9.429,16.939,18.944,25.582,28.254 c5.517,5.943,11.543,11.418,16.991,17.419c3.094,3.408,5.824,7.923,1.388,11.867c-3.557,3.162-8.246,3.171-12.334-0.065 c-5.544-4.387-11.066-8.8-18.08-14.382c7.239,31.955,21.503,58.993,31.597,87.609c0.917-0.291,1.834-0.582,2.75-0.873 c-2.13-8.115-4.399-16.198-6.341-24.358c-1.354-5.688-2.931-11.461-3.111-17.236c-0.104-3.351,2.356-6.782,3.667-10.19 c8.672,2.501,10.801,8.726,13.122,14.442c4.397,10.829,8.282,21.864,12.491,32.771c1.78,4.612,2.575,10.819,6.001,13.365 c13.241,9.842,18.149,24.432,23.399,38.619c4.134,11.172,9.781,21.007,17.571,29.837c2.062,2.337,3.662,5.082,5.451,7.606 c40.887-2.093,81.719-4.183,122.55-6.273c-11.331,8.599-24.941,8.864-37.579,13.471c16.052,3.261,32.477,0.94,48.636,2.338 c15.998,1.383,31.894,3.949,47.854,8.451c-14.274,2.406-28.635,4.403-42.787,7.387c-7.309,1.541-14.248,4.835-21.266,8.512 c46.036,11.134,93.497,4.787,139.668,12.556c-14.591-6.485-29.216-12.898-43.713-19.585c-1.262-0.582-1.688-2.976-2.608-4.729 c8.038-13.258,18.658-1.939,29.483-3.411c-4.24-5.55-8.205-10.099-11.419-15.128c-3.17-4.96-8.132-10.344,0.283-17.079 c9.242,8.612,18.301,17.052,27.359,25.493c0.565-0.344,1.131-0.688,1.697-1.033c-4.13-9.992-8.457-19.91-12.315-30.006 c-2.243-5.87-2.646-11.561,7.237-13.826c3.837,6.453,7.865,13.228,12.452,20.942c4.877-16.334-7.906-32.075-0.531-48.737 c10.294,5.143,10.629,14.62,15.396,22.228c4.04-17.001,7.938-33.405,11.836-49.809c0.979,0.037,1.957,0.074,2.935,0.11 c1.235,26.03,2.47,52.06,3.705,78.09c0.737,0.091,1.473,0.181,2.21,0.272c10.098-54.109,20.196-108.217,30.294-162.326 c-1.292-0.357-2.583-0.714-3.875-1.07c-5.501,16.308-10.943,32.636-16.542,48.91c-1.511,4.391-3.499,8.618-5.154,12.643 c-9.226-1.703-9.459-7.369-8.334-12.796c3.193-15.408,6.736-30.75,10.514-46.026c1.794-7.254,4.436-14.299,4.755-22.343 c-5.091,7.779-9.383,16.27-15.499,23.136c-5.984,6.719-3.048,19.036-16.824,23.387c8.214-26.713,23.464-47.595,33.301-71.657 c-5.048,4.758-10.086,9.525-15.145,14.27c-4.275,4.01-8.631,7.936-12.848,12.007c-3.893,3.758-8.204,6.583-12.8,1.819 c-4.251-4.407-2.238-9.783,1.055-13.451c7.154-7.971,15.068-15.26,22.467-22.625c-12.05,2.936-23.908,6.136-35.931,8.484 c-2.317,0.453-5.286-2.432-10.054-4.835c5.848-3.996,9.958-7.156,14.39-9.772c18.875-11.143,37.846-22.124,56.781-33.165 c-0.14-1.018-0.28-2.037-0.419-3.055c-4.992-1.381-9.907-3.23-14.99-4.058c-18.201-2.967-36.774-4.306-54.6-8.714 c-16.727-4.136-32.684-11.38-48.353-19.062c8.393,0.71,16.785,1.421,25.178,2.131c-28.305-14.919-58.005-26.735-82.787-51.539 c49.026,17.527,94.514,37.874,142.956,50.576c-41.141-19.99-75.213-49.297-108.617-79.707c1.679-3.725,6.897,6.259,8.309-1.41 c0.04-0.216,4.725-0.333,6.634,0.668c18.741,9.825,37.42,19.773,55.986,29.924c35.566,19.444,71.037,39.064,106.57,58.569 c14.677,8.057,15.818,12.508,7.942,27.826c-2.435,4.736-4.466,10.02-5.162,15.255c-4.388,32.985-7.838,66.101-12.625,99.024 c-3.298,22.684-7.444,45.315-12.652,67.634c-8.076,34.614-17.222,68.983-26.305,103.352c-1.692,6.4-5.039,12.402-7.945,18.432 c-4.306,8.935-11.401,11.833-21.489,13.048c-44.551,5.363-89.164,3.174-133.41-0.508c-48.454-4.031-96.802-4.429-145.246-3.792 c-19.674,0.259-33.642-5.353-43.791-24.087c-18.519-34.184-34.184-69.495-48.261-105.604 c-15.036-38.567-29.633-77.307-44.803-115.82c-4.562-11.583-10.753-22.519-15.473-34.049 C354.515,535.487,354.768,530.278,354.189,526.158z M513.87,402.851c-23.232,8.373-23.232,8.373-27.992,20.341 C495.885,415.921,504.878,409.386,513.87,402.851z"/>
    <path fill="#261123" d="M669.387,618.92c-9.781,4.678-17.04,9.849-25.067,11.714c-53.268,12.375-96.947-21.733-105.27-68.074 c-5.201-28.962,5.713-53.159,27.729-70.403c22.833-17.883,50.38-20.38,76.691-8.124c36.742,17.114,58.447,45.84,62.424,87.617 c2.518,26.453,2.292,52.61-7.202,77.17c-19.192,49.651-52.436,78.94-105.179,83.831c-17.793,1.65-35.538,0.854-52.213-5.604 c-14.925-5.78-27.588-14.607-31.813-32.007c-1.834-7.553,0.898-12.701,5.987-16.439c5.4-3.966,10.353-0.961,15.668,2.761 c31.276,21.902,73.139,22.805,104.692,4.027c10.299-6.129,16.941-15.68,22.05-26.594 C663.599,646.589,668.734,634.418,669.387,618.92z M572.165,558.652c3.062,6.162,5.418,13.585,9.888,19.378 c11.702,15.166,41.592,21.589,59.104,13.49c2.379-1.1,4.603-2.7,6.612-4.406c4.106-3.489,8.056-7.166,12-10.84 c11.194-10.429,11.896-13.189,6.317-27.675c-1.438-3.732-3.207-7.504-5.598-10.673c-13.942-18.477-33.731-24.956-55.611-23.887 c-12.207,0.597-23.74,6.266-27.909,19.545C574.578,541.196,573.883,549.34,572.165,558.652z"/>
    <path fill="#261123" d="M535.847,487.176c-5.672,8.68-11.003,17.251-21.923,19.691c-2.458,0.549-5.582,1.383-7.532,0.387 c-9.173-4.683-12.868-13.075-14.655-22.838c-1.529-8.345,4.482-12.412,9.193-16.739c6.003-5.515,17.499-3.695,22.913,3.009 C527.756,475.533,531.204,480.756,535.847,487.176z"/>
    <path fill="#261123" d="M114.39,582.616c4.741,20.128,9.485,40.256,14.221,60.386c1.34,5.698,3.058,11.352,3.765,17.129 c0.257,2.094-1.955,6.432-3.01,6.422c-5.809-0.052-11.791-0.525-17.318-2.178c-2.057-0.616-3.887-4.673-4.365-7.415 c-1.932-11.094-3.267-22.291-4.874-33.442c-3.471-24.09-7.227-48.143-10.364-72.276c-1.782-13.713,2.996-19.496,16.921-19.593 c28.316-0.196,56.712-0.724,84.243,8.19c4.925,1.595,10.623,1.177,15.953,1.073c16.156-0.315,32.308-0.918,48.46-1.437 c11.172-0.359,22.343-0.763,33.748-1.155c9.167,12.055,13.833,26.486,18.947,40.907c10.835,30.556,22.674,60.756,34.004,91.138 c1.911,5.124,7.507,12.077,0.255,15.301c-8.039,3.574-8.415-5.96-10.434-10.651c-8.543-19.847-16.526-39.936-24.781-59.908 c-1.136-2.748-2.648-5.341-5.023-7.63c1.64,20.239,6.255,39.67,13.068,58.609c1.366,3.799,3.222,7.494,3.98,11.405 c0.326,1.685-1.12,4.75-2.589,5.449c-1.429,0.681-5.026-0.236-5.757-1.532c-4.175-7.396-8.06-14.991-11.476-22.768 c-2.262-5.149-3.57-10.717-7.352-15.858c-0.663,5.082-1.339,10.162-1.986,15.246c-0.483,3.793-1.573,8.042-6.13,6.99 c-2.783-0.643-6.379-4.01-6.959-6.722c-1.49-6.956-1.5-14.229-2.286-23.564c-3.543,3.088-5.096,5.331-7.17,6.03 c-2.78,0.938-7.1,1.997-8.695,0.618c-2.209-1.91-3.596-6.105-3.414-9.208c0.659-11.212,2.239-22.366,3.205-33.564 c0.257-2.982-0.432-6.045-0.804-10.458c-18.491,10.807-38.876,10.999-57.705,9.034c-18.764-1.958-36.751-11.363-54.364-17.264 c-2.029,4.748-3.917,9.163-6.904,16.151c2.816,7.084,7.076,16.955,10.513,27.104c0.753,2.221-0.596,6.428-2.441,7.979 c-3.43,2.884-6.821,0.558-8.992-2.74c-1.476-2.241-2.432-4.824-3.616-7.256c-4.336-8.904-8.632-17.828-13.022-26.706 c-2.146-4.339-4.466-8.592-6.707-12.884C116.22,581.918,115.305,582.267,114.39,582.616z M214.665,558.804 c0.205,1.158,0.41,2.316,0.615,3.474c2.98-0.583,5.959-1.165,8.939-1.747c-0.12-0.834-0.24-1.667-0.36-2.501 C220.794,558.288,217.729,558.546,214.665,558.804z"/>
    <path fill="#261123" d="M355.452,819.562c4.147-1.213,7.736-2.263,11.718-3.428c1.661-2.525,3.24-7.502,6.312-8.722 c2.195-0.872,6.527,3.105,9.653,5.28c2.536,1.764,4.698,4.066,8.047,5.7c-10.209-28.651-20.948-56.995-18.563-90.4 c3.159,8.754,5.666,15.569,8.082,22.417c8.37,23.731,16.566,47.525,25.179,71.167c1.721,4.725,2.493,10.207,8.98,12.53 c2.258,0.809,4.753,8.033,3.492,10.25c-3.613,6.35-0.098,12.167-0.78,17.789c-1.159,9.554-4.254,19.43-8.905,27.864 c-5.827,10.569-14.003,19.851-21.271,29.609c-1.317,1.767-3.035,4.364-4.752,4.518c-9.936,0.891-13.58,9.178-18.952,15.366 c-18.874,21.743-37.557,43.654-56.501,65.336c-5.702,6.526-13.382,10.42-20.891-0.306c-5.644-8.062-9.699-17.297-15.746-25.002 c-14.457-18.422-29.877-36.085-44.487-54.392c-6.372-7.984-11.344-17.077-17.619-25.149c-6.066-7.804-12.968-14.961-19.537-22.371 c-13.727-15.486-27.473-30.955-41.221-46.422c-1.789-2.012-3.301-5.095-5.519-5.76c-10.774-3.233-12.743-12.3-13.949-21.167 c-4.187-30.789-7.84-61.651-11.582-92.499c-0.713-5.878-0.179-11.577,6.123-17.076c2.546,6.035,5.778,11.011,6.723,16.389 c4.435,25.24,8.811,50.519,12.033,75.933c1.619,12.773,4.397,23.385,13.723,33.704c17.775,19.67,32.681,41.899,49.541,62.44 c12.516,15.249,26.235,29.51,39.14,43.901c3.659-4.754,6.805-8.841,11.28-14.656c8.746,11.468,15.972,20.943,23.816,31.227 c1.612-5.675,2.965-10.436,4.926-17.338c14.636,9.578,10.549,26.37,18.709,37.617c2.816-17.399-3.956-36.323,14.219-50.961 c2.719,5.292,4.976,8.898,6.456,12.799c1.32,3.48,1.782,7.286,3.671,10.991c4.478-12.641,9.509-24.367,20.792-34.796 c-0.666,10.616-1.211,19.292-1.903,30.318c11.007-8.773,19.98-15.925,29.77-23.729c-6.599-6.122-5.252-12.719-1.445-20.043 c4.701-9.045,11.265-17.705,8.819-30.695c-5.565,0.827-11.502,1.678-17.428,2.6c-6.219,0.967-12.402,2.224-18.648,2.942 c-5.795,0.666-9.443-2.094-10.721-9.005c10.613-13.501,28.374-6.621,42.551-12.992 C370.229,834.931,357.441,834.746,355.452,819.562z"/>
    <path fill="#261123" d="M348.527,745.174c-0.204,12.464-5.727,19.703-16.636,22.695c-22.495,6.171-45.094,11.976-67.519,18.389 c-24.562,7.025-48.976,14.567-75.958,22.632c4.168,3.925,5.972,6.184,8.269,7.692c10.881,7.144,21.908,14.063,32.854,21.109 c2.642,1.701,5.945,3.071,7.543,5.511c1.726,2.636,3.266,6.996,2.193,9.403c-1.036,2.323-5.467,4.183-8.479,4.295 c-3.361,0.125-7.165-1.352-10.153-3.16c-18.415-11.143-37.151-21.866-54.78-34.163c-11.807-8.236-9.772-21.208,3.419-27.412 c25.574-12.027,51.253-23.92,78.915-30.563c26.663-6.403,53.424-12.399,80.036-19.001C335.292,740.85,341.407,742,348.527,745.174z "/>
    <path fill="#261123" d="M927.345,739.279c4.27,10.325,5.418,19.264,1.329,28.283c-6.645,14.656-13.569,29.186-21.619,46.434 c13.938-11.083,25.928-20.616,39.483-31.395c0.741,3.573,2.598,7.015,1.578,8.568c-4.138,6.302-8.556,12.665-14.006,17.801 c-7.102,6.692-15.282,12.241-23.096,19.594c27.935-9.315,47.395,2.508,63.373,25.956c1.407-7.691,2.393-13.081,3.423-18.712 c9.056,3.271,9.056,3.271,15.312,18.263c3.853,0.641,8.078,0.197,10.518,2.074c2.432,1.87,3.074,6.069,4.93,10.204 c7.159-12.348,13.295-24.336,20.741-35.445c11.264-16.805,22.961-33.37,35.357-49.352c14.035-18.095,21.464-39.336,31.875-61.124 c-4.565,0.747-7.723,1.263-11.008,1.801c-0.382-12.461,8.562-20.717,14.286-30.348c-4.361-3.055-8.19-5.737-14.366-10.064 c6.62-2.536,10.833-4.15,15.534-5.951c-3.278-9.521-14.121-15.613-12.821-29.052c5.172,0.537,10.12,1.052,16.755,1.741 c-0.128-4.434,0.383-9.247-0.517-13.78c-3.12-15.709,2.953-30.56,3.707-45.878c0.461-9.349,0.711-18.708,1.114-29.61 c10.367,6.394,11.66,15.855,12.331,24.052c2.754,33.639,3.964,67.38,0.434,101.073c-0.362,3.462-1.807,6.966-3.402,10.12 c-13.2,26.109-25.917,52.491-40.004,78.116c-23.789,43.271-48.557,86.003-72.718,129.071c-5.275,9.404-10.034,19.13-14.485,28.955 c-5.602,12.367-9.067,14.573-20.211,6.501c-16.339-11.836-31.772-25.032-46.776-38.553c-6.955-6.268-13.857-12.363-21.2-18.215 c-12.199-9.722-23.306-21.174-33.154-33.294c-3.534-4.349-3.762-13.044-2.628-19.229c4.134-22.551,9.402-44.898,14.394-67.289 c4.703-21.091,9.245-42.229,14.536-63.175c3.372-13.347,7.98-26.382,12.811-39.323c8.698,47.177-4.597,91.748-14.022,137.047 C908.461,778.637,914.762,757.934,927.345,739.279z M946.299,856.166c-2.409-6.707-4.694-13.069-6.859-19.094 c-13.793,3.133-26.018,5.909-40.732,9.251c4.067,2.796,5.43,4.482,6.938,4.624c4.026,0.381,7.446,9.664,12.115,0.983 c7.741,4.905,17.913-4.38,25.08,4.263C943.168,856.587,944.426,856.209,946.299,856.166z M934.517,888.834 c-0.076-6.095-2.235-10.009-10.973-10.611C928.386,882.906,931.451,885.87,934.517,888.834z"/>
    <path fill="#261123" d="M1059.703,556.344c-2.533-5.927-3.932-8.668-4.888-11.556c-1.777-5.369-0.207-10.094,4.639-12.706 c4.913-2.648,10.807-3.622,14.46,1.861c7.955,11.936,16.217,23.819,22.604,36.599c4.842,9.688-4.168,21.544-15.598,20.574 c-18.672-1.585-37.262-4.431-55.781-7.404c-8.378-1.345-16.412-4.716-24.761-6.372c-11.276-2.236-21.32-7.157-30.488-13.62 c-4.001-2.821-6.481-7.799-9.701-11.86c5.807-10.932,14.971-16.338,26.457-14.142c17.093,3.268,33.859,8.249,50.748,12.568 C1043.82,551.929,1050.199,553.756,1059.703,556.344z"/>
    <path fill="#261123" d="M926.828,701.371c8.414-12.527,16.468-16.191,28.71-11.385c16.728,6.568,32.963,14.388,49.439,21.602 c7.338,3.213,14.751,6.256,23.248,9.849c-0.781-9.272-1.445-17.026-2.081-24.782c-0.258-3.143-1.31-6.559-0.43-9.357 c0.805-2.56,3.424-5.72,5.802-6.289c2.432-0.583,5.914,1.154,8.223,2.847c1.534,1.125,1.836,3.951,2.653,6.029 c5.597,14.22,11.146,28.458,16.795,42.657c2.03,5.103,4.192,9.782-0.622,14.92c-4.825,5.15-8.938,8.793-17.231,7.204 c-37.151-7.119-71.342-21.267-102.984-41.689C933.819,710.052,930.539,705.187,926.828,701.371z"/>
    <path fill="#261123" d="M842.888,1010.771c-7.517-4.439-16.577,3.225-20.842-6.686c3.877-11.941,16.932-4.831,25.589-12.599 c-6.703-1.14-11.921-1.415-16.675-3.045c-3.382-1.159-8.412-3.87-8.714-6.371c-0.701-5.791,5.009-6.415,9.482-6.984 c3.046-0.387,6.156-0.273,11.449-0.462c-3.521-3.296-5.448-5.415-7.69-7.119c-2.857-2.171-6.462-3.547-8.843-6.104 c-2.862-3.073-7.022-7.314-6.614-10.542c0.759-6.009,6.835-5.718,13.286-4.8c-2.764-3.447-5.402-5.799-6.745-8.741 c-0.905-1.983-0.905-5.721,0.37-6.998c1.408-1.41,5.194-1.92,7.132-1.037c4.857,2.212,9.254,5.432,14.687,8.771 c-5.022-22.006-16.746-38.138-35.378-52.83c-0.64,7.171-1.265,12.262-1.498,17.371c-0.204,4.481,0.51,9.043-0.049,13.46 c-0.653,5.155-4.727,8.62-9.398,7.64c-3.078-0.646-7.031-4.759-7.631-7.887c-1.039-5.415,0.22-11.271,0.643-19.381 c-5.167,5.579-8.611,9.659-12.431,13.351c-8.868,8.572-13.516,7.369-17.626-4.298c-7.3,1.362-14.613,2.727-24.051,4.488 c0.936-5.727,1.528-9.352,2.211-13.533c-8.69,0.343-17.547,0.693-26.404,1.042c-0.156-0.483-0.312-0.965-0.468-1.448 c4.971-1.912,9.942-3.824,14.913-5.736c-0.086-0.715-0.173-1.43-0.259-2.146c-7.659,0.405-15.325,0.715-22.975,1.253 c-4.039,0.284-8.037,1.122-12.076,1.425c-4.139,0.311-9.886,3.211-10.95-3.635c-0.878-5.649,4.598-7.481,8.723-8.6 c8.683-2.356,17.515-4.484,26.424-5.629c26.358-3.388,52.784-6.237,79.178-9.339c4.47-0.525,9.623-0.038,13.232-2.135 c8.502-4.938,13.857-1.043,18.275,5.241c4.634,6.592,8.352,13.823,12.559,20.721c6.07,9.951,12.058,19.957,18.368,29.755 c14.191,22.037,31.87,41.194,49.658,60.315c11.634,12.506,10.212,20.546-5.325,28.269c-20.544,10.212-41.476,19.693-62.534,28.811 c-35.122,15.207-70.282,30.361-105.805,44.59c-20.856,8.354-42.325,15.26-63.78,21.983c-6.126,1.919-13.289,1.898-19.766,1.087 c-28.845-3.608-57.644-7.627-86.392-11.948c-7.961-1.197-15.609-4.36-23.544-5.873c-10.967-2.092-22.083-3.381-33.109-5.181 c-29.741-4.854-59.483-9.709-89.194-14.739c-15.513-2.626-30.943-5.745-46.46-8.344c-2.901-0.486-6.075,0.237-9.061,0.757 c-8.709,1.518-13.807-2.892-10.608-11.057c3.722-9.5,8.583-19.075,15.064-26.856c11.218-13.47,23.307-26.443,36.435-38.036 c14.282-12.612,23.37-28.106,31.723-44.741c9.055-18.035,19.372-35.449,29.507-52.92c3.893-6.711,10.745-9.737,18.254-9.874 c13.922-0.255,27.955-0.849,41.763,0.509c21.9,2.154,43.649,5.83,65.471,8.794c8.006,1.088,16.037,1.983,25.147,3.099 c-30.107,9.44-60.071,11.012-90.649,9.077c13.541,7.28,30.952,4.036,40.897,18.058c-8.971,9.591-21.555,7.591-66.154-8.845 c8.37,12.858,26.097,10.966,33.451,24.182c-7.58,7.526-14.656,1.384-21.127-0.688c-6.64-2.125-12.638-6.253-20.112-10.123 c1.971,11.596,3.98,21.663,5.269,31.82c0.551,4.343,0.199,9.034-0.925,13.253c-0.526,1.973-3.819,4.344-5.932,4.418 c-1.857,0.065-4.625-2.45-5.56-4.483c-1.85-4.021-2.712-8.497-4.348-14.02c-9.421,7.387-18.978,13.663-26.653,1.164 c-14.172,17.322-28.035,34.266-41.898,51.211c0.34,0.558,0.68,1.115,1.02,1.673c7.995-4.407,15.88-9.034,24.018-13.159 c7.827-3.968,15.917-7.419,26.035-12.085c-6.932,9.462-12.624,17.231-18.316,25c0.373,0.649,0.747,1.298,1.121,1.947 c6.329-2.607,12.659-5.214,20.391-8.399c-4.603,12.727-14.186,20.382-24.075,29.484c10.796,0.224,19.912,0.413,29.028,0.602 c0.201,1.079,0.403,2.158,0.604,3.237c-13.484,4.756-26.968,9.512-42.313,14.924c2.688,1.367,3.895,2.331,5.246,2.618 c44.012,9.36,87.935,19.195,132.104,27.748c24.727,4.788,50.048,6.534,74.746,11.438c11.784,2.339,21.339,0.528,32.137-3.84 c37.936-15.349,76.359-29.491,114.518-44.295c5.85-2.269,12.744-2.754,14.916-11.448c0.822-3.291,7.739-5.509,12.237-7.331 C826.638,1015.976,834.36,1013.684,842.888,1010.771z"/>
    <path fill="#261123" d="M589.974,1046.766c0.821-11.294,7.474-17.146,17.018-18.696c22.108-3.591,44.333-6.542,66.581-9.154 c10.655-1.251,21.482-0.981,32.205-1.754c3.01-0.217,5.929-1.69,9.586-2.798c0.514-6.821,1.013-13.431,1.613-21.383 c-3.396,0.599-5.84,0.792-8.139,1.474c-13.763,4.087-27.252,9.619-41.286,12.167c-27.791,5.046-50.429-6.647-68.173-26.869 c-11.498-13.104-5.497-28.565,1.087-41.879c9.244-18.694,23.886-31.353,46.075-32.056c13.357-0.423,26.778-1.071,40.082-0.23 c12.341,0.78,23.753,4.841,30.228,17.167c-2.175,16.471-5.074,17.605-21.841,15.012c-15.884-2.456-32.117-3.289-48.214-3.514 c-11.277-0.158-21.003,4.642-26.994,15.101c-4.913,8.577-4.032,14.916,3.549,21.495c10.179,8.833,22.383,12.092,35.274,9.523 c13.137-2.618,26.027-6.695,38.789-10.857c4.519-1.474,8.901-4.505,12.352-7.851c5.191-5.033,10.689-4.897,16.004-1.795 c10.802,6.305,19.417,14.657,19.752,28.301c0.32,13.023,0.648,26.076,0.13,39.082c-0.659,16.574-5.405,20.91-22.351,22.099 c-10.339,0.726-20.691,1.255-31.03,1.981c-20.557,1.445-41.089,3.718-61.667,4.241 C610.8,1056.074,605.903,1058.009,589.974,1046.766z"/>
    <path fill="#261123" d="M696.004,279.681c-1.554,4.204-2.742,7.418-4.205,11.378c1.771,1.253,3.776,3.022,6.072,4.241 c21.075,11.186,42.23,22.221,63.272,33.47c2.449,1.309,4.349,3.645,5.534,7.469c-2.424-0.35-5.001-0.282-7.248-1.111 c-47.023-17.339-92.357-38.312-136.043-62.909c-4.854-2.733-7.512-5.759-8.264-11.148c-4.604-32.969-9.494-65.9-13.901-98.895 c-0.762-5.706,0.572-11.662,0.491-17.496c-0.1-7.243,2.706-14.365-3.44-21.639c-2.384-2.822,1.914-11.29,3.184-17.26 c39.549,12.415,79.254,11.206,118.463,14.234c1.747,0.135,3.516,0.553,5.163,1.149c0.7,0.254,1.111,1.308,2.015,2.458 c-3.124,6.543-8.864,3.518-13.774,3.658c-4.817,0.138-9.622,0.752-16.338,1.317c3.16,3.37,4.996,5.326,7.504,8.001 c-14.186,9.339-28.427,3.104-42.994,2.815c0.013,2.709,0.026,5.546,0.038,8.212c-7.068,4.891-13.379,11.028-20.934,13.973 c-7.11,2.772-15.532,2.178-24.845,3.231c1.47,3.624,3.377,8.327,5.284,13.029c1.05,0.484,2.101,0.968,3.151,1.452 c1.385-2.414,2.77-4.828,4.288-7.474c2.329,4.222,4.689,8.499,7.119,12.906c7.485-6.942,12.487-6.422,14.45,2.118 c1.874,8.151,1.669,16.779,2.44,25.932c8.054-2.533,7.787-18.813,21.048-13.486c5.072,8.771-1.418,16.003-3.863,24.082 c14.09,19.222-6.857,24.147-14.867,35.209C664.959,271.395,682.449,270.271,696.004,279.681z"/>
    <path fill="#261123" d="M979.23,295.034c4.762,0.703,8.524,1.259,13.415,1.981c-3.088-5.393-5.972-9.864-8.274-14.617 c-2.113-4.361-3.599-9.026-3.538-15.163c15.025,12.309,30.309,24.319,45.003,37.011c14.588,12.601,28.582,25.889,43.573,39.546 c-1.423,2.235-3.141,4.934-5.365,8.427c4.912,0.512,8.963,0.935,13.802,1.44c-4.512,11.391-13.876,14.735-22.96,18.228 c-7.971,3.065-16.315,5.226-24.118,8.645c-6.078,2.663-11.422,6.952-17.369,9.975c-10.403,5.287-20.879,10.477-31.582,15.115 c-12.791,5.543-25.585,11.357-38.89,15.342c-9.054,2.712-15.204,13.206-25.331,10.674c-8.428-2.107-16.3-6.781-24.133-10.866 c-26.733-13.942-53.337-28.133-79.999-42.211c-5.566-2.939-11.283-5.613-16.724-8.763c-4.316-2.499-8.861-5.294-4.997-12.302 c11.363-3.448,22.589-0.629,33.546,3.37c7.166,2.615,13.886,6.448,21.039,9.105c3.93,1.46,8.412,1.355,12.522,2.43 c4.263,1.115,8.783,2.138,12.468,4.384c6.862,4.183,13.2,9.225,20.597,14.51c-0.126-3.555-0.235-6.609-0.382-10.729 c15.094,1.826,19.402,14.274,26.809,23.076c9.185,0.009,16.391-16.017,28.189-3.363c-0.199,0.007,0.736,0.197,1.491-0.088 c25.34-9.578,50.662-19.201,75.655-31.089c-10.388,0.875-20.781,1.704-31.164,2.641c-6.276,0.566-12.527,1.447-18.81,1.889 c-2.646,0.186-5.783,0.374-7.905-0.832c-2.385-1.355-5.176-4.203-5.32-6.553c-0.103-1.677,3.668-4.812,6.059-5.213 c11.076-1.857,22.278-2.95,33.425-4.396c3.782-0.491,7.533-1.216,11.371-4.143c-7.027-2.074-14.151-3.873-21.053-6.3 c-6.623-2.328-13.758-4.313-17.391-12.782c15.996-3.939,30.44,3.071,46.833,3.677c-13.379-14.593-33.104-19.587-41.761-36.848 C977.515,299.358,978.522,297.748,979.23,295.034z"/>
    <path fill="#261123" d="M906.558,251.487c-0.97,23.032-10.917,45.731-33.355,61.842c-6.87,4.933-14.71,8.585-22.316,12.406 c-17.098,8.589-32.666,3.569-46.47-7.181c-14.632-11.393-20.79-26.536-16.234-45.386c3.221-13.327,8.124-25.533,17.214-36.133 c5.52-6.437,9.588-14.098,14.582-21.011c6.868-9.509,16.152-14.151,28.008-12.506c8.878,1.232,17.926,2.025,26.515,4.4 C892.272,212.831,905.047,229.28,906.558,251.487z M852.895,233.416c-11.139,0.761-22.483,7.348-28.479,21.83 c-1.543,3.727-3.321,7.358-5.023,11.019c-6.11,13.143-1.665,24.737,6.215,35.102c6.364,8.37,14.043,9.063,22.337,2.911 c6.828-5.064,13.52-10.435,19.596-16.362c12.831-12.517,15.999-30.038,8.651-44.279 C871.272,234.098,867.54,232.054,852.895,233.416z"/>
    <path fill="#261123" d="M900.591,182.767c-8.82,14.715-9.139,14.7-25.09,0.901c-17.335,3.562-17.335,3.562-19.504-12.349 c-4.22,0.948-8.395,1.899-12.575,2.823c-4.127,0.911-8.686,1.527-10.182-3.485c-1.245-4.169,0.339-7.963,5.366-9.27 c0.997-0.259,1.756-1.43,4.654-3.933c-7.834-0.085-13.49,0.318-19.006-0.384c-3.215-0.409-8.772-2.424-8.872-3.997 c-0.583-9.13-7.168-8.697-13.207-9.901c-7.493-1.495-15-3.09-22.31-5.279c-4.682-1.402-9.302-3.527-13.372-6.205 c-1.607-1.057-2.335-4.571-2.094-6.82c0.112-1.046,3.446-2.29,5.401-2.449c2.148-0.175,4.39,0.793,6.591,1.264 c24.616,5.261,49.225,10.558,73.854,15.759c7.028,1.484,14.084,3.611,21.179,3.841c16.541,0.536,27.072,10.27,37.045,21.734 c14.738,16.943,29.81,33.594,44.757,50.355c1.195,1.34,3.328,2.409,3.613,3.878c0.609,3.135,0.291,6.451,0.353,9.692 c-2.852-0.352-6.372,0.227-8.422-1.243c-4.709-3.378-8.727-7.727-12.98-11.729C924.366,205.215,912.963,194.438,900.591,182.767z"/>
    <path fill="#261123" d="M699.846,264.314c-14.097-10.252-15.963-16.025-8.342-28.198c11.902-19.011,24.68-37.473,36.987-56.233 c3.113-4.745,5.85-9.736,9.184-15.326c-15.273-5.001-31.619,4.127-46.118-8.322c4.163-2.777,6.705-5.529,9.757-6.323 c12.556-3.268,25.146-6.842,37.958-8.558c10.818-1.449,21.862,0.212,26.995,12.19c1.592,3.713,2.855,8.906,1.505,12.332 c-11.922,30.253-27.075,58.757-49.314,82.85C713.106,254.523,706.301,258.978,699.846,264.314z"/>
    <path fill="#261123" d="M549.667,121.299c3.892,8.057,0.199,16.382,7.464,21.556c1.45,1.033,0.184,5.915,0.125,9.021 c-0.186,9.912-0.074,19.547,4.33,29.023c6.248,13.444,5.666,28.143,4.962,42.56c-0.525,10.772-2.664,21.49-2.825,32.251 c-0.199,13.297-6.372,23.276-15.562,31.681c-7.953,7.274-16.478,13.95-25,20.569c-21.313,16.552-42.762,32.928-64.169,49.358 c-4.19,3.216-8.091,7.914-14.196,3.07c-0.911-7.272,2.619-12.513,7.794-17.174c14.704-13.244,29.308-26.598,43.959-39.9 c1.904-1.729,3.852-3.409,6.873-6.077c-14.074-1.311-23.642,5.735-33.925,10.671c-8.088,3.883-16.14,7.964-24.564,10.951 c-2.569,0.911-8.017-0.627-9.074-2.649c-1.149-2.199,0.215-7.637,2.333-9.28c8.48-6.578,17.716-12.175,26.593-18.25 c4.236-2.899,10.412-4.112,9.741-11.786c-1.368-1.026-3.375-2.531-5.486-4.113c17.188-9.433,36.08-8.581,56.729-11.778 c-22.729-7.024-45.736-8.395-62.102-29.609c11.313,0.464,20.705,0.849,31.267,1.282c-2.11-3.527-4.442-6.59-5.875-10.028 c-1.87-4.486-3.954-9.225-4.182-13.94c-0.168-3.48,1.589-9.104,4.078-10.216c4.624-2.066,9.227,0.615,12.364,5.276 c3.403,5.056,7.386,9.722,12.731,16.652c-2.842-17.374-5.212-31.857-7.741-47.32c-3.513,2.549-7.378,5.284-11.154,8.138 c-1.059,0.8-1.673,2.343-2.805,2.864c-4.139,1.907-8.272,7.83-12.949,2.539c-3.822-4.324,0.433-8.534,3.334-11.764 c6.245-6.954,12.901-13.538,20.371-21.293c-18.453,2.411-32.752,14.161-51.227,11.495c12.658-6.068,25.316-12.136,37.974-18.205 c-0.104-0.616-0.208-1.232-0.311-1.848c-4.349,0.86-8.775,1.442-13.034,2.627c-17.329,4.824-34.564,9.994-51.929,14.68 c-5.598,1.511-11.462,2.389-17.255,2.75c-10.83,0.674-19.925,4.747-27.99,12.283c5.036,1.344,9.651,2.575,16.68,4.451 c-10.026,6.405-18.447,11.337-26.391,16.944c-22.506,15.885-48.876,15.647-74.494,17.657c-31.459,2.469-31.531,1.862-50.103,27.628 c-3.157,4.379-6.013,8.977-8.952,13.51c-2.458,3.79-5.716,6.233-10.142,3.943c-4.724-2.444-3.511-6.905-2.066-10.71 c1.097-2.888,2.761-5.703,4.727-8.095c10.574-12.861,20.87-26.005,32.254-38.118c4.026-4.284,10.585-6.784,16.449-8.641 c28.713-9.096,57.565-17.759,86.405-26.45c11.608-3.498,23.266-6.849,34.999-9.894c3.325-0.863,7.095-1.014,10.483-0.44 c8.886,1.506,16.194,0.431,21.207-8.313c1.332-2.323,4.902-3.826,7.754-4.741c17.976-5.762,35.886-11.833,54.124-16.637 c13.025-3.431,26.493-5.273,39.836-7.356C537.756,121.223,543.594,121.539,549.667,121.299z M517.085,162.523 c8.207,6.047,8.663,5.979,15.359-2.507C526.832,160.932,522.408,161.654,517.085,162.523z"/>
    <path fill="#261123" d="M219.768,265.751c-7.086,31.136-22.144,57.847-26.784,89.282c3.593-3.557,6.198-6.137,9.751-9.655 c-1.793,19.861-13.553,33.878-23.814,51.019c8.611-1.854,12.413-7.651,17.674-10.846c5.74-3.485,11.354-7.179,17.262-10.935 c-1.561,10.466-2.71,12.511-14.84,23.548c-7.076,6.439-14.495,12.502-21.267,19.418c13.094-2.199,23.967-12.548,39.37-8.701 c-1.012,4.694-1.885,8.745-2.938,13.633c6.078,1.645,12.045,3.26,19.472,5.269c-1.158-5.242-2.054-9.3-3.473-15.722 c7.938,3.015,14.205,5.395,21.564,8.189c-3.699-5.985-6.856-11.094-10.013-16.203c24.303,5.062,38.214,23.82,55.419,41.541 c-1.063-12.622-1.941-23.047-2.96-35.157c5.913,7.673,11,14.274,17.511,22.724c4.397-14.196,8.263-26.681,12.248-39.55 c11.712,7.256,7.699,17.554,8.202,27.74c5.416-5.129,9.908-9.383,15.013-14.216c4.884,4.442,10.453,5.363,16.764,6.024 c5.837,0.611,9.277-1.096,13.254-4.103c16.518-12.494,33.078-24.931,49.688-37.303c2.342-1.744,5.043-3.007,9.126-2.543 c-10.593,10.722-20.817,21.842-31.851,32.088c-28.995,26.922-58.487,53.311-87.442,80.276c-6.362,5.925-11.504,6.678-20.144,4.04 c-19.71-6.018-40.126-9.73-60.267-14.326c-21.455-4.896-42.883-9.923-64.4-14.53c-14.525-3.11-29.185-4.343-43.974-1.216 c-9.543,2.017-12.831-1.503-10.204-10.719c0.853-2.994,2.327-5.856,3.814-8.619c12.57-23.358,25.378-46.59,37.781-70.036 c14.09-26.636,27.73-53.51,41.8-80.157C205.035,278.575,208.765,270.681,219.768,265.751z M183.085,436.693 c9.351,1.039,18.746,1.797,28.038,3.227c5.125,0.788,10.098,2.631,15.101,4.127c7.182,2.147,14.328,4.412,21.489,6.627 c0.344-0.989,0.688-1.978,1.032-2.967c-11.395-5.202-23.346-9.472-34.037-15.853C202.531,424.586,192.923,429.655,183.085,436.693z "/>
    <path fill="#261123" d="M420.23,341.489c-7.904,16.036-12.202,17.805-24.713,7.575c-14.253-11.654-27.268-24.824-40.762-37.398 c-2.897-2.701-5.543-5.671-9.422-9.668c-8.828,5.941-17.231,11.641-25.679,17.272c-14.968,9.978-29.901,20.009-44.986,29.807 c-4.122,2.677-8.585,4.973-13.151,6.794c-9.798,3.906-15.888,3.131-20.898-3.31c-4.899-6.298-6.823-13.288-2.734-21.259 c7.191-14.015,13.781-28.337,20.829-42.427c4.828-9.65,11.336-18.682,14.7-28.787c4.48-13.461,14.822-21.613,23.761-31.162 c4.051-4.327,11.265-4.559,17.005,0.556c11.054,9.85,21.678,20.239,31.89,30.965c20.464,21.493,40.582,43.317,60.725,65.114 C411.621,330.785,415.986,336.434,420.23,341.489z M265.049,322.556c0.935,0.762,1.869,1.524,2.804,2.285 c19.916-14.044,39.832-28.087,60.434-42.615c-6.741-13.051-18.92-20.496-29.008-31.181 C287.367,275.929,276.208,299.242,265.049,322.556z"/>
  </g>
</svg>