<?xml version="1.0" encoding="utf-8"?>
<svg version="1.1" id="Layer_1" x="0px" y="0px" viewBox="0 0 1200 1200" enable-background="new 0 0 1200 1200" xmlns="http://www.w3.org/2000/svg">
  <path style="stroke: rgb(0, 0, 0); fill: rgb(255, 255, 255);" d="M 587.56 61.244 L 1075.598 315.79 L 1085.168 824.881 L 627.751 1138.756 L 139.713 874.641 L 112.919 357.895 L 587.56 61.244 Z"/>
  <g>
    <path fill="#261123" d="M592.003,52.394c3.24,2.405,6.205,5.365,9.763,7.129c30.133,14.94,60.466,29.474,90.557,44.497 c36.313,18.129,72.463,36.587,108.651,54.966c14.673,7.452,29.247,15.1,43.892,22.607c33.189,17.013,66.389,34.005,99.595,50.984 c17.621,9.009,35.199,18.107,52.916,26.925c25.104,12.495,50.285,24.837,75.518,37.069c4.482,2.173,7.334,5.083,8.647,9.964 c1.516,5.635,4.48,10.986,5.306,16.679c1.552,10.696,2.23,21.536,2.888,32.339c0.877,14.412,0.819,28.901,2.181,43.261 c2.593,27.327,1.885,54.681,1.881,82.043c-0.006,41.555,0.186,83.109,0.088,124.664c-0.086,36.227-0.705,72.453-0.629,108.679 c0.072,34.241,0.602,68.483,1.273,102.717c0.133,6.779,1.826,13.529,3.004,21.712c-2.377,1.783-5.626,4.479-9.121,6.806 c-57.994,38.616-116.231,76.871-173.971,115.864c-47.6,32.145-94.605,65.172-141.903,97.764 c-23.653,16.299-47.203,32.755-71.134,48.636c-11.253,7.468-23.441,13.51-34.928,20.646c-7.835,4.868-15.299,10.361-22.729,15.845 c-9.796,7.23-18.985,7.676-30.141,1.54c-25.159-13.838-51.068-26.308-76.634-39.409c-40.841-20.927-81.661-41.896-122.47-62.885 c-16.126-8.294-32.444-16.257-48.248-25.129c-35.696-20.038-71.14-40.525-106.661-60.875 c-23.753-13.608-47.517-27.197-71.17-40.976c-15.977-9.307-31.782-18.908-47.636-28.425c-6.241-3.747-9.952-8.626-7.156-16.429 c0.53-1.48,0.493-3.267,0.332-4.874c-2.211-21.993-4.791-43.954-6.691-65.974c-4.168-48.309-8.891-96.596-11.695-144.989 c-2.348-40.525-2.019-81.199-3.41-121.788c-0.756-22.081-2.856-44.113-3.93-66.186c-1.233-25.354-1.903-50.734-3.045-76.093 c-0.281-6.237-1.328-12.451-2.223-18.646c-2.232-15.455,2.733-23.436,17.623-28.114c1.244-0.391,2.564-0.762,3.626-1.473 c24.905-16.685,51.001-31.515,74.153-50.923c13.593-11.395,29.88-19.525,43.881-30.495c21.913-17.17,45.335-31.975,68.81-46.752 c20.105-12.656,40.232-25.298,60.703-37.344c43.518-25.609,87.358-50.672,130.885-76.266 c25.309-14.881,50.232-30.417,75.421-45.504c4.125-2.471,8.731-4.14,13.114-6.179C591.461,50.798,591.732,51.596,592.003,52.394z M615.987,848.124c-2.802-4.266-4.084-6.849-5.93-8.932c-22.163-25.005-40.588-52.789-59.034-80.476 c-23.985-36.001-48.642-71.444-76.102-104.919c-20.711-25.247-40.963-50.872-61.314-76.412 c-11.922-14.961-23.189-30.466-35.545-45.053c-23.005-27.159-49.142-51.671-68.775-81.687c-0.941-1.439-2.859-2.239-4.455-3.437 c-1.021,1.208-1.89,1.835-2.208,2.671c-7.269,19.119-14.764,38.159-21.647,57.417c-24.426,68.338-48.394,136.842-73.017,205.109 c-17.462,48.414-35.702,96.547-53.588,144.808c-0.744,2.008-1.419,4.042-2.216,6.323c1.775,0.306,2.729,0.651,3.665,0.606 c32.598-1.571,65.193-3.193,97.791-4.776c22.403-1.088,44.831-1.792,67.207-3.269c32.221-2.128,64.385-5.15,96.614-7.12 c21.052-1.287,42.188-1.135,63.266-2.076c29.36-1.311,58.645-0.811,87.975,1.161C583.674,849.07,598.802,848.168,615.987,848.124z M311.232,426.171c9.146,0.753,17.333,1.585,25.54,2.076c36.907,2.21,73.821,4.301,110.729,6.475 c46.129,2.718,92.228,6.262,138.394,7.929c29.312,1.059,58.869,1.021,88.056-1.514c42.123-3.658,84.177-7.865,126.455-9.323 c7.67-0.265,15.335-0.699,23.826-1.093c-2.048-3.93-3.365-6.959-5.106-9.72c-18.465-29.278-36.611-58.768-55.609-87.697 c-23.544-35.851-47.757-71.263-71.781-106.797c-20.681-30.589-41.474-61.102-62.277-91.608 c-6.864-10.067-13.842-20.058-20.903-29.988c-5.519-7.762-11.223-15.394-16.896-23.046c-1.634-2.204-3.446-4.277-5.401-6.687 C497.342,194.591,405.104,310.083,311.232,426.171z M325.435,444.227c0.884,1.695,1.401,3.193,2.324,4.374 c6.296,8.057,12.495,16.2,19.065,24.031c21.176,25.242,42.749,50.156,63.661,75.613c10.662,12.979,19.858,27.156,30.387,40.253 c20.245,25.184,41.718,49.411,61.302,75.088c25.381,33.276,49.415,67.578,74.024,101.442 c13.765,18.941,27.442,37.947,41.341,56.789c2.99,4.054,6.766,7.528,10.775,11.921c2.749-5.803,4.673-10.292,6.946-14.595 c16.031-30.352,32.202-60.629,48.189-91.004c10.134-19.254,20.293-38.503,29.969-57.989 c17.144-34.527,33.688-69.353,50.936-103.828c15.204-30.39,31.225-60.372,46.44-90.757c3.92-7.828,6.159-16.498,9.8-26.513 c-7.391,0.329-13.194,0.461-18.979,0.865c-37.459,2.62-74.987,4.56-112.348,8.2c-28.355,2.763-56.637,2.472-84.921,1.208 c-63.885-2.854-127.741-6.35-191.599-9.763C383.9,448.019,355.076,446.051,325.435,444.227z M1061.978,823.831 c-1.032-2.079-1.516-3.316-2.213-4.417c-20.263-32.033-40.403-64.145-60.871-96.047c-18.497-28.83-37.701-57.211-55.959-86.189 c-19.156-30.404-37.8-61.14-56.182-92.019c-8.768-14.728-16.477-30.09-24.543-45.231c-7.59-14.246-15.009-28.583-22.532-42.865 c-0.779-1.478-1.752-2.853-3.338-5.41c-11.56,32.502-27.953,61.087-42.835,90.406c-13.253,26.111-26.568,52.196-39.349,78.539 c-14.356,29.592-27.738,59.66-42.302,89.147c-12.497,25.303-26.014,50.104-39.17,75.08c-10.061,19.1-20.262,38.125-31.276,58.83 C782.465,836.14,921.958,836.439,1061.978,823.831z M621.65,867.249c-18.254-0.235-34.695-0.159-51.114-0.743 c-15.132-0.538-30.231-2.39-45.357-2.571c-19.789-0.237-39.591,0.777-59.389,0.919c-16.141,0.116-32.349-1.248-48.415-0.212 c-33.228,2.142-66.362,5.716-99.573,8.171c-20.379,1.507-40.829,2.049-61.249,2.994c-26.348,1.219-52.698,2.377-79.043,3.652 c-3.083,0.149-6.138,0.874-11.36,1.654c148.332,90.951,298.989,172.697,453.159,251.388c0.617-7.558,1.643-13.425,1.461-19.253 c-0.414-13.181-2.242-26.354-2.053-39.51c0.874-60.701,2.279-121.395,3.389-182.094C622.254,883.48,621.815,875.305,621.65,867.249 z M1070.909,322.789c-38.602,20.245-75.132,39.673-111.912,58.615c-36.988,19.05-74.225,37.615-111.677,56.557 c16.33,29.358,32.585,58.338,48.608,87.444c26.398,47.953,55.507,94.244,85.185,140.205c19.848,30.739,39.12,61.849,58.863,92.656 c10.323,16.108,21.066,31.949,31.733,47.834c1.54,2.293,3.722,4.154,5.606,6.215c1.063-5.869,0.341-11.025,0.281-16.189 c-0.541-46.511-1.367-93.024-1.27-139.535c0.055-26.375,2.044-52.74,2.508-79.121c0.592-33.646,0.306-67.307,0.792-100.956 C1080.36,425.698,1076.946,375.17,1070.909,322.789z M1061.147,309.049c-5.986-3.234-10.119-5.569-14.343-7.724 c-7.341-3.745-14.763-7.333-22.109-11.068c-17.632-8.963-35.208-18.038-52.868-26.944c-16.205-8.172-32.536-16.093-48.727-24.293 c-14.676-7.433-29.155-15.259-43.868-22.617c-25.635-12.821-51.439-25.301-77.065-38.139 c-22.92-11.482-45.683-23.276-68.536-34.893c-32.253-16.395-64.55-32.706-96.773-49.161c-8.947-4.569-17.699-9.52-26.54-14.296 c41.888,55.376,77.249,114.745,116.856,171.21c39.718,56.625,76.723,115.153,115.56,173.818 C914.936,386.63,987.028,348.377,1061.147,309.049z M636.652,1124.052c140.859-93.885,280.317-186.836,420.353-280.171 c-69.876,3.829-139.374,8.231-208.93,11.284c-69.977,3.071-140.013,4.801-210.449,7.133c0.105,11.433,0.447,22.278,0.251,33.112 c-0.335,18.465-0.998,36.924-1.541,55.385c-0.93,31.599-1.544,63.212-2.916,94.792 C632.301,1071.333,634.775,1096.839,636.652,1124.052z M293.08,425.061c7.377-8.828,13.622-16.053,19.591-23.501 c10.726-13.384,21.2-26.97,31.929-40.351c37.371-46.608,74.955-93.047,112.159-139.788c19.937-25.048,39.262-50.583,58.867-75.894 c12.113-15.639,24.277-31.237,36.31-46.938c2.224-2.902,3.926-6.205,5.869-9.323c-3.702,0.131-5.841,1.445-7.974,2.766 c-7.287,4.512-14.448,9.243-21.882,13.498c-18.884,10.808-38.028,21.166-56.81,32.145c-23.064,13.482-45.765,27.587-68.817,41.091 c-17.649,10.339-36.214,19.226-53.287,30.412c-34.401,22.54-70.031,43.251-102.304,69.033 c-16.441,13.134-34.853,23.833-51.029,37.254c-17.414,14.448-35.418,27.295-56.691,35.345c-3.659,1.385-8.079,2.623-10.07,7.367 C183.867,380.56,238.396,402.779,293.08,425.061z M144.801,852.688c0.652-1.207,1.216-1.995,1.532-2.873 c5.798-16.105,11.527-32.235,17.349-48.331c16.661-46.066,33.625-92.024,49.953-138.207 c12.726-35.996,24.461-72.342,37.055-108.386c7.584-21.705,15.982-43.125,23.987-64.683c5.388-14.51,10.703-29.048,16.107-43.553 c1.167-3.133,1.369-5.857-2.245-7.421c-12.67-5.484-25.283-11.109-38.06-16.335c-10.293-4.21-20.906-7.642-31.176-11.905 c-29.795-12.366-59.481-24.995-89.236-37.457c-2.346-0.983-4.898-1.475-8.317-2.478 C123.159,532.304,127.144,692.568,144.801,852.688z"/>
    <path fill="#261123" d="M392.054,598.334c-11.047-12.745-22.095-25.49-33.142-38.235c-0.215,0.176-0.43,0.351-0.644,0.527 c5.452,11.056,10.904,22.113,16.357,33.169c-25.935-18.259-37.409-46.919-54.689-74.006c4.433,21.934,8.416,41.643,12.833,63.494 c-9.098-6.748-12.711-14.447-16.324-23.625c-2.499,15.974,4.983,30.86-0.262,46.636c-13.941-5.253-10.885-17.832-15.258-28.492 c-0.913,3.893-1.557,6.357-2.057,8.851c-0.515,2.571-0.958,5.162-1.313,7.76c-1.072,7.842-2.061,15.696-3.143,23.537 c-0.269,1.952-0.325,4.144-1.294,5.727c-0.876,1.43-3.015,3.156-4.323,2.956c-1.34-0.205-3.06-2.462-3.342-4.047 c-0.51-2.864-0.315-5.923,0.01-8.853c1.523-13.749,3.195-27.482,4.801-41.222c0.263-2.252,0.46-4.512-0.57-7.11 c-4.994,15.008-10.051,29.996-14.955,45.034c-2.451,7.518-4.41,15.201-6.997,22.669c-1.574,4.542-3.923,8.816-5.729,12.784 c-6.985-0.556-7.463-4.558-6.768-8.68c0.928-5.509,2.084-11.038,3.799-16.346c12.554-38.87,25.276-77.686,37.935-116.522 c1.738-5.332,3.331-10.714,5.161-16.014c0.854-2.474,1.808-5.011,3.248-7.165c3.713-5.553,7.568-5.757,11.435-0.232 c6.242,8.918,12.029,18.153,18.03,27.239c18.179,27.523,36.372,55.036,54.549,82.56c1.401,2.121,2.715,4.299,4.069,6.45 C392.998,597.562,392.526,597.948,392.054,598.334z"/>
    <path fill="#261123" d="M354.685,799.931c0.513,6.413-1.915,9.424-7.143,9.536c-16.973,0.366-33.792-0.832-48.564-10.246 c-5.152-3.283-9.703-7.953-13.514-12.789c-5.192-6.589-3.633-19.538,2.545-27.698c12.563-16.59,29.419-25.214,50.102-25.72 c14.805-0.362,29.633,0.186,44.45,0.333c1.238,0.012,2.476,0.064,5.075,0.135c-10.282-11.351-19.775-21.818-29.25-32.301 c-2.873-3.179-5.568-6.529-8.57-9.579c-6.11-6.208-7.216-12.963-2.748-20.815c8.261-1.216,15.142,0.702,20.945,7.271 c11.931,13.505,24.204,26.71,36.402,39.977c5.272,5.735,10.844,11.198,16.023,17.013c3.413,3.832,7.031,7.449,5.853,13.727 c-1.606,8.563-7.476,12.907-15.317,9.541c-22.913-9.835-47.05-8.983-71.055-8.047c-13.263,0.517-24.693,6.693-34.142,16.149 c-5.897,5.901-6.145,8.086-0.32,13.977c2.923,2.955,6.493,5.786,10.315,7.231c8.907,3.367,18.142,5.864,27.248,8.705 C347.016,797.575,351.019,798.799,354.685,799.931z"/>
    <path fill="#261123" d="M461.177,827.714c3.696-8.11,9.394-4.408,13.762-4.806c4.784-0.435,9.675,0.302,14.598-0.105 c-9.771-6.384-22.575-4.218-31.764-12.102c28.981-0.023,56.291,10.982,85.05,11.946c-22.5-9.492-47.059-14.139-67.463-29.982 c4.408-4.317,8.267-2.284,11.728-1.272c8.55,2.503,16.962,5.473,25.482,8.085c2.985,0.915,6.122,1.334,9.513,1.236 c-15.844-15.025-35.717-25.768-44.542-47.158c10.363,3.696,16.638,12.748,25.053,18.938c8.733,6.424,17.06,13.399,26.008,19.696 c-12.635-17.494-31.385-29.851-40.857-50.087c8.765,6.813,17.529,13.627,27.865,21.662c-13.542-25.011-35.025-42.181-47.061-66.755 c7.722,2.525,9.321,4.008,17.697,12.058c17.911,17.212,32.814,36.86,47.354,56.874c13.177,18.138,26.793,35.957,40.225,53.909 c0.988,1.321,2.376,2.445,3.007,3.907c1.106,2.56,3.226,6.076,2.31,7.825c-1.878,3.588-4.961,6.961-10.109,6.515 c-5.587-0.484-11.322-0.029-16.782-1.078c-19.562-3.758-39.377-3.261-59.11-4.276c-7.237-0.372-14.453-1.375-21.64-2.369 C468.361,829.941,465.315,828.807,461.177,827.714z"/>
    <path fill="#261123" d="M226.248,823.343c6.976-1.334,13.951-2.669,20.926-4.003c0.256,0.615,0.512,1.231,0.768,1.846 c-5.057,2.479-10.114,4.958-17.356,8.508c4.439,0.575,6.701,1.168,8.944,1.101c6.265-0.187,12.521-0.917,18.782-0.929 c7.019-0.013,14.222-1.657,20.739,3.35c1.887,1.45,5.758,0.314,8.719,0.37c13.732,0.261,27.464,0.525,41.196,0.787 c0.05,0.772,0.1,1.545,0.15,2.317c-11.505,1.603-22.968,3.668-34.523,4.719c-29.562,2.691-59.179,4.785-88.744,7.444 c-8.343,0.75-16.584,2.627-26.604,4.271c-0.776-0.419-3.31-1.788-5.741-3.101c-0.73-17.242,32.907-84.265,49.706-97.798 c0.025,5.535,0.045,10.077,0.068,15.185c1.559-0.968,2.982-1.852,4.856-3.016c1.179,19.155-11.649,32.642-18.986,50.286 c9.869-9.648,18.461-18.046,27.052-26.445c0.581,0.369,1.163,0.738,1.744,1.107C233.759,800.341,233.298,812.626,226.248,823.343z"/>
    <path fill="#261123" d="M598.98,416.116c42.899-6.141,85.815-7.772,129.091-10.531c-1.467-0.681-2.887-1.503-4.412-2.006 c-1.876-0.618-3.817-1.142-5.77-1.403c-7.523-1.006-15.063-1.884-22.594-2.828c-2.944-0.369-6.058-0.322-8.759-1.348 c-1.731-0.658-3.322-2.757-3.985-4.572c-0.234-0.642,2.292-3.021,3.869-3.441c3.156-0.841,6.563-1.39,9.8-1.153 c11.82,0.865,23.616,2.07,35.413,3.224c2.801,0.274,5.572,0.844,8.566,0.723c-15.793-12.192-30.988-24.547-39.95-44.693 c18.469,12.834,35.613,24.748,52.758,36.662c0.481-0.478,0.962-0.957,1.443-1.435c-10.592-15.238-21.183-30.477-31.775-45.715 c0.49-0.452,0.98-0.905,1.47-1.357c3.402,2.13,6.804,4.26,11.381,7.125c-5.85-22.657-19.557-41.11-23.972-62.987 c5.31-1.542,6.024,2.097,7.388,4.413c11.05,18.773,21.742,37.762,33.047,56.38c9.762,16.077,20.246,31.715,30.275,47.632 c2.989,4.743,5.864,9.617,8.191,14.705c3.955,8.652-0.58,14.363-9.746,16.67c-11.299,2.844-22.071,0.631-33.166,0.182 c-22.07-0.892-44.196-0.751-66.293-0.494c-24.412,0.284-48.817,1.174-73.225,1.805C604.447,421.768,600.585,422.478,598.98,416.116 z"/>
    <path fill="#261123" d="M657.601,275.42c-1.611,1.646-2.787,3.344-4.388,4.389c-4.674,3.049-4.763,6.939-3.571,11.949 c3.731,15.68,7.135,31.443,10.399,47.229c2.562,12.393,1.026,14.605-11.529,18.199c-6.474-4.273-6.905-11.609-8.175-18.181 c-3.056-15.819-5.478-31.761-8.211-47.644c-0.16-0.929-0.807-1.774-1.703-3.66c-10.352,0.573-21.088,1.005-31.795,1.817 c-6.851,0.519-13.641,1.871-20.493,2.33c-4.629,0.31-9.578-0.158-11.936-5.102c-2.437-5.109-0.337-9.524,3.076-13.546 c8.519-10.039,17.198-19.955,25.378-30.265c5.92-7.461,11.133-15.482,16.685-23.235c3.612-5.045,7.021-10.327,13.463-12.645 c5.362,2.295,6.641,7.246,7.95,11.911c3.469,12.361,6.675,24.796,9.952,37.21c0.75,2.843,1.363,5.722,2.135,8.989 C651.047,265.694,655.439,268.615,657.601,275.42z M588.353,272.022c14.765-1.61,26.942-2.938,39.863-4.347 c-2.213-12.936-4.197-24.534-6.565-38.376C610.174,244.024,600.009,257.067,588.353,272.022z"/>
    <path fill="#261123" d="M505.766,370.962c-6.608-4.805-5.601-11.764-4.571-18.06c1.051-6.428,3.27-12.754,5.654-18.861 c10.729-27.487,16.509-56.26,22.463-84.993c0.317-1.529-0.074-3.203-0.205-6.617c-7.374,4.798-13.781,9.031-20.258,13.154 c-3.329,2.119-6.606,4.525-10.252,5.858c-2.029,0.742-6.337,0.241-6.851-0.923c-1.004-2.272-0.546-5.549,0.243-8.123 c0.501-1.635,2.566-2.919,4.14-4.075c11.689-8.584,23.397-17.144,35.176-25.605c3.507-2.519,7.659-5.368,11.721-2.339 c3.848,2.87,7.233,6.625,6.277,12.539c-2.727,16.87-4.141,34.022-7.95,50.632c-5.886,25.664-13.11,51.032-20.258,76.387 C519.087,367.049,513.142,370.513,505.766,370.962z"/>
    <path fill="#261123" d="M524.69,185.417c0.77-12.105,6.793-19.061,11.656-26.3c11.402-16.972,23.494-33.481,35.049-50.353 c2.153-3.143,2.997-7.159,4.656-10.672c0.901-1.908,2.095-4.941,3.428-5.093c2.148-0.245,5.389,0.809,6.656,2.469 c7.987,10.464,16.051,20.93,23.15,31.997c11.04,17.211,21.779,34.653,31.75,52.496c5.022,8.988,8.077,19.075,12.021,28.665 c-0.65,0.352-1.301,0.704-1.951,1.055c-19.86-24.845-39.721-49.691-60.695-75.931c-1.459,8.923-2.729,16.684-4.169,25.495 c-1.714-2.763-3.137-5.057-4.642-7.483c-2.997,2.183-5.65,4.115-10.085,7.344c-0.947-7.25-1.64-12.551-2.493-19.079 c-1.899,2.603-3.408,4.786-5.035,6.877c-2.572,3.306-4.407,7.275-9.667,7.626c-1.745,0.116-3.549,2.533-4.94,4.217 c-4.841,5.858-9.331,12.014-14.324,17.734C532.53,179.376,529.21,181.578,524.69,185.417z"/>
    <path fill="#261123" d="M426.47,327.853c-9.915,13.004-19.831,26.008-29.888,39.198c4.557,0.145,10.441-9.694,15.611,1.416 c-5.506,4.777-11.08,9.613-17.452,15.14c12.321-0.364,23.543-7.547,36.436-2.743c-2.109,3.166-3.438,5.162-5.467,8.207 c6.957-0.48,12.721-0.877,18.486-1.275c-21.062,11.218-41.283,24.199-65.625,26.976c-6.952,0.793-8.31,0.266-16.238-5.127 c-3.17,0.864-6.311,2.207-9.523,2.409c-1.907,0.12-4.705-1.058-5.675-2.568c-0.955-1.487-0.904-4.655,0.094-6.172 c3.252-4.942,6.826-9.754,10.837-14.097c14.085-15.251,27.981-30.719,42.819-45.215c7.09-6.927,16.134-11.854,24.294-17.686 C425.61,326.829,426.04,327.341,426.47,327.853z"/>
    <path fill="#261123" d="M582.397,740.958c4.974-3.055,7.988-0.555,10.494,3.228c4.137,6.245,8.217,12.529,14.232,18.733 c0.956-6.569,1.912-13.138,2.867-19.706c0.605-0.103,1.211-0.206,1.816-0.309c3.498,11.218,6.996,22.437,10.686,34.27 c6.306-6.695,6.864-15.291,10.052-22.652c4.45-10.275,8.048-20.923,12.64-31.128c1.384-3.075,5.569-4.813,7.261-7.84 c10.634-19.022,21.069-38.159,31.24-57.432c2.847-5.395,4.582-11.377,6.827-17.089c-0.623-0.296-1.246-0.593-1.87-0.889 c-2.501,4.078-5.002,8.155-7.503,12.233c-0.361-0.143-0.723-0.285-1.084-0.428c4.271-10.466,7.611-21.441,13-31.296 c12.487-22.835,25.926-45.149,39.075-67.619c2.33-3.982,5.612-7.458,7.596-11.58c3.247-6.749,5.788-13.837,9.263-22.336 c-4.154,2.426-6.823,4.215-9.685,5.606c-5.157,2.507-9.749,2.081-11.771-1.056c-2.583-4.009,0.282-7.082,2.48-9.752 c5.841-7.094,12.044-13.89,19.83-22.774c-10.535,3.072-19.015,5.648-27.557,7.996c-5.075,1.395-10.21,2.664-15.394,3.541 c-3.067,0.518-6.572-0.356-6.557-4.089c0.008-1.972,2.131-4.822,4.035-5.729c5.327-2.538,11.038-4.271,16.653-7.456 c-1.936-0.157-3.91-0.642-5.8-0.417c-11.462,1.368-22.908,2.876-34.351,4.399c-1.629,0.217-3.356,1.359-4.786,1.018 c-2.305-0.55-4.898-1.553-6.339-3.243c-0.577-0.677,1.062-4.548,2.591-5.463c4.195-2.512,8.691-5.279,13.382-6.066 c14.942-2.507,29.978-5.144,45.07-5.902c20.579-1.035,40.477-5.599,60.595-9.14c2.509-0.442,5.007-0.944,7.796-1.472 c1.704,5.773,1.953,10.208-1.007,15.426c-24.91,43.921-49.63,87.952-74.025,132.162c-11.485,20.814-22.682,41.826-33.021,63.225 c-13.487,27.917-26.041,56.288-38.901,84.507c-5.599,12.285-11.138,24.603-16.333,37.062c-1.758,4.216-2.323,8.921-3.524,13.379 c-1.159,4.299-3.113,7.975-8.82,9.558c-2.096-1.942-4.721-3.89-6.727-6.345c-3.118-3.817-6.45-7.668-8.586-12.044 c-12.168-24.925-31.113-44.847-48.136-66.207c-10.276-12.894-20.141-26.115-30.223-39.165 c-19.76-25.577-39.715-51.006-59.255-76.751c-12.759-16.811-24.943-34.058-37.326-51.153c-0.696-0.961-0.855-2.31-1.359-3.75 c4.375-3.359,7.086-0.708,9.29,2.076c5.933,7.492,11.549,15.235,17.424,22.775c5.471,7.021,11.201,13.84,16.66,20.869 c10.322,13.291,20.503,26.692,30.801,40.002c4.441,5.741,9.024,11.372,13.544,17.052c17.869,22.454,35.745,44.903,53.6,67.368 C576.328,733.03,579.306,736.966,582.397,740.958z"/>
    <path fill="#261123" d="M526.999,648.582c-9.777-1.392-13.674-4.866-15.237-13.706c-2.151-12.164-2.032-24.418,0.646-36.396 c1.339-5.986,3.916-12.035,7.292-17.16c8.702-13.21,23.471-15.263,35.721-5.054c4.188,3.49,8.113,8.014,10.448,12.885 c10.128,21.132,17.883,43.196,24.036,65.815c0.58,2.132,1.288,4.228,3.825,6.592c5.445-14.685,10.915-29.36,16.313-44.062 c0.905-2.466,1.298-5.128,2.279-7.556c4.649-11.503,8.229-13.059,20.859-8.994c1.941,5.037,0.783,10.289-0.897,15.159 c-4.937,14.308-9.981,28.6-15.659,42.624c-4.811,11.883-10.419,23.455-16.002,35.007c-1.374,2.844-3.835,5.259-6.117,7.55 c-5.668,5.689-9.692,5.691-15.754,0.327c-1.468-1.299-2.918-2.62-3.004-2.697c-1.749-12.986-1.693-24.895-5.154-35.673 c-7.027-21.885-15.857-43.197-24.208-64.643c-1.25-3.209-3.93-5.861-6-8.846c-7.358,2.608-9.086,8.741-9.663,14.314 c-0.805,7.778-0.856,15.924,0.596,23.565C532.782,635.331,532.258,641.873,526.999,648.582z"/>
    <path fill="#261123" d="M596.448,574.384c-8.94-5.425-22.272-14.336-29.208-30.078c-8.656-19.644-7.933-39.146,9.969-52.425 c10.826-8.031,23.595-9.157,35.998-6.631c11.141,2.269,22.195,6.317,32.39,11.386c6.458,3.21,11.975,9.158,16.63,14.916 c4.928,6.096,8.877,13.162,12.282,20.27c5.555,11.596,6.271,23.726-0.501,35.079c-2.575,4.317-6.554,8.835-10.987,10.827 C642.612,586.896,621.873,589.128,596.448,574.384z M641.197,511.727c-11.242-6.287-28.857-8.527-41.135-5.231 c-8.899,2.389-16.645,10.934-15.356,18.021c1.792,9.852,5.613,19.101,13.07,26.073c12.056,11.271,26.547,16.982,43.101,15.834 c5.75-0.399,11.574-2.365,16.962-4.588c5.326-2.197,8.372-7.114,6.978-12.838c-1.526-6.268-3.702-12.633-6.945-18.165 C653.594,523.535,649.157,515.983,641.197,511.727z"/>
    <path fill="#261123" d="M428.034,482.633c7.539,2.905,15.078,5.809,24.878,9.585c-10.727,0.073-19.457,0.133-28.912,0.197 c2.589,2.474,4.806,4.594,8.243,7.879c-7.52,0.219-13.164-1.741-18.724-3.677c-5.432-1.892-10.704-4.246-17.606-7.025 c21.157,19.659,40.903,38.005,61.988,57.597c-5.709-2.168-10.063-3.55-14.19-5.432c-28.677-13.076-50.965-34.787-74.213-55.182 c-4.452-3.905-8.732-8.022-12.891-12.239c-2.211-2.242-3.994-4.908-6.433-7.963c6.721-3.808,13.105-3.056,18.958-2.829 c20.373,0.79,40.708,2.519,61.074,3.545c37.222,1.875,74.461,3.395,111.682,5.299c11.07,0.566,22.099,1.921,33.126,3.791 c-48.449,11.477-97.376,6.556-146.252,3.243C428.518,480.494,428.276,481.563,428.034,482.633z"/>
    <path fill="#261123" d="M720.977,756.016c1.988-1.36,3.976-2.72,5.964-4.08c0.43,0.256,0.86,0.512,1.29,0.768 c-3.392,7.85-6.784,15.7-10.177,23.55c0.32,0.155,0.64,0.31,0.96,0.465c8.872-8.486,17.745-16.972,26.617-25.458 c0.397,4.99-2.401,8.381-4.412,12.121c-2.036,3.786-4.964,6.734-2.57,12.359c1.285,3.018-2.289,8.5-4.436,12.455 c-1.678,3.091-4.535,5.543-6.827,8.23c4.735,6.114,4.585,9.002-1.581,12.213c-15.21,7.917-30.491,15.727-46.041,22.942 c-4.905,2.276-10.75,2.527-16.805,3.844c-0.182-1.278-1.193-3.408-0.539-4.689c2.387-4.679,4.717-9.625,8.173-13.479 c12.749-14.219,21.135-31.053,29.529-47.874c14.578-29.215,28.891-58.561,43.295-87.863c2.177-4.428,4.153-8.956,6.372-13.362 c9.923-19.703,19.613-39.532,29.965-59.007c6.335-11.917,14.855-22.763,20.396-34.994c12.097-26.703,22.928-53.979,34.251-81.033 c2.013-4.809,4.31-9.319,10.529-12.443c-0.598,4.332-1.021,7.399-1.135,8.22c3.474,5.564,6.078,9.454,8.394,13.508 c3.587,6.28,7.132,12.594,10.425,19.031c11.565,22.608,22.974,45.296,34.527,67.91c5.853,11.457,11.9,22.814,17.832,34.23 c1.052,2.025,1.97,4.121,2.339,6.573c-15.043-17.196-24.937-37.932-38.21-56.33c-7.122,5.14-7.122,5.14-15.602-4.348 c0.158,3.717,0.157,6.466,0.425,9.189c0.255,2.597,0.791,5.167,0.243,8.349c-1.455-2.201-2.91-4.402-4.091-6.187 c-2.638,0.614-5.266,2.043-7.42,1.52c-2.693-0.654-5.128-2.744-7.423-4.535c-1.762-1.375-2.97-3.471-4.753-4.807 c-0.894-0.67-2.521-0.361-4.475-0.563c-1.603,2.967-3.238,5.995-4.988,9.234c-5-1.777-5.452-5.2-4.779-8.966 c0.871-4.869,2.09-9.675,3.002-14.538c0.514-2.739,0.712-5.537-0.64-8.663c-3.308,9.488-6.406,19.057-9.993,28.438 c-2.676,6.997-2.958,6.889-10.82,5.565c-2.364,4.376-4.988,8.575-6.932,13.069c-1.262,2.917-2.452,4.97-5.882,5.829 c-1.78,0.445-3.531,2.636-4.492,4.462c-8.298,15.76-16.769,31.447-24.419,47.521c-3.366,7.073-4.18,15.354-7.491,22.462 c-9.581,20.566-19.795,40.838-29.865,61.174c-2.776,5.606-5.919,11.029-8.894,16.536 C720.202,755.047,720.59,755.531,720.977,756.016z M853.611,563.241c-0.649,0.178-1.297,0.355-1.946,0.532 c0.518,1.889,1.035,3.779,1.553,5.668c0.453-0.117,0.906-0.235,1.36-0.352C854.256,567.14,853.934,565.191,853.611,563.241z"/>
    <path fill="#261123" d="M895.212,684.858c16.802-4.781,30.153-1.146,40.675,11.953c5.428,6.758,7.68,14.611,7.822,22.951 c0.098,5.772,2.002,11.588-1.107,17.448c-6.085,11.469-15.047,18.092-28.143,18.712c-12.885,0.61-22.034-5.431-28.455-16.203 c-0.806-1.352-1.514-2.763-2.571-4.703c-4.157,2.815-8.028,5.23-11.679,7.944c-13.57,10.086-28.89,13.624-45.596,13.379 c-16.592-0.243-27.74-9.088-34.124-22.883c-10.336-22.333-11.559-45.578,1.973-67.174c11.409-18.21,27.124-31.139,50.19-31.665 c13.378-0.305,24.334,4.677,33.245,14.611C886.45,659.27,892.231,670.911,895.212,684.858z M856.127,655.704 c-5.486-3.104-10.99-4.485-17.207-2.791c-27.341,7.448-45.188,39.042-35.797,65.611c6.887,19.485,19.002,25.626,36.63,20.573 c13.213-3.788,24.657-10.565,34.139-20.728c3.674-3.939,5.081-8.379,5.139-13.392c0.057-4.921-0.029-9.888-0.62-14.765 C876.58,675.113,867.686,664.507,856.127,655.704z M918.76,698.487c-11.519-5.26-19.032-1.684-21.555,10.492 c-0.663,3.198-1.696,6.317-2.437,9.501c-1.88,8.084,0.955,15.013,8.169,19.454c6.168,3.797,11.856,2.552,17.116-2.087 c1.467-1.293,3.26-2.21,4.787-3.444c8.1-6.548,9.618-13.232,4.096-22.208C926.262,705.851,922.196,702.363,918.76,698.487z"/>
    <path fill="#261123" d="M988.576,754.159c1.503,0.253,2.741,0.462,4.693,0.792c-4.396-8.256-8.568-16.09-13.29-24.957 c5.842,2.424,10.087,4.091,14.235,5.969c1.137,0.515,2.146,1.538,2.945,2.542c12.122,15.224,24.238,30.454,36.26,45.757 c2.903,3.696,5.161,7.518,2.816,12.73c-0.713,1.584,0.728,4.224,1.379,6.319c2.496,8.028-0.501,11.762-9.045,11.17 c-1.963-0.136-4.133-0.882-5.859-0.305c-23.256,7.781-47.216,1.802-70.762,3.747c-14.441,1.193-28.932,1.837-43.41,2.515 c-8.886,0.416-17.791,0.552-26.687,0.534c-2.132-0.004-4.262-1.121-8.578-2.347c3.63-1.397,5.155-2.317,6.78-2.56 c30.674-4.6,61.415-8.632,92.398-10.515c6.258-0.38,12.521-0.739,18.787-0.904c3.492-0.092,6.771,0.731,10.242,1.681 c6.035,1.653,12.794,0.66,21.867,0.823C1008.08,790.014,995.055,774.431,988.576,754.159z"/>
    <path fill="#261123" d="M549.956,1073.042c-2.554-4.568-4.624-8.269-6.694-11.97c10.753,1.197,16.648,9.659,25.867,12.862 c2.114-4.792-1.777-7.928-3.02-11.7c-1.324-4.019-2.471-8.096-4.164-13.699c6.796,3.135,12.369,5.706,18.635,8.597 c-0.026-4.326-0.048-8.149-0.082-13.982c2.595,4.032,4.283,6.654,6.666,10.357c2.54-21.521-1.353-41.927,3.836-63.851 c2.155,3.986,3.292,6.091,5.369,9.933c2.76-15.074,5.235-28.587,7.709-42.1c4.768,6.25,5.733,12.863,5.559,19.636 c-0.701,27.382-1.642,54.758-2.232,82.143c-0.234,10.877,0.231,21.769,0.344,32.655c0.034,3.298,0.165,6.615-0.111,9.894 c-0.668,7.936-4.744,10.357-11.889,6.631c-16.986-8.857-34.079-17.561-50.631-27.182c-12.805-7.443-24.889-16.133-37.208-24.397 c-1.825-1.224-3.176-3.154-5.983-6.02C520.397,1054.916,533.707,1066.069,549.956,1073.042z"/>
    <path fill="#261123" d="M348.096,888.05c-19.572,7.721-40.162,4.13-60.575,6.778c2.112,0.436,4.214,0.925,6.338,1.294 c2.19,0.381,4.4,0.645,6.582,2.076c-13.488,0.135-26.975,0.269-40.463,0.404c-0.072,0.708-0.144,1.416-0.216,2.125 c12.982,3.159,23.985,11.838,37.977,12.477c2.567,0.117,5.001,3.162,7.062,5.9c-14.875,6.805-26.037-4.004-38.71-7.032 c15.663,8.461,31.402,16.962,48.175,26.022c-3.293,1.54-5.99,2.801-9.352,4.373c11.107,6.79,21.455,13.915,32.669,21.639 c-6.43,3.676-10.914,1.937-14.893-0.065c-16.488-8.295-33.092-16.426-49.115-25.562c-16.908-9.64-33.279-20.236-49.734-30.652 c-7.696-4.872-15.742-9.659-18.174-19.94c4.708-3.707,10.475-3.424,15.913-3.498c13.52-0.183,27.055-0.198,40.566,0.252 C290.802,885.598,319.446,886.893,348.096,888.05z"/>
    <path fill="#261123" d="M501.879,916.311c9.539,4.419,12.648,13.654,16.087,22.523c6.79,17.512,13.362,35.108,20.077,52.648 c0.568,1.483,1.538,2.811,2.947,5.33c2.423-3.112,4.364-5.525,6.211-8.007c1.182-1.588,2.034-3.458,3.372-4.885 c2.523-2.692,5.487-5.454,9.385-3c3.468,2.183,4.413,5.921,2.424,9.537c-4.921,8.948-9.664,18.063-15.447,26.444 c-4.17,6.043-8.763,6.044-14.171,0.922c-3.792-3.591-7.593-7.57-10.054-12.102c-11.962-22.03-24.096-44.018-31.569-68.14 C487.522,925.904,489.685,921.561,501.879,916.311z"/>
    <path fill="#261123" d="M466.615,1010.109c6.041-5.442,10.018-9.413,14.418-12.838c2.486-1.935,5.8-4.143,8.788-0.823 c2.585,2.872,1.834,6.228-0.369,9.068c-6.117,7.885-13.201,14.756-22.067,19.509c-3.403,1.824-7.034,2.4-9.664-1.467 c-3.283-4.828-7.69-9.349-9.403-14.709c-6.816-21.319-12.689-42.938-19.083-64.394c-2.996-10.055,1.676-16.106,10.49-20.535 c8.48,2.91,10.271,11.105,11.972,18.616c3.554,15.699,6.097,31.624,9.356,47.393 C462.356,996.232,464.454,1002.371,466.615,1010.109z"/>
    <path fill="#261123" d="M998.347,649.406c14.516,14.463,21.792,33.679,32.621,50.89c-3.855-16.413-11.632-31.966-11.348-51.086 c5.303,8.869,9.761,16.325,15.249,25.504c-1.091-11.679-2.012-21.541-2.933-31.404c12.727,13.512,15.366,31.494,22.612,48.692 c0.66-2.153,1.142-3.002,1.15-3.855c0.284-31.323,0.537-62.645,0.755-93.968c0.031-4.389-0.852-9.274,5.791-8.009 c0.565-4.464,1.026-8.108,1.668-13.183c5.409,4.682,5.139,9.489,5.252,13.808c0.838,31.972,1.519,63.949,2.108,95.927 c0.285,15.494,0.357,30.994,0.347,46.491c-0.005,8.525,0.5,17.089-3.503,25.2c-1.213,2.457-0.484,5.847-0.757,8.799 c-0.443,4.789-0.978,9.569-1.458,14.199c-4.617,0.707-6.108-1.518-6.09-4.313c0.041-6.422-3.546-10.766-7.047-15.675 c-15.535-21.779-29.156-44.725-40.105-69.193c-4.309-9.631-8.769-19.194-13.044-28.84c-1.289-2.908-2.185-5.99-3.261-8.992 C997.018,650.066,997.683,649.736,998.347,649.406z"/>
    <path fill="#261123" d="M1062.832,510.111c-40.192-15.571-55.215-15.037-75.979,3.256c3.086,0.687,5.442,1.407,7.852,1.713 c8.37,1.061,15.683,4.177,22.481,9.358c17.487,13.328,12.917,44.176-6.57,52.936c-25.852,11.622-44.47-5.525-51.72-23.21 c-7.366-17.966-1.607-34.162,10.217-47.754c15.164-17.431,34.475-26.022,58.253-22.162c10.804,1.753,21.554,3.386,30.81,9.812 C1064.984,498.786,1066.104,502.408,1062.832,510.111z M972.688,538.22c-1.364,13.687,4.806,22.799,14.155,30.327 c1.159,0.933,2.963,1.328,4.514,1.469c7.7,0.698,17.349-6.727,17.884-13.621c0.746-9.603-6.034-21.327-15.156-20.416 C987.023,536.685,979.967,537.455,972.688,538.22z"/>
    <path fill="#261123" d="M908.125,529.541c-4.865-7.642-10.155-15.19-14.653-23.185c-7.924-14.082-15.379-28.428-22.997-42.682 c-2.523-4.721-3.33-8.205,0.216-14.114c3.824-6.374,8.427-9.655,14.447-12.051c14.953-5.95,30.022-11.608,45.487-16.827 c-7.603,9.881-12.718,21.863-25.235,26.608c2.59,2.768,4.737,5.065,6.885,7.361c-2.691,2.164-5.381,4.327-9.061,7.286 c0.744,1.398,1.973,3.708,2.991,5.621c-3.924,6.251-9.083,5.497-15.67,4.196c23.309,35.961,45.433,71.224,64.203,108.467 c-15.756-14.922-25.558-34.001-37.286-52.314C914.819,528.37,912.016,528.86,908.125,529.541z"/>
    <path fill="#261123" d="M927.681,487.076c0.748-6.394,4.982-10.497,9.558-14.396c16.295-13.884,33.337-26.708,52.247-36.888 c1.441-0.776,2.898-1.537,4.261-2.437c0.488-0.323,0.719-1.035,1.66-2.478c-3.409-1.161-6.685-2.067-9.788-3.381 c-4.826-2.044-9.774-3.976-14.209-6.704c-3.066-1.886-5.65-5.248-3.761-9.229c1.911-4.029,5.756-3.776,9.483-2.704 c9.483,2.729,18.942,5.546,28.452,8.179c4.121,1.141,8.579,1.367,12.446,3.028c3.064,1.316,7.071,3.773,7.764,6.468 c0.98,3.815-1.193,7.633-5.167,10.482c-21.61,15.494-42.963,31.348-64.396,47.09c-2.655,1.95-5.217,4.029-7.899,5.94 C939.387,496.422,935.544,495.858,927.681,487.076z"/>
    <path fill="#261123" d="M1046.619,371.947c-1.778,4.035-2.914,6.986-4.362,9.775c-1.051,2.026-2.19,4.243-3.899,5.615 c-1.301,1.045-3.982,1.714-5.273,1.047c-1.263-0.652-2.313-3.318-2.084-4.902c0.409-2.828,1.849-5.507,3.29-9.42 c-2.92,0.474-4.933,0.8-7.12,1.155c0.04-1.78,0.079-3.529,0.138-6.198c-5.769,4.283-10.735,8.081-15.821,11.711 c-3.992,2.849-4.058,2.757-10.225-0.639c3.618-3.992,6.561-8.444,10.584-11.447c11.347-8.468,22.982-16.577,34.816-24.352 c6.277-4.124,6.571-3.059,11.843,2.854c4.214,4.726,4.805,9.27,4.128,15.139c-0.632,5.479-0.048,11.171,0.59,16.702 c0.605,5.246,2.299,10.276-3.469,14.121c-1.536,1.024-1.222,4.529-2.627,6.131c-1.31,1.494-3.974,2.952-5.678,2.611 c-1.577-0.316-3.687-2.983-3.776-4.707c-0.201-3.885,0.579-7.846,1.191-11.741C1049.521,381.218,1050.193,377.112,1046.619,371.947 z"/>
    <path fill="#261123" d="M861.499,240.796c4.901,7.28,8.867,14.122,13.784,20.195c4.535,5.602,5.443,10.837,0.867,18.038 c-4.589-1.171-9.621-2.182-14.472-3.752c-9.3-3.01-18.517-4.874-27.883-0.388c-8.04,3.851-11.212,11.279-8.279,19.677 c2.742,7.853,7.562,14.269,15.569,16.817c10.914,3.474,22.135,5.988,33.248,8.821c1.573,0.401,3.302,0.146,4.918,0.429 c7.167,1.259,9.214,4.667,7.169,11.766c-0.539,1.87-1.082,3.738-1.984,6.848c-6.393-0.627-12.841-1.009-19.211-1.935 c-13.833-2.011-26.916-6.586-39.023-13.448c-20.222-11.461-25.326-36.348-11.772-55.401c5.741-8.07,13.67-12.14,23.448-12.759 c3.5-0.222,7.009-0.285,11.367-0.454c-6.573-7.729-12.422-14.381-18.009-21.245c-4.968-6.103-5.614-10.875-2.507-14.88 c3.861-4.978,8.939-6.366,15.756-3.802c13.235,4.979,26.411,10.116,39.575,15.281c10.413,4.086,20.797,8.249,31.139,12.509 c3.04,1.252,5.985,2.8,8.818,4.475c7.691,4.548,7.76,4.875,5.341,14.739c-10.206,0.896-19.046-3.936-28.187-7.337 c-11.718-4.36-23.32-9.032-34.998-13.5C865.029,241.054,863.698,241.106,861.499,240.796z"/>
    <path fill="#261123" d="M658.997,116.773c5.131,1.55,10.839,2.775,16.147,4.966c21.73,8.968,41.275,21.918,60.893,34.599 c9.826,6.351,18.75,14.097,27.383,22.684c-2.491-0.646-4.982-1.292-7.546-1.957c0.071,1.417,0.13,2.58,0.222,4.404 c-15.713,1.104-27.067-9.212-41.006-13.858c13.422,15.022,26.845,30.045,40.267,45.067c-0.323,0.467-0.646,0.933-0.969,1.4 c-9.259-6.003-18.518-12.005-27.778-18.008c-0.419,0.328-0.839,0.657-1.259,0.985c2.409,4.273,4.819,8.547,7.228,12.821 c-0.415,0.401-0.831,0.802-1.246,1.203c-5.671-5.452-11.751-10.543-16.931-16.427c-13.072-14.845-25.698-30.082-38.589-45.087 c-4.937-5.745-9.806-11.606-15.266-16.827C655.738,128.142,654.749,123.603,658.997,116.773z"/>
    <path fill="#261123" d="M817.778,357.028c-0.622-3.458-1.244-6.917-1.959-10.892c13.508,10.216,21.765,23.821,29.454,39.911 c4.146-7.676,7.217-13.361,9.858-18.249c3.828-0.107,6.559-0.183,10.456-0.292c-0.103,4.676-0.214,9.712-0.349,15.809 c9.333-5.899,18.13-11.52,26.989-17.043c8.837-5.51,17.001-12.524,29.218-13.191c-1.586,5.57-3.673,10.092-7.85,13.51 c-6.381,5.221-12.552,10.74-19.236,15.542c-12.865,9.242-25.963,18.164-39.09,27.033c-7.638,5.161-9.228,4.532-12.917-3.553 c-0.937-2.054-2.556-3.787-3.731-5.745c-16.279-27.121-36.792-51.522-51.103-79.923c-7.425-14.735-15.398-29.195-23.08-43.802 c-0.89-1.693-1.501-3.534-2.398-5.682c3.537-1.681,5.371,0,6.765,2.298c4.103,6.764,8.288,13.491,12.086,20.427 c10.458,19.098,20.707,38.311,31.116,57.436c1.334,2.45,3.126,4.651,4.706,6.967C817.069,357.403,817.424,357.216,817.778,357.028z "/>
    <path fill="#261123" d="M972.052,300.92c-6.09-6.542-11.549-12.408-17.421-18.715c6.308-3.539,11.323-2.832,15.914-0.397 c13.964,7.405,27.853,14.96,41.573,22.805c3.517,2.011,8.794,4.511,7.187,9.336c-1.002,3.01-5.397,5.59-8.829,6.975 c-19.254,7.769-38.646,15.201-58.092,22.479c-2.009,0.752-4.68-0.264-7.044-0.46c0.82-2.273,0.962-5.642,2.572-6.637 c8.369-5.17,17.105-9.746,25.729-14.501c1.428-0.787,2.93-1.439,4.197-3.29c-8.104,1.281-16.206,2.573-24.313,3.838 c-2.607,0.407-5.295,1.284-7.817,0.955c-2.302-0.301-4.428-1.944-6.631-2.995c1.44-1.889,2.497-4.646,4.4-5.488 c4.183-1.851,8.756-2.893,13.244-3.949c2.529-0.595,5.207-0.56,7.818-0.808c-0.135-1.016-0.269-2.033-0.403-3.05 c-5.64-0.905-11.281-1.809-17.044-2.734C949.958,299.465,949.958,299.465,972.052,300.92z"/>
    <path fill="#261123" d="M712.893,914.876c7.22-12.62,17.519-21.464,32.564-24.398c13.677-2.668,24.559,1.901,33.602,11.828 c9.347,10.26,12.443,23.047,13.866,36.313c1.49,13.885,0.208,27.536-4.063,40.942c-7.703,24.177-27.175,33.556-52.4,19.841 c-18.035-9.805-29.008-24.896-31.26-46.163C703.746,939.488,706.529,927.131,712.893,914.876z M721.151,929.199 c-8.043,14.897-1.678,43.014,16.352,55.098c15.232,10.209,33.881,3.83,39.409-13.092c1.107-3.389,1.459-7.114,1.614-10.707 c0.662-15.34-0.677-30.354-8.823-43.912c-5.435-9.046-11.465-11.688-21.657-9.698C737.053,909.034,728.664,914.827,721.151,929.199 z"/>
    <path fill="#261123" d="M648.891,1107.243c-5.374-7.487-7.201-14.319-6.51-21.734c1.985-21.326,3.643-42.701,6.423-63.927 c1.394-10.649,4.947-21.015,7.523-31.51c0.684,0.046,1.369,0.091,2.053,0.137c0.843,7.922,1.685,15.843,2.729,25.66 c1.84-4.304,2.953-6.906,4.387-10.259c4.025,10.377,3.804,20.598,2.963,32.318c2.406-2.829,3.851-4.528,6.003-7.058 c-1.178,9.359-2.2,17.481-3.222,25.604c0.488,0.319,0.976,0.638,1.464,0.958c8.857-8.878,17.714-17.756,26.571-26.634 c0.398,0.268,0.796,0.536,1.194,0.804c-7.281,10.919-14.562,21.839-21.843,32.758c0.237,0.216,0.474,0.432,0.712,0.649 c5.778-5.305,11.492-10.68,17.363-15.88c2.447-2.167,5.029-4.359,7.924-5.774c1.741-0.851,5.414-1.06,6.081-0.089 c1.252,1.823,1.931,5.154,1.071,7.052c-1.297,2.864-3.897,5.286-6.331,7.463c-15.248,13.635-30.588,27.167-45.938,40.688 C656.351,1101.247,653.026,1103.835,648.891,1107.243z"/>
    <path fill="#261123" d="M897.743,885.453c20.562-9.846,41.178-19.148,63.975-21.948c6.554-0.805,13.093-1.862,19.672-2.31 c9.625-0.655,18.998-2.122,27.754-6.395c5.294-2.584,10.691-3.194,16.383-0.855c0.606,4.218-3.141,5.402-5.734,6.913 c-27.955,16.291-55.746,32.893-84.144,48.38c-13.534,7.38-28.259,12.583-42.479,18.689c-1.778,0.764-3.773,1.022-7.79,2.067 c13.659-12.691,29.344-18.59,42.13-29.863c-5.187,0.894-10.373,1.788-17.35,2.992c10.478-8.887,20.997-14.611,31.506-21.371 C927.024,882.985,912.384,884.219,897.743,885.453z"/>
    <path fill="#261123" d="M655.944,887.042c26.677-6.718,52.716-8.797,78.943-8.912c0.442-0.002,0.89,1.555,1.9,3.437 c-14.503,8.516-30.758,8.593-45.6,10.759c-2.51,5.525-4.738,10.428-7.128,15.689c-2.655-0.473-4.742-0.845-8.868-1.58 c3.381,6.088,6.236,11.226,9.09,16.365c-1.048,0.503-2.096,1.006-3.143,1.508c-2.511,1.376-5.022,2.752-7.655,4.195 c-1.218,3.252,2.093,8.08-4.082,10.605c-1.776-3.112-3.609-6.324-6.383-11.185c-0.582,3.645-1.217,5.683-1.177,7.708 c0.191,9.556,0.571,19.107,0.874,28.661c0.052,1.647,0.537,3.497-0.045,4.89c-0.664,1.588-2.083,3.306-3.598,3.921 c-0.865,0.351-3.179-1.077-3.778-2.247c-1.162-2.274-1.986-4.891-2.235-7.436c-2.244-22.951-3.427-45.91,0.46-68.827 c0.212-1.252,0.039-2.612,0.454-3.776C654.515,889.3,655.465,887.929,655.944,887.042z"/>
    <path fill="#261123" d="M838.772,955.887c10.322-5.83,15.387-17.318,27.605-16.632c4.217,4.617,4.118,9.234-0.031,13.272 c-8.717,8.482-17.514,16.907-26.691,24.881c-4.545,3.949-9.228,3.143-12.387-2.325c-3.052-5.283-5.96-11.223-6.696-17.152 c-1.66-13.376-1.867-26.928-2.815-40.398c-0.416-5.903-1.319-11.771-1.762-17.673c-0.193-2.569-0.54-5.555,0.514-7.696 c1.924-3.904,5.241-6.9,9.999-7.035c5.171-0.146,6.406,4.208,7.521,7.831c4.204,13.667,4.833,27.774,4.575,41.97 C838.484,941.466,838.697,948.008,838.772,955.887z"/>
    <path fill="#261123" d="M213.747,329.634c-2.766,2.513-5.532,5.026-9.131,8.297c2.297,0.229,3.906,0.389,6.526,0.65 c-2.297,1.77-4.117,3.173-6.677,5.147c5.422,1.199,11.156-3.367,14.417,3.745c-7.393,7.78-18.527,4.376-28.413,9.138 c4.962,2.316,9.128,4.437,13.429,6.236c12.181,5.094,24.281,10.285,34.714,18.653c3.89,3.12,8.083,4.79,13.48,5.074 c5.748,0.302,11.364,3.098,17.041,4.792c3.465,1.034,6.937,2.041,10.998,3.234c0.114-3.163,0.055-5.975,0.346-8.75 c0.869-8.285,1.628-8.895,10.362-8.99c2.724-3.886,5.481-7.82,9.711-13.855c0.885,5.514,1.396,8.695,1.969,12.268 c9.393-3.727,11.54-14.937,21.118-19.822c-4.485,20.711-20.829,33.796-28.909,51.909c-0.444,0.1-1.481,0.691-2.279,0.459 c-12.65-3.667-25.501-6.807-37.846-11.322c-24.395-8.924-48.46-18.745-72.775-27.897c-4.902-1.845-7.21-7.847-13.453-7.408 c-3.543,0.25-7.158-0.79-10.749-0.88c-3.036-0.076-6.339,0.402-7.189-3.445c-0.881-3.988,2.78-4.944,5.284-6.096 c12.289-5.657,24.615-11.245,37.068-16.529c6.277-2.664,12.851-4.63,19.29-6.912C212.634,328.096,213.19,328.865,213.747,329.634z"/>
    <path fill="#261123" d="M251.489,292.578c19.934-9.918,38.441-3.692,56.098-5.71c4.683-6.414,3.972-17.535,16.937-17.828 c0.401,6.037,0.782,11.771,1.226,18.464c6.208,0.108,12.68,0.22,19.153,0.332c5.259,0.091,10.52,0.145,15.778,0.298 c1.307,0.038,2.708,0.153,3.887,0.653c4.054,1.719,6.229,4.642,5.538,9.296c-0.687,4.628-3.708,5.692-7.822,5.611 c-11.554-0.228-23.126-0.027-34.661-0.599c-6.621-0.329-10.551,0.92-13.681,7.881c-5.512,12.26-12.909,23.671-19.464,35.466 c-1.777,3.198-3.409,7.416-7.641,6.433c-2.669-0.62-5.514-3.498-6.908-6.099c-8.417-15.709-16.428-31.635-24.604-47.473 C254.265,297.251,253.039,295.285,251.489,292.578z M285.149,331.196c5.388-9.975,10.288-19.046,15.662-28.996 c-11.793-1.659-22.027-3.099-33.689-4.74c5.015,9.75,9.444,18.447,13.967,27.094C282.277,326.823,283.759,328.938,285.149,331.196z "/>
    <path fill="#261123" d="M424.138,219.67c8.8-19.193,23.809-31.713,36.592-46.229c-16.784,10.431-32.074,23.749-54.261,28.778 c6.206-5.04,10.683-8.677,15.161-12.313c-0.156-0.391-0.312-0.783-0.468-1.174c-3.668,0.968-7.335,1.937-11.003,2.905 c-0.245-0.365-0.491-0.729-0.736-1.093c8.906-6.502,17.635-13.267,26.756-19.452c17.712-12.01,35.455-23.998,53.597-35.337 c5.69-3.556,12.631-5.214,19.147-7.274c1.744-0.551,4.031,0.615,7.792,1.312c-5.988,7.266-10.723,13.37-15.831,19.145 c-17.238,19.489-34.608,38.862-51.93,58.277c-0.877,0.983-1.596,2.425-2.693,2.831c-3.159,1.168-6.817,1.33-9.633,2.986 c-3.003,1.766-5.201,4.866-7.916,7.189C428.246,220.619,426.95,220.048,424.138,219.67z"/>
    <path fill="#261123" d="M153.269,402.141c3.376,7.329,13.161,7.543,13.537,16.635c-3.113,0.623-6.335,1.267-9.608,1.922 c-2.658-2.321-5.271-4.602-7.884-6.884c-0.622,5.728,2.478,9.502,4.636,13.66c1.67,3.219,3.575,6.355,4.836,9.73 c0.603,1.614-0.047,3.697-0.13,5.567c-2.073-0.153-4.164-0.196-6.212-0.512c-0.802-0.124-1.51-0.856-2.625-1.53 c-0.102,5.024,0.092,9.566-0.451,14.019c-0.176,1.442-2.25,3.638-3.522,3.685c-1.291,0.048-2.811-2.012-3.939-3.388 c-0.553-0.674-0.456-1.887-0.633-2.86c-2.773-15.22-5.529-30.444-8.32-45.662c-1.42-7.741-0.946-10.378,3.251-15.77 c3.829,3.186,7.948,4.344,13.333,3.591c8.631-1.205,16.957,1.573,24.835,5.272c26.562,12.473,53.117,24.96,79.695,37.4 c4.881,2.285,10.502,4.766,11.039,10.378c0.693,7.237,0.291,14.861-1.271,21.959c-1.891,8.588-5.816,16.708-8.206,25.215 c-1.128,4.013-0.919,8.452-0.982,12.703c-0.114,7.767-1.809,11.164-5.701,10.677c-3.833-0.478-5.897-4.303-4.962-11.363 c0.73-5.509,2.573-10.868,3.87-16.306c0.38-1.594,0.583-3.23,0.994-5.565c-3.753-1.025-7.462-2.437-5.494-7.711 c1.022-2.738,1.884-5.734,1.86-8.606c-0.023-2.767-1.279-5.523-1.993-8.283c-11.621,2.612-11.621,2.612-13.274-4.012 c-4.663-1.691-11.344,2.296-14.822-4.506c3.107-6.616,10.71-4.055,15.272-7.687c-5.914-3.784-14.235-1.938-18.516-9.216 c2.119-0.708,3.83-1.28,5.863-1.959c-0.692-0.857-1.122-1.832-1.863-2.237c-9.247-5.057-18.641-9.853-27.777-15.101 c-4.688-2.693-4.489-3.039-4.88-8.865C173.437,405.097,163.712,403.672,153.269,402.141z"/>
    <path fill="#261123" d="M167.985,567.445c-3.427,0.662-6.184,1.981-8.552,1.476c-3.995-0.852-8.615-1.932-11.424-4.567 c-6.688-6.273-8.105-29.841-2.782-37.421c3.26-4.643,7.184-8.241,13.641-8.504c5.563-0.227,9.608,1.431,12.64,5.937 c1.263,1.876,2.531,3.749,4.193,6.209c7.247-6.494,15.275-9.869,25.063-9.334c6.583,0.36,11.761,2.844,15.186,7.845 c11.147,16.274,13.633,32.47,2.694,50.741c-6.394,10.68-16.438,12.692-27.407,11.47c-10.166-1.132-18.038-6.033-20.819-16.823 C169.849,572.264,168.931,570.145,167.985,567.445z M200.234,538.662c-7.374,4.2-14.642,8.339-23.003,13.101 c1.958,5.929,3.272,12.454,6.192,18.156c4.346,8.487,12.962,8.963,19.254,1.708C209.317,563.972,213.079,551.06,200.234,538.662z M158.711,554.613c3.749-6.022,4.045-11.752,0.818-18.224C152.958,544.951,152.867,547.111,158.711,554.613z"/>
    <path fill="#261123" d="M184.26,683.14c-1.135,9.049-1.665,18.225-3.535,27.12c-3.523,16.755-7.951,33.316-11.756,50.015 c-3.726,16.354-6.999,32.812-10.795,49.15c-0.995,4.282-3.19,8.286-4.836,12.421c-5.163-0.941-8.043-2.335-8.154-6.988 c-0.488-20.39-1.441-40.776-1.497-61.166c-0.063-22.737,0.577-45.478,1.147-68.211c0.074-2.942,1.555-5.848,2.607-9.556 c7.314,4.425,5.005,10.633,5.708,15.625c0.769,5.458,0.493,11.063,0.731,18.395c2.895-3.986,4.8-6.609,6.705-9.232 c0.576,0.098,1.152,0.197,1.728,0.295c0.071,7.971,0.142,15.943,0.213,23.914c0.421,0.07,0.841,0.139,1.262,0.209 c6.422-14.091,12.843-28.181,19.265-42.271C183.455,682.953,183.858,683.046,184.26,683.14z"/>
    <path fill="#261123" d="M158.599,603.438c-1.619,8.176,3.879,16.951-3.715,24.418c-1.956-1.403-4.531-2.27-5.26-3.941 c-3.417-7.831-6.368-15.869-9.404-23.864c-2.202-5.797,0.249-10.445,4.395-14.102c3.788-3.341,7.874-1.762,11.821,0.451 c15.198,8.523,30.635,16.641,45.6,25.552c6.894,4.105,6.493,4.779,3.795,14.128c-4.349,1.65-8.269-0.147-11.954-2.27 c-7.705-4.439-15.243-9.166-22.915-13.663C167.107,607.888,163.109,605.874,158.599,603.438z"/>
  </g>
</svg>