<?xml version="1.0" encoding="utf-8"?>
<svg version="1.1" id="Layer_1" x="0px" y="0px" viewBox="0 0 1200 1200" enable-background="new 0 0 1200 1200" xmlns="http://www.w3.org/2000/svg">
  <path style="stroke: rgb(0, 0, 0); fill: rgb(255, 255, 255);" d="M 76.732 803.553 L 686.324 51.154 L 1131.794 686.323 L 884.547 1144.583 L 76.732 803.553 Z"/>
  <g>
    <path fill="#261123" d="M635.984,951.293c-42.172-30.024-84.347-60.043-126.472-90.132c-0.497-0.355-0.342-1.624-0.632-3.265 c5.054-4.321,9.853-0.699,14.015,1.612c8.503,4.723,16.632,10.13,24.844,15.364C580.792,895.939,608.298,923.597,635.984,951.293z"/>
    <g>
      <path fill="#261123" d="M875.344,1150c-2.204-0.592-6.165-1.274-9.838-2.698c-48.322-18.736-96.955-36.732-144.795-56.634 c-45.397-18.886-90.18-39.304-134.813-59.957c-40.988-18.966-81.09-39.858-122.174-58.602 c-48.751-22.242-97.793-43.928-147.351-64.29c-40.126-16.487-81.258-30.516-121.84-45.909 c-26.087-9.895-52.19-19.801-77.89-30.639c-14.58-6.148-28.696-13.614-42.379-21.588c-8.295-4.834-8.771-8.471-4.42-16.527 c2.692-4.985,5.979-10.141,10.267-13.687c20.233-16.729,36.773-36.922,54.041-56.426c25.575-28.887,51.602-57.412,76.183-87.13 c25.4-30.708,49.448-62.542,73.817-94.093c27.371-35.438,54.17-71.32,81.705-106.629c35.165-45.095,71.232-89.49,106.163-134.764 c52.328-67.822,109.671-131.372,165.395-196.309c12.697-14.796,24.187-30.625,36.373-45.866 c8.48-10.606,11.853-11.046,20.874-0.996c7.971,8.879,15.327,18.404,22.152,28.202c33.689,48.366,66.92,97.052,100.674,145.372 c47.463,67.946,95.433,135.538,142.838,203.524c54,77.442,107.523,155.218,161.48,232.69c11.536,16.563,15.004,33.423,5.82,52.077 c-12.121,24.622-23.262,49.77-36.343,73.867c-22.611,41.654-46.294,82.728-69.712,123.941 c-20.133,35.431-40.912,70.5-60.665,106.14c-13.732,24.777-26.299,50.204-39.203,75.435c-4.828,9.44-9.864,18.878-13.521,28.791 C901.698,1144.867,895.397,1149.956,875.344,1150z M837.872,837.087l-0.405-0.477c0.809,6.12,1.388,12.282,2.477,18.352 c2.111,11.77,4.497,23.49,6.789,35.227c6.956,35.63,13.889,71.265,20.893,106.886c5.893,29.966,11.931,59.904,17.779,89.878 c1.707,8.749,2.981,17.581,4.454,26.375c3.521-1.872,4.729-3.667,5.703-5.581c15.07-29.616,29.726-59.452,45.299-88.801 c9.543-17.987,20.761-35.076,30.73-52.847c17.135-30.543,34.291-61.087,50.702-92.021 c30.497-57.483,66.203-112.163,92.264-172.067c3.1-7.126,2.694-12.662,0.075-18.777c-1.545-3.608-4.119-6.806-6.42-10.054 c-47.969-67.683-96.169-135.204-143.9-203.053c-48.504-68.948-96.412-138.315-144.845-207.314 c-40.014-57.005-80.409-113.743-120.654-170.586c-1.688-2.383-3.574-4.626-6.499-8.39c0.062,3.373-0.097,4.665,0.134,5.883 c5.216,27.415,10.492,54.819,15.722,82.232c8.39,43.975,16.672,87.97,25.154,131.927c9.151,47.421,18.575,94.79,27.703,142.215 c9.462,49.157,18.613,98.374,28.077,147.531c13.317,69.17,26.725,138.322,40.276,207.447 C831.751,813.166,835.018,825.086,837.872,837.087z M86.613,804.349c2.592,1.091,4.59,2.01,6.641,2.784 c28.194,10.636,56.501,20.982,84.573,31.93c55.261,21.552,110.636,42.841,165.499,65.37 c43.826,17.997,87.253,37.037,130.332,56.76c54.358,24.886,107.873,51.623,162.338,76.264 c42.35,19.159,85.467,36.65,128.488,54.287c34.421,14.112,69.196,27.364,103.858,40.884c3.425,1.336,7.158,1.882,12.286,3.185 c-2.925-22.894-4.874-44.058-8.471-64.938c-5.715-33.176-12.497-66.168-18.886-99.227 c-18.836-97.463-37.632-194.934-56.575-292.376c-14.544-74.812-29.296-149.584-43.939-224.378 c-22.477-114.807-44.93-229.618-67.487-344.409c-0.394-2.006-1.968-3.78-2.991-5.663c-0.836,6.277-0.068,11.919,0.872,17.533 c1.023,6.109,2.641,12.149,3.23,18.293c1.264,13.208,1.759,26.49,3.062,39.693c2.87,29.069,7.013,58.047,8.858,87.175 c2.41,38.051,7.187,75.75,12.257,113.495c3.598,26.791,9.838,53.971-1.709,80.97c-0.857-1.233-1.998-2.506-2.728-3.982 c-11.772-23.787-14.498-49.719-17.602-75.512c-4.76-39.558-9.203-79.153-13.913-118.717c-0.147-1.238-1.765-2.301-4.623-5.811 c0.278,15.179,0.501,27.394,0.724,39.608c-12.926-28.825-15.802-59.198-15.203-90.183c-0.88-0.088-1.76-0.176-2.639-0.264 c-2.815,5.005-5.63,10.009-8.717,15.498c-10.251-9.709-6.897-21.507-6.39-34.612c-4.562,4.951-7.396,8.027-11.855,12.868 c-0.354-16.683,9.361-27.696,12.151-43.164c-22.037,26.549-42.423,51.109-62.808,75.668c-0.91-0.61-1.82-1.221-2.73-1.831 c12.999-21.903,25.998-43.806,38.997-65.71c-25.097,24.94-48.883,50.67-71.087,77.699 c-42.755,52.047-84.897,104.604-126.746,157.383c-28.632,36.11-56.508,72.825-84.391,109.521 c-17.138,22.555-33.03,46.076-50.591,68.286c-25.558,32.325-51.885,64.053-78.323,95.669 c-20.181,24.134-40.808,47.905-61.676,71.449c-15.526,17.516-31.786,34.381-47.627,51.62 C89.363,799.331,88.266,801.759,86.613,804.349z"/>
      <path fill="#261123" d="M724.465,679.699c0.722,2.062,1.4,3.997,2.077,5.932c0.482-0.003,0.964-0.005,1.446-0.008 c0.284-8.714,0.568-17.428,0.849-26.027c0.62,0.348,2.152,1.207,4.287,2.404c-3.241-20.456-6.446-40.43-9.561-60.418 c-3.114-19.984-6.017-39.981,0.402-61.736c6.318,9.364,8.392,18.523,9.677,27.466c6.127,42.641,17.275,84.126,27.952,125.733 c7.811,30.439,15.578,60.89,23.335,91.218c11.157,1.082,11.377,1.047,13.119,12.014c6.467,40.702,13.215,81.366,19.015,122.165 c5.269,37.063,16.74,72.492,26.774,108.316c6.214,22.186,12.734,44.286,19.098,66.43c0.49,1.705,1.003,3.433,1.21,5.185 c1.534,12.941-5.549,18.436-17.397,13.054c-14.905-6.771-29.624-13.958-44.336-21.144c-25.472-12.441-51.244-24.336-76.209-37.729 c-25.751-13.815-50.708-29.114-75.953-43.865c-2.241-1.309-4.476-3.083-5.847-5.202c-0.552-0.852,1.234-3.216,2.03-5.062 c-13.696-6.926-28.564-13.475-42.457-21.673c-29.397-17.346-58.366-35.423-87.307-53.526c-5.173-3.236-9.567-7.842-13.868-12.257 c-1.102-1.132-1.301-4.475-0.42-5.836c0.898-1.389,3.785-2.431,5.533-2.119c2.952,0.526,5.817,2.013,8.499,3.495 c8.929,4.933,17.736,10.087,26.642,15.063c3.714,2.075,7.559,3.914,11.345,5.86c0.513-0.837,1.026-1.675,1.539-2.512 c-13.003-9.261-25.967-18.577-39.02-27.765c-9.797-6.896-19.752-13.566-29.538-20.479c-2.503-1.768-4.899-3.856-6.797-6.234 c-0.829-1.039-0.881-3.531-0.185-4.719c0.695-1.187,2.948-2.411,4.198-2.141c3.4,0.736,6.955,1.731,9.878,3.543 c25.945,16.085,52.219,31.698,77.504,48.772c28.952,19.55,56.22,41.371,80.246,67.171c-1.591,0.433-3.25,0.884-6.317,1.719 c7.796,8.57,16.627,14.583,26.407,18.934c16.125,7.174,32.542,13.692,48.845,20.466c10.878,4.52,21.77,9.005,33.249,12.584 c-7.471-13.246-20.929-21.907-24.802-38.151c11.428,0.549,17.718,10.423,28.488,14.842c-6.949-14.461-13.295-27.668-19.641-40.876 c0.853-0.604,1.705-1.207,2.558-1.811c19.693,18.782,39.385,37.564,59.922,57.15c-1.188-3.35-1.952-6.058-3.082-8.604 c-10.232-23.058-21.26-45.8-30.491-69.25c-4.462-11.335-5.584-23.986-8.218-36.04c0.818-0.396,1.636-0.791,2.454-1.187 c11.344,18.065,22.687,36.13,34.03,54.195c0.714-0.304,1.428-0.609,2.143-0.913c-3.526-11.128-7.33-22.178-10.523-33.401 c-7.756-27.257-15.588-54.504-22.581-81.961c-1.922-7.548-2.699-16.227-0.925-23.651c1.956-8.186-0.011-14.711-2.806-21.686 c-10.05-25.082-20.107-50.161-30.141-75.25C725.57,717.118,722.831,695.198,724.465,679.699z M780.307,857.058 c5.762,32.356,23.411,91.809,31.302,102.829c-5.436-32.001-10.531-61.994-15.354-90.387 C790.067,864.672,785.172,860.853,780.307,857.058z"/>
      <path fill="#261123" d="M171.893,754.305c8.321-4.838,16.641-9.675,24.962-14.513c-5.35,12.717-17.233,18.853-28.018,28.98 c8.944-1.106,15.716-1.943,24.769-3.062c-3.782,4.184-5.946,6.579-8.43,9.327c7.707,2.001,14.565,3.782,23.583,6.123 c-4.928,3.819-7.62,5.904-11.337,8.784c1.954,0.868,3.787,1.116,4.668,2.164c6.301,7.493,6.286,7.364,13.526,9.202 c26.176,6.647,52.333,13.373,78.461,20.207c4.559,1.193,8.945,3.049,15.274,5.246c-11.732-0.371-21.386-0.676-31.04-0.981 c-0.386,0.746-0.773,1.492-1.159,2.238c7.338,4.637,14.675,9.273,24.018,15.177c-8.585-0.726-14.606-1.235-20.627-1.745 c-0.263,0.814-0.526,1.628-0.788,2.442c11.949,5.36,23.649,11.386,35.89,15.967c55.529,20.78,111.221,41.124,166.831,61.689 c16.286,6.023,29.927,16.485,43.598,27.625c-9.338-1.813-18.748-3.316-28-5.494c-35.518-8.365-69.251-21.655-102.481-36.587 c-16.118-7.242-33.24-12.218-49.753-18.617c-24.762-9.595-49.179-20.116-74.12-29.209c-43.256-15.771-86.79-30.783-130.244-46.008 c-3.734-1.309-7.736-2.524-11.627-2.565c-6.15-0.064-9.837-3.841-13.288-7.728c-7.478-8.419-7.519-13.463,0.409-21.977 c9.364-10.057,19.213-19.671,29.025-29.301c54.427-53.421,108.897-106.799,163.389-160.153c4.429-4.337,8.879-8.735,13.815-12.444 c3.202-2.406,7.305-3.612,11.441-5.562c3.276,7.643,0.234,11.634-3.66,15.598c-19.865,20.215-39.636,40.522-59.463,60.775 c-20.405,20.844-40.8,41.698-61.272,62.476c-10.237,10.39-20.666,20.592-30.942,30.944c-3.071,3.093-5.916,6.41-8.865,9.624 C170.922,753.399,171.408,753.852,171.893,754.305z"/>
      <path fill="#261123" d="M626.537,820.665c8.451-3.413,16.571-6.741,24.727-9.977c18.519-7.347,36.832-15.718,57.377-15.059 c6.361,0.204,12.677,1.804,20.056,2.923c-1.096,6.511-0.949,11.613-2.822,15.815c-14.423,32.359-29.216,64.552-43.972,96.762 c-1.088,2.376-2.681,4.544-4.205,6.691c-3.15,4.436-7.594,4.937-11.631,2.138c-4.279-2.967-8.553-6.483-11.533-10.68 c-9.725-13.695-19.111-27.651-28.09-41.846c-3.378-5.341-6.601-8.75-13.572-8.198c-3.648,0.289-8.017-1.093-11.151-3.124 c-10.631-6.888-10.689-12.95-0.368-27.398c-4.074-7.121-8.619-14.59-12.692-22.308c-4.952-9.382-9.859-18.823-13.996-28.573 c-1.106-2.607-0.054-8.837,1.257-9.229c3.285-0.983,8.614-0.95,10.756,1.122c7.282,7.046,13.886,14.885,20.098,22.923 C613.514,801.364,619.523,810.646,626.537,820.665z M670.616,888.542c10.977-23.423,20.975-44.757,31.906-68.081 c-23.155,3.829-41.115,14.203-60.683,24.79C651.5,859.783,660.362,873.115,670.616,888.542z"/>
      <path fill="#261123" d="M343.608,668.124c1.14,4.712,2.431,8.911,3.148,13.205c3.644,21.83,7.531,43.631,10.541,65.55 c1.801,13.114,2.376,26.416,3.046,39.657c0.288,5.688-0.179,11.865-6.261,14.809c-4.537,2.196-11.488-2.057-16.599-8.413 c-13.288-16.527-26.043-33.584-40.486-49.052c-13.247-14.187-29.402-15.188-46.032-5.366c-0.945,8.316,2.305,15.337,8.035,21.259 c4.92,5.085,10.196,9.833,15.418,14.617c7.738,7.089,7.777,7.046,3.15,19.184c-4.406-0.896-9.386-1.025-13.579-2.907 c-22.359-10.03-33.433-28.2-35.355-52.052c-1.022-12.693,4.854-21.057,17.341-24.889c24.568-7.54,47.323-3.802,67.119,13.137 c6.326,5.412,11.778,11.845,18.935,19.142c-0.395-4.152-0.529-7.236-1.003-10.266c-2.597-16.575-6.144-33.057-7.689-49.726 C321.785,669.257,325.338,666.599,343.608,668.124z"/>
      <path fill="#261123" d="M570.949,417.62c-6.401-8.645-4.265-17.165-2.18-25.685c8.821-36.039,17.65-72.075,26.421-108.126 c0.409-1.681,0.294-3.489,0.562-7.112c-3.959,2.62-7.196,4.234-9.78,6.571c-8.538,7.72-16.718,15.838-25.292,23.516 c-3.574,3.201-7.461,6.604-11.831,8.188c-3.447,1.249-10.607,1.008-11.282-0.6c-1.6-3.816-1.777-9.611,0.135-13.181 c2.612-4.877,7.456-8.701,11.761-12.505c17.238-15.233,34.498-30.448,52.07-45.29c4.622-3.904,10.256-6.713,15.682-9.528 c4.74-2.46,9.006-0.801,10.867,4.032c1.35,3.508,2.321,7.834,1.554,11.383c-10.737,49.671-21.556,99.328-32.932,148.855 C593.043,414.077,588.681,416.679,570.949,417.62z"/>
      <path fill="#261123" d="M515.232,310.573c-0.143,9.871-4.189,17.679-9.167,24.895c-32.175,46.636-64.411,93.231-96.931,139.627 c-4.591,6.549-8.674,14.449-17.588,16.429c-5.336-4.98-1.623-8.65,0.608-12.163c18.044-28.409,35.769-57.036,54.443-85.027 c14.737-22.09,30.652-43.397,46.107-65.005C498.424,321.331,505.579,314.992,515.232,310.573z"/>
      <path fill="#261123" d="M660.102,400.655c2.837,5.739,5.673,11.477,9.007,18.222c0.118-16.499-7.707-31.809-2.601-47.226 c1.173-0.122,2.346-0.244,3.519-0.367c1.475,7.981,3.017,15.951,4.412,23.946c5.086,29.145,10.667,58.219,14.965,87.481 c2.391,16.281,2.613,32.881,3.813,49.337c-1.047,0.188-2.094,0.376-3.141,0.564c-4.899-19.429-9.799-38.857-15.086-59.824 c-0.541,4.888-0.913,8.249-1.599,14.45c-11.455-29.388-14.44-57.352-17.396-85.322 C657.364,401.496,658.733,401.076,660.102,400.655z M674.3,438.953c-0.867,8.862-0.058,17.544,3.413,25.832 C682.998,455.39,675.564,447.573,674.3,438.953z"/>
      <path fill="#261123" d="M459.006,437.236c1.399-16.885,23.97-52.405,41.88-66.925 C490.199,396.782,476.543,418.199,459.006,437.236z"/>
      <path fill="#261123" d="M590.921,753.861c8.927-2.368,12.832,4.982,17.326,9.442c8.947,8.878,21.442,15.63,22.344,32.049 c-3.344-0.661-5.933-0.58-7.859-1.67C617.821,790.902,594.107,760.891,590.921,753.861z"/>
      <path fill="#261123" d="M656.235,790.551c9.868-12.125,22.862-15.73,36.354-9.444c-7.092,8.991-16.189,13.033-27.049,14.376 C660.882,796.059,657.769,795.144,656.235,790.551z"/>
      <path fill="#261123" d="M475.015,436.931c-1.546-8.189-1.546-8.189,19.299-24.244 C489.553,421.771,485.914,431.775,475.015,436.931z"/>
      <path fill="#261123" d="M837.872,837.087c-2.401-21.095-4.636-42.211-7.242-63.281c-3.586-28.993-7.209-57.986-11.272-86.916 c-3.326-23.678-7.549-47.23-10.907-70.904c-1.44-10.153-5.972-20.583,2.429-30.482c1.903-2.242,0.304-7.658-0.059-11.578 c-0.57-6.163-1.635-12.281-2.157-18.446c-0.415-4.903-0.7-11.077,5.23-12.085c6.737-1.145,6.819,5.463,7.732,10.078 c3.87,19.575,7.928,39.121,11.333,58.778c3.551,20.499,6.432,41.113,9.691,62.23c3.277,1.102,6.463,2.173,10.268,3.452 c0.491,7.577,0.975,15.048,1.469,22.67c3.501,2.366,7.079,4.785,10.837,7.325c2.536-11.4,4.999-22.471,8.129-36.536 c0.106,36.792,0.272,70.378,0.236,103.964c-0.006,6.193-2.437,10.894-6.715,16.233c-4.901,6.116-8.664,16.462-7.186,23.817 c7.928,39.44,17.643,78.521,26.762,117.82c11.993-3.547,14.724-2.368,18.084,7.382c1.143,3.317,1.183,7.004,2.212,10.374 c1.368,4.48,3.21,8.816,5.73,15.581c2.765-5.334,4.244-8.325,5.846-11.25c4.25-7.759,8.281-15.661,12.984-23.137 c1.594-2.535,4.94-3.968,7.485-5.905c0.949,0.54,1.898,1.08,2.847,1.621c-0.843,6.609-1.687,13.217-2.652,20.782 c4.687-4.26,8.819-8.016,14.817-13.468c-4.13,11.698-7.49,21.214-10.85,30.729c0.905,0.603,1.81,1.207,2.715,1.81 c4.503-4.289,9.006-8.578,13.509-12.867c-6.401,19.945-15.994,38.009-26.732,55.611c-7.569,12.407-14.337,25.359-20.647,38.46 c-5.185,10.763-5.334,11.707-16.226,15.963c-5.741-4.661-5.293-11.504-6.25-17.982c-1.218-8.247-2.76-16.463-4.559-24.605 c-5.061-22.898-10.58-45.697-15.449-68.635c-7.083-33.372-14.003-66.783-20.416-100.288c-1.479-7.729-6.753-11.804-11.432-16.792 C837.466,836.61,837.872,837.087,837.872,837.087z"/>
      <path fill="#261123" d="M1079.523,687.626c-2.748,1.846-5.831,3.343-8.182,5.603c-6.906,6.637-9.159,7.056-16.95,1.11 c-4.905-3.743-9.439-7.971-14.46-12.255c-3.616,5.43-6.7,11.043-10.728,15.866c-5.219,6.248-10.403,6.729-17.69,2.852 c-11.893-6.328-19.487-16.991-25.397-28.261c-8.197-15.632-13.084-32.61-15.738-50.236c-1.068-7.09,1.896-12.551,5.785-16.885 c2.712-3.023,8.445-4.861,12.68-4.619c5.714,0.327,8.956,5.142,9.724,11.041c1.202,9.227,1.989,18.532,3.717,27.659 c2.054,10.845,4.388,21.701,7.645,32.229c1.717,5.552,5.655,10.417,8.591,15.593c1.173-0.104,2.347-0.208,3.52-0.312 c3.089-7.927,6.179-15.853,10.024-25.718c9.815,8.217,18.578,15.552,28.59,23.934c2.544-13.021-1.825-21.974-6.956-30.706 c-1.116-1.899-3.161-3.372-3.866-5.364c-0.924-2.61-0.941-5.54-1.349-8.332c2.799-0.169,5.599-0.327,8.396-0.514 c0.813-0.054,1.62-0.191,4.165-0.501c-7.574-10.427-14.743-20.148-21.749-29.985c-7.448-10.456-14.859-20.942-22.034-31.586 c-2.303-3.417-5.754-7.421,1.391-12.067c3.964,4.504,8.166,8.817,11.848,13.537c25.068,32.139,49.943,64.43,75.105,96.495 c4.171,5.315,4.772,9.108,0.554,15.151c-5.754,8.243-9.209,18.051-14.476,26.684c-10.854,17.79-21.518,35.776-33.679,52.659 c-8.709,12.092-19.855,22.411-29.609,33.782c-2.151,2.507-3.359,6.005-4.392,9.242c-1.333,4.178-1.682,8.693-3.229,12.768 c-0.574,1.513-3.479,3.2-5.061,2.975c-1.619-0.229-4.022-2.627-4.132-4.211c-0.239-3.434,0.324-7.091,1.344-10.416 c2.987-9.737,6.411-19.339,9.563-29.027c2.64-8.115,5.138-16.277,7.485-23.737c0.256,1.179,0.689,3.171,1.476,6.793 c6.909-11.105,13.03-20.942,20.137-32.366c-4.688,1.845-8.21,3.232-12.241,4.818c1.173-11.036,7.765-18.182,15.033-24.714 c6.921-6.22,13.988-12.354,21.528-17.779c4.547-3.272,4.884-6.75,3.297-11.36c1.501-5.734,3.077-11.409,4.912-18.017 c-3.175-3.906-6.884-8.469-12.413-15.27C1074.791,667.395,1077.157,677.51,1079.523,687.626z M1028.69,788.63 c2.349-2.978,3.92-4.147,4.225-5.584c0.317-1.495-0.589-3.25-0.961-4.891c-0.652,0.08-1.304,0.161-1.956,0.241 C1029.651,781.113,1029.304,783.829,1028.69,788.63z"/>
      <path fill="#261123" d="M914.206,800.157c8.192-23.753,11.696-47.836,22.115-69.978c10.073,3.839,9.7,10.136,8.438,16.196 c-2.524,12.12-5.532,24.14-8.432,36.179c-2.382,9.892-4.654,19.821-7.449,29.597c-1.523,5.329-0.548,9.541,3.293,13.286 c4.113,4.011,8.471,7.798,12.314,12.052c11.852,13.122,24.024,26.006,35.075,39.782c8.701,10.846,5.652,19.802-7.832,23.926 c-8.809,2.694-18.219,3.425-27.359,5.034c-11.739,2.067-23.407,5.057-35.235,5.954c-13.263,1.006-17.78-4.63-15.225-17.728 c3.553-18.214,7.553-36.352,11.9-54.393c1.607-6.669,0.907-11.98-3.822-17.051c-2.351-2.521-3.869-5.829-5.709-8.814 c-2.918-4.733-2.182-9.359,1.229-13.325c3.244-3.771,7.559-4.107,12.093-2.233C910.804,799.142,912.08,799.466,914.206,800.157z M920.644,846.901c-3.677,16.183-6.945,30.571-10.62,46.744c19.098-2.307,36.068-4.356,55.065-6.65 C951.512,871.135,938.684,857.662,920.644,846.901z"/>
      <path fill="#261123" d="M716.01,126.547c8.73,9.231,39.903,69.194,46.337,89.452c-4.208-3.836-7.239-6.599-11.63-10.602 c0.617,8.677,1.119,15.744,1.794,25.241c-3.237-2.612-4.861-3.923-8.928-7.206c8.822,42.177,17.183,82.146,25.9,123.822 c-1.656-1.473-2.585-1.916-2.883-2.623c-3.606-8.544-7.559-16.976-10.582-25.727c-14.204-41.113-24.617-83.185-31.721-126.112 c-2.094-12.653-4.829-25.275-8.402-37.584C713.075,145.497,714.028,136.359,716.01,126.547z"/>
      <path fill="#261123" d="M833.487,360.547c-5.831-3.449-11.674-6.13-16.505-10.056c-2.829-2.3-4.357-6.447-5.933-10 c-8.984-20.25-17.79-40.578-26.733-60.846c-0.488-1.107-1.67-1.907-2.777-3.122c-4.978,6.173-3.401,17.212-14.151,18.401 c-9.786-13.887-5.052-40.33,10.248-56.644c6.99,1.047,9.88,6.869,12.462,12.284c12.2,25.588,24.682,51.074,35.74,77.157 C830.177,337.959,831.062,349.661,833.487,360.547z"/>
      <path fill="#261123" d="M807.563,533.618c-9.408-11.487-10.278-25.44-12.837-38.727c-5.86-30.422-11.281-60.932-16.482-91.474 c-2.003-11.761-3.071-23.692-4.202-35.58c-0.206-2.165,1.35-4.497,3.463-6.716C790.461,418.292,808.655,474.268,807.563,533.618z"/>
      <path fill="#261123" d="M869.501,412.047c7.815-2.25,11.394,1.483,14.991,5.619c21.516,24.745,41.636,50.425,55.552,80.435 c3.064,6.608,6.808,12.902,9.506,19.79c-29.013-30.957-53.644-65.289-79.153-98.91 C869.297,417.532,869.815,414.855,869.501,412.047z"/>
      <path fill="#261123" d="M890.53,399.291c-25.145-29.145-48.684-59.194-68.704-94.183c4.419-0.081,7.263-1.004,8.777,0.027 c2.839,1.933,5.341,4.717,7.226,7.636c12.43,19.244,24.837,38.508,36.874,58C880.41,380.011,885.28,389.768,890.53,399.291z"/>
      <path fill="#261123" d="M817.87,509.468c-7.557-20.214-10.003-41.342-10.978-65.003c8.253,4.537,6.69,11.017,8.598,16.526 c1.561-1.349,2.898-2.506,4.905-4.242c10.378,13.347,9.707,29.688,11.717,45.375c-4.312-10.378-8.623-20.757-12.935-31.135 c-0.372,0.025-0.743,0.05-1.114,0.075c0.923,12.66,1.846,25.32,2.77,37.979C819.846,509.185,818.858,509.326,817.87,509.468z"/>
    </g>
  </g>
</svg>