<?xml version="1.0" encoding="utf-8"?>
<svg version="1.1" id="Layer_1" x="0px" y="0px" viewBox="0 0 1200 1200" enable-background="new 0 0 1200 1200" xmlns="http://www.w3.org/2000/svg">
  <path style="stroke: rgb(0, 0, 0); fill: rgb(255, 255, 255);" d="M 350.239 179.904 C 350.239 179.904 886.125 120.574 886.125 118.66 C 886.125 116.746 1150.239 587.56 1150.239 587.56 L 886.125 1075.598 L 352.153 1035.407 L 57.416 593.302 L 350.239 179.904 Z"/>
  <g>
    <path fill="#261123" d="M336.096,1027.163c-11.579-17.331-23.057-34.731-34.767-51.973c-10.788-15.883-21.829-31.593-32.752-47.383 c-10.238-14.801-20.473-29.604-30.7-44.412c-15.79-22.861-31.591-45.715-47.354-68.594c-10.202-14.807-20.317-29.673-30.522-44.478 c-15.75-22.852-31.623-45.621-47.293-68.528c-11.995-17.534-23.966-35.092-35.55-52.897c-8.007-12.307-15.577-24.916-22.896-37.648 c-6.29-10.942-5.499-22,1.597-32.389c7.613-11.144,15.334-22.221,23.277-33.131c22.394-30.758,45.207-61.216,67.278-92.204 c9.958-13.981,18.441-29.007,27.775-43.441c28.678-44.353,56.799-89.086,86.424-132.798c16.969-25.038,36.427-48.389,54.786-72.483 c5.466-7.173,11.151-14.182,16.465-21.465c5.096-6.984,11.546-11.181,20.305-11.89c15.106-1.223,30.181-2.826,45.292-3.967 c19.147-1.446,38.371-2.043,57.465-3.974c44.356-4.486,88.574-10.542,132.997-14.087c39.232-3.13,77.591-11.41,116.453-16.555 c42.145-5.58,84.362-10.605,126.516-16.113c12.569-1.642,25.014-4.213,37.553-6.113c4.435-0.672,8.98-0.636,13.476-0.887 c9.484-0.53,16.697,3.315,21.29,11.595c8.72,15.719,17.492,31.417,25.849,47.33c17.873,34.03,35.386,68.251,53.253,102.284 c18.589,35.411,37.528,70.638,56.107,106.054c10.047,19.151,19.448,38.641,29.52,57.779c16.896,32.103,34.118,64.034,51.154,96.064 c6.884,12.942,13.639,25.953,20.451,38.933c1.142,2.175,1.852,4.765,3.489,6.462c10.898,11.29,7.271,22.329,0.9,34.411 c-37.93,71.936-73.997,144.885-114.624,215.356c-29.24,50.719-55.72,102.797-81.435,155.325 c-14.748,30.127-29.854,60.079-44.801,90.109c-0.913,1.835-1.957,3.614-2.745,5.501c-4.721,11.299-7.9,13.639-19.599,13.312 c-25.78-0.721-51.582-1.133-77.327-2.539c-51.94-2.839-103.849-6.218-155.767-9.449c-33.917-2.11-67.86-3.943-101.727-6.691 c-19.952-1.619-39.79-4.699-59.66-7.275c-28.367-3.677-56.743-7.314-85.064-11.326c-15.365-2.177-30.592-5.324-45.948-7.581 c-7.73-1.136-12.821-4.481-14.954-12.263c-0.612-2.232-2.632-4.079-4.006-6.102 C336.218,1027.081,336.157,1027.122,336.096,1027.163z M889.295,1053.909c1.044-0.242,2.089-0.483,3.132-0.725 c1.121-2.521,2.247-5.039,3.362-7.563c8.423-19.069,16.694-38.207,25.337-57.175c3.553-7.797,8.044-15.16,11.874-22.838 c17.525-35.138,34.317-70.659,52.579-105.41c33.882-64.477,68.698-128.463,102.927-192.758 c12.118-22.763,23.555-45.888,35.528-68.731c3.38-6.448,3.674-12.016-0.682-18.289c-4.185-6.026-7.404-12.745-10.823-19.276 c-19.927-38.063-39.7-76.206-59.698-114.231c-15.42-29.32-31.049-58.531-46.67-87.745c-18.135-33.917-36.379-67.777-54.545-101.678 c-11.784-21.992-23.448-44.05-35.289-66.012c-8.713-16.162-17.623-32.216-27.253-49.792c-3.661,4.752-6.806,8.37-9.432,12.331 c-8.373,12.625-16.934,25.15-24.738,38.126c-24.914,41.423-50.146,82.674-74.109,124.645 c-45.547,79.774-95.68,156.498-149.989,230.549c-8.438,11.506-16.042,23.623-24.152,35.635 c7.763,14.478,14.74,28.265,22.408,41.656c31.467,54.948,63.532,109.53,98.328,162.478c13.886,21.131,27.093,42.731,39.995,64.481 c24.979,42.109,49.224,84.655,74.357,126.67C857.028,1003.813,873.407,1028.714,889.295,1053.909z M74.912,611.042 c9.32,13.08,17.614,24.124,25.286,35.585c37.789,56.453,75.448,112.995,113.088,169.548 c44.446,66.777,88.825,133.599,133.234,200.401c6.747,10.149,13.742,19.754,28.394,14.196c1.05-0.398,2.436,0.044,3.66,0.158 c22.85,2.12,45.75,3.811,68.536,6.475c39.004,4.559,77.846,10.674,116.923,14.385c42.758,4.06,85.7,6.2,128.57,9.051 c26.973,1.793,53.946,3.676,80.946,4.93c28.174,1.308,56.378,1.988,84.575,2.737c4.247,0.113,8.524-0.89,13.722-1.483 c-1.96-3.751-2.913-6.002-4.225-8.019c-8.467-13.027-17.632-25.645-25.411-39.068c-18.469-31.868-36.299-64.107-54.379-96.2 c-27.13-48.157-57.184-94.466-87.323-140.782c-30.137-46.314-58.319-93.906-87.078-141.108 c-8.468-13.899-15.985-28.379-23.897-42.52c-24.074,1.317-46.974,2.728-69.892,3.784c-29.856,1.376-59.735,2.276-89.588,3.73 c-45.462,2.215-90.926,3.096-136.298-1.066c-20.086-1.843-40.047-2.247-60.059-0.06c-22.813,2.494-45.604,5.307-68.629,3.688 c-22.928-1.612-45.814-1.921-68.698,0.933C90.015,611.128,83.52,610.796,74.912,611.042z M67.713,589.043 c0.263,0.867,0.527,1.733,0.79,2.6c14.154,0.29,28.307,0.745,42.462,0.821c12.27,0.066,24.545-0.213,36.814-0.49 c22.089-0.499,44.33,0.314,66.222-2.057c24.108-2.611,48.085-4.109,72.184-2.133c43.34,3.554,86.681,2.984,130.098,1.938 c54.794-1.319,109.614-1.617,164.426-1.932c6.721-0.039,10.734-1.936,13.291-7.934c2.244-5.263,4.381-10.663,7.382-15.496 c17.039-27.445,34.168-54.837,51.564-82.057c18.735-29.316,38.104-58.231,56.617-87.686c13.275-21.121,25.585-42.847,38.345-64.292 c18.189-30.568,36.2-61.245,54.656-91.652c15.045-24.788,30.654-49.233,45.962-73.862c6.765-10.884,13.404-21.846,21.494-35.046 c-8.926,1.173-15.33,1.882-21.689,2.873c-22.249,3.469-44.459,7.194-66.728,10.529c-31.154,4.666-62.36,8.995-93.522,13.611 c-23.077,3.419-46.076,7.385-69.192,10.503c-17.437,2.353-35.102,3.082-52.492,5.692c-60.468,9.071-121.385,12.107-182.367,14.511 c-10.152,0.401-20.299,0.957-29.44,1.394c-7.265,9.328-13.917,17.628-20.311,26.122c-22.887,30.404-46.871,60.066-68.271,91.487 c-42.873,62.953-80.179,129.541-124.104,191.857c-18.655,26.466-38.197,52.156-60.456,75.715 C76.795,578.985,72.287,584.045,67.713,589.043z"/>
    <path fill="#261123" d="M990.964,825.85c-33.857,61.573-67.713,123.146-102.37,186.174c-3.11-1.923-6.536-2.835-7.795-5.004 c-13.29-22.904-26.144-46.059-39.334-69.021c-3.438-5.986-7.794-11.438-11.442-17.312c-21.57-34.73-42.843-69.648-64.718-104.184 c-5.631-8.889-13.996-16.066-19.479-25.025c-10.014-16.363-18.691-33.539-28.153-50.247c-9.082-16.038-18.5-31.885-27.684-47.866 c-14.086-24.511-28.463-48.866-41.977-73.69c-6.229-11.443-11.075-23.698-15.741-35.893c-1.268-3.316-0.8-8.397,0.906-11.575 c12.607-23.475,28.305-44.919,44.485-66.031c14.682-19.156,29.724-38.073,43.549-57.837c15.712-22.462,32.178-44.745,44.751-68.956 c12.422-23.918,27.945-45.883,40.069-69.923c12.164-24.119,26.001-47.4,39.285-70.947c9.866-17.49,19.939-34.864,30.08-52.196 c4.846-8.283,11.581-9.263,17.602-1.836c6.667,8.224,13.022,16.895,18.176,26.119c17.763,31.788,34.978,63.883,52.33,95.9 c10.919,20.145,21.685,40.374,32.575,60.534c3.502,6.482,7.295,12.808,10.75,19.314c2.603,4.9,3.748,9.972-0.234,15.486 c-11.007,0.554-13.096-10.537-21.693-17.109c1.847,7.694,3.26,13.576,5.321,22.161c-23.066-21.593-32.142-48.906-48.675-71.761 c8.117,27.824,16.234,55.649,25.142,86.187c-8.912-10.27-15.912-18.261-19.83-28.69c-5.46-14.532-11.396-28.891-17.398-43.212 c-1.934-4.615-4.722-8.873-8.994-12.495c1.728,17.682,3.456,35.364,5.184,53.046c-0.914,0.188-1.828,0.376-2.742,0.564 c-3.55-12.007-8.102-23.826-10.391-36.069c-2.736-14.631-6.717-28.588-13.289-41.937c-3.035-6.165-5.015-12.849-9.113-19.262 c-0.27,27.455-0.54,54.91-0.811,82.365c-0.37,0.124-0.74,0.247-1.109,0.371c-4.755-15.075-9.51-30.15-14.443-45.788 c-4.301,14.368-8.43,28.163-12.559,41.957c-6.282-32.115,2.814-62.632,4.588-94.057c-5.432,16.08-10.864,32.159-16.295,48.238 c-0.521-0.015-1.041-0.03-1.562-0.044c0.037-7.967,0.074-15.934,0.111-23.901c-0.525-0.088-1.05-0.176-1.575-0.264 c-2.415,6.095-4.83,12.189-7.246,18.283c-0.577-0.155-1.154-0.309-1.73-0.464c0.354-6.289,0.707-12.578,1.229-21.837 c-10.202,15.692-12.677,32.566-25.086,46.076c-0.342-4.968-0.546-7.947-0.944-13.735c-6.628,10.657-11.621,19.43-17.349,27.694 c-6.498,9.375-13.964,18.081-20.446,27.466c-8.096,11.722-16.561,23.343-23.183,35.896c-11.889,22.539-25.173,44.088-40.339,64.53 c-3.83,5.162-7.301,10.59-9.918,16.668c19.768-18.219,39.537-36.439,59.696-55.019c-14.43,37.991-41.061,66.447-68.599,94.501 c9.879-4.294,19.757-8.589,29.794-12.952c-1.406,11.251-4.015,15.377-17.081,25.391c9.873,0.197,17.565,0.351,27.172,0.543 c-14.08,10.468-29.174,14.517-45.269,20.905c29.018,9.572,56.277,18.563,83.537,27.555c-0.063,0.507-0.126,1.014-0.19,1.522 c-16.083-1.13-32.167-2.259-48.25-3.389c-0.27,0.486-0.541,0.972-0.811,1.458c13.122,6.918,26.243,13.836,39.365,20.755 c-0.352,0.867-0.704,1.734-1.056,2.601c-30.096-0.708-55.721-17.364-85.114-23.929c11.729,12.641,23.614,25.143,35.143,37.964 c11.467,12.752,22.576,25.825,35.065,40.161c-13.981-6.181-24.15-15.871-38.643-24.095c2.352,4.375,3.198,6.735,4.684,8.581 c9.238,11.487,18.717,22.78,27.891,34.317c2.608,3.279,4.469,7.152,7.378,11.906c-14.004,2.349-17.346-10.234-26.789-13.977 c2.405,5.247,3.843,10.295,6.712,14.324c14.872,20.886,23.141,44.998,34.057,67.828c3.993,8.351,9.568,16.016,14.956,23.615 c16.052,22.637,32.358,45.093,48.608,67.589c0.877,1.214,2.143,2.146,3.193,3.175c-2.979-23.968-5.914-47.581-8.848-71.195 c0.473-0.137,0.946-0.274,1.419-0.41c9.734,23.434,19.468,46.868,29.202,70.302c0.712-0.132,1.424-0.263,2.137-0.395 c-0.671-4.809-1.182-9.646-2.038-14.421c-4.989-27.815-10.128-55.603-15.043-83.431c-0.954-5.405-1.138-10.946-1.654-16.179 c6.465-1.545,7.137,2.657,7.821,5.371c5.696,22.605,11.631,45.173,16.381,67.983c3.582,17.206,5.501,34.756,8.237,52.141 c0.357,2.265,1.174,4.458,2.369,8.865c3.159-17.88,0.726-34.207,8.867-49.38c4.006,30.918,8.013,61.836,12.02,92.754 c0.822,0.021,1.643,0.041,2.465,0.061c0.318-5.677,1.035-11.364,0.886-17.029c-0.61-23.088,1.576-45.778,10.471-67.941 c0.113,9.64,0.226,19.281,0.339,28.921c0.696,0.263,1.392,0.527,2.088,0.791c3.113-7.338,6.226-14.676,9.339-22.015 c0.552,0.144,1.104,0.288,1.655,0.432c-1.005,9.792-2.01,19.583-3.014,29.375c0.771,0.323,1.542,0.646,2.313,0.969 c5.808-10.434,11.343-21.033,17.499-31.257c6.104-10.137,12.835-19.896,19.918-29.628c-8.046,32.439-22.426,62.718-33.077,94.514 c21.965-33.869,39.948-70.452,69.881-98.448C989.341,825.143,990.153,825.496,990.964,825.85z"/>
    <path fill="#261123" d="M864.345,635.901c-4.404,7.58-7.378,13.331-10.967,18.668c-2.712,4.034-5.945,7.81-9.428,11.208 c-3.845,3.753-8.469,4.508-14.371,0.918c2.76-16.8,9.746-32.247,17.601-47.936c-10.412-11.61-20.859-23.002-31.02-34.644 c-16.37-18.758-32.621-37.622-48.766-56.575c-4.299-5.047-3.308-16.757,1.277-22.059c1.791-2.071,3.404-4.294,5.465-6.914 c16.216,1.187,24.637,14.044,34.059,24.817c16.114,18.426,31.447,37.535,47.188,56.289c2.06,2.455,4.598,4.511,8.033,7.834 c3.958-6.845,8.043-12.812,11.035-19.283c10.625-22.983,20.791-46.179,31.35-69.193c1.966-4.286,4.942-8.108,7.293-11.889 c14.136,2.046,19.627,6.315,21.982,19.141c4.575,24.913,8.444,49.955,12.623,74.94c5.058,30.242,10.459,60.433,15.04,90.748 c1.826,12.086,1.928,24.438,2.68,36.678c0.392,6.384-0.375,12.483-7.36,15.248c-4.635,1.835-16.208-2.407-19.713-7.093 c-3.164-4.23-5.626-9.069-9.19-12.902c-13.066-14.051-26.47-27.785-39.73-41.655C881.56,654.016,873.726,645.756,864.345,635.901z M881.174,607.739c17.683,19.509,35.38,39.033,53.076,58.556c0.591-0.403,1.181-0.806,1.772-1.209 c-6.81-39.982-13.619-79.964-20.429-119.945c-0.861-0.082-1.721-0.164-2.582-0.246c-9.18,17.645-18.388,35.275-27.515,52.948 C884.018,600.707,882.9,603.758,881.174,607.739z"/>
    <path fill="#261123" d="M1010.992,748.279c9.827-46.35,36.527-84.978,56.068-126.989c-21.032,18.292-41.012,37.547-64.646,52.547 c17.102-26.992,41.522-47.551,62.107-72.355c-7.188,2.266-14.284,4.911-21.591,6.693c-7.338,1.79-14.811,5.506-24.044-0.118 c14.676-15.352,34.65-20.841,52.296-31.908c-8.307-3.166-16.048-6.116-23.79-9.066c0.121-0.838,0.241-1.676,0.362-2.515 c2.918-0.308,5.837-0.616,10.039-1.06c-5.148-8.823-13.603-12.508-19.656-18.608c-6.206-6.254-13.892-11.401-14.684-21.345 c5.062-2.624,7.019,1.394,9.705,3.53c12.78,10.164,25.546,20.346,39.78,28.913c-7.995-7.974-16.376-15.601-23.909-23.99 c-19.408-21.614-38.588-43.438-57.514-65.474c-4.341-5.055-9.284-10.36-9.312-20.56c27.565,29.144,53.587,56.657,79.608,84.169 c0.511-0.26,1.022-0.521,1.533-0.781c-6.047-11.4-12.192-22.749-18.113-34.213c-6.152-11.912-13.239-23.517-17.791-36.03 c-4.387-12.061-14.759-22.214-13.648-39.456c4.818,3.379,8.241,4.746,10.091,7.268c5.788,7.886,11.57,15.885,16.279,24.431 c8.681,15.754,16.885,31.788,24.759,47.963c9.868,20.271,22.177,39.037,34.541,57.78c8.249,12.504,8.994,24.889,1.292,37.97 c-11.836,20.102-23.355,40.392-34.972,60.623c-12.028,20.947-23.876,42-36.078,62.844 C1023.791,728.643,1017.249,738.378,1010.992,748.279z"/>
    <path fill="#261123" d="M701.527,853.353c-31.247-47.757-62.494-95.513-95.417-145.83c8.869,37.743,24.417,70.591,32.359,106.98 c-17.559-23.149-27.694-48.567-36.468-74.444c-8.643-25.489-15.887-51.453-23.812-77.428c-3.356,3.106-7.14,5.898-10.024,9.424 c-6.007,7.344-14.851,6.74-22.636,7.697c-3.238,0.398-6.728-0.699-10.167,1.149c-1.572,0.845-5.078,1.242-5.55,0.489 c-4.33-6.908-8.777-2.457-13.508-0.796c-7.862,2.759-15.803,8.27-24.115,1.114c-1.706-1.469-2.963-3.46-4.338-5.103 c-17.016,0.016-34.254,0.032-52.137,0.048c1.29-9.874,10.858-9.7,16.139-15.846c-3.371-0.162-5.984-0.327-8.6-0.406 c-15.53-0.471-31.06-0.922-46.591-1.378c-0.82-0.024-1.964,0.325-2.412-0.09c-11.406-10.547-25.351-6.043-38.123-5.638 c-29.004,0.92-57.959,3.351-86.945,4.975c-9.369,0.525-18.772,0.452-29.429,0.68c8.44,11.156,26.358,6.755,31.853,22.126 c-7.417,1.384-14.433,2.694-21.45,4.003c-0.101,0.687-0.202,1.374-0.304,2.062c7.093,1.706,14.185,3.411,21.278,5.117 c-30.548,4.284-60.094,2.299-88.566-11.077c8.206,5.75,16.353,11.586,24.634,17.226c8.684,5.914,18.1,10.904,23.83,21.359 c-7.289-2.007-14.578-4.014-23.855-6.568c25.708,28.116,50.315,55.027,75.831,82.932c-9.649-2.698-20.171-9.218-32.277-19.918 c-9.204-8.135-18.283-16.418-27.232-24.833c-9.105-8.561-17.983-17.363-28.16-25.083c9.735,18.151,22.202,34.333,34.009,50.909 c11.992,16.836,25.155,32.841,37.071,49.727c12.033,17.052,23.411,34.583,34.623,52.193c11.203,17.594,21.846,35.544,32.734,53.338 c0.735-0.393,1.47-0.786,2.205-1.179c-8.36-18.623-17.862-36.836-24.759-55.986c-6.844-19.004-11.066-38.954-15.403-58.971 c8.756,3.766,12.575,11.595,16.151,18.885c17.47,35.621,34.407,71.505,51.477,107.322c1.991,4.178,3.636,8.521,7.256,12.419 c3.028-35.727,6.056-71.454,9.143-107.869c17.682,42.743,15.867,86.288,8.466,130.253c0.791,0.27,1.582,0.54,2.372,0.81 c5.426-8.198,10.852-16.395,17.513-26.458c2.331,5.345,4.622,8.485,4.929,11.808c0.434,4.695,1.464,8.091,5.231,11.564 c5.915,5.454-1.947,9.09-3.571,14.55c16.446-0.996,32.719-5.232,49.104,1.674c-1.819,1.649-3.669,3.325-6.577,5.96 c17.828,3.602,34.701,7.01,54.356,10.981c-6.732,1.412-10.981,2.303-15.23,3.194c0.002,0.716,0.004,1.433,0.007,2.149 c15.683,2.054,31.373,4.059,47.048,6.177c12.577,1.7,25.175,3.304,37.676,5.458c3.616,0.623,6.929,3.002,10.291,4.535 c-2.446,7.945-7.397,7.252-12.414,6.771c-42.41-4.061-84.821-8.123-127.241-12.071c-23.231-2.162-46.475-4.201-69.73-6.096 c-8.675-0.707-14.428-5.828-18.805-12.39c-10.445-15.659-20.396-31.648-30.557-47.498c-20.746-32.361-40.901-65.124-62.456-96.937 c-14.675-21.658-31.533-41.823-47.002-62.958c-11.826-16.158-24.056-32.169-34.204-49.368 c-12.584-21.328-28.739-39.701-44.031-58.854c-7.388-9.253-14.828-18.508-21.498-28.272c-4.29-6.281-7.501-13.364-10.653-20.333 c-1.779-3.934,2.49-9.404,8.063-10.235c3.995-0.595,8.273-0.666,12.227,0.079c17.987,3.384,35.948,0.051,53.91,0.269 c40.95,0.498,81.901,1.034,122.844,1.911c21.676,0.464,43.398,0.92,64.986,2.724c32.102,2.682,63.593-0.796,95.368-4.964 c31.987-4.196,64.403-5.119,96.631-7.472c10.934-0.798,17.45,3.591,22.976,13.845c16.307,30.26,34.985,59.243,51.251,89.524 c20.151,37.511,38.856,75.802,58.051,113.823c1.78,3.527,2.591,7.542,3.852,11.331 C702.527,852.831,702.027,853.092,701.527,853.353z"/>
    <path fill="#261123" d="M568.649,696.12c1.596,6.443,2.868,11.292,3.988,16.177c1.217,5.305-1.328,8.691-4.764,12.831 c-19.82,23.883-39.931,47.618-58.172,72.693c-17.316,23.804-30.268,50.319-38.854,78.624c-2.837,9.353-2.85,19.046-0.854,29.029 c2.682,13.414,19.151,26.205,35.445,23.475c17.018-2.851,32.02-10.441,44.311-22.303c8.47-8.175,15.535-17.827,23.043-26.97 c5.99-7.294,12.109-14.177,22.512-14.649c6.453,6.204,5.724,13.048,3.182,20.476c-6.185,18.079-18.613,31.619-32.294,44.019 c-12.825,11.625-27.383,20.746-44.075,26.064c-17.348,5.529-34.695,7.257-50.816-3.006c-6.031-3.839-11.455-9.367-15.673-15.196 c-21.804-30.13-19.916-61.21-4.428-93.688c13.085-27.439,29.679-52.477,47.388-76.912c5.99-8.265,12.991-15.795,19.457-23.721 c1.718-2.106,3.165-4.433,5.932-8.352c-14.817,2.074-27.655,4.098-40.552,5.633c-41.799,4.974-83.619,9.768-125.432,14.625 c-1.221,0.142-2.449,0.227-3.676,0.304c-14.725,0.918-28.339-0.22-32.621-18.609c10.115-13.596,26.259-13.609,41.476-15.279 c27.446-3.011,54.994-5.102,82.437-8.136c22.663-2.506,45.25-5.721,67.844-8.816c10.484-1.436,20.896-3.392,31.359-4.999 C552.034,698.328,559.284,697.415,568.649,696.12z"/>
    <path fill="#261123" d="M730.307,1017.867c-13.253-5.224-26.664-10.089-39.698-15.813c-7.439-3.267-14.322-7.833-21.34-12.008 c-3.709-2.206-6.675-5.026-3.21-11.614c4.521,1.069,9.578,1.862,14.363,3.465c27.032,9.055,53.999,18.304,81.484,26.627 c-30.546-24.847-67.609-41.871-91.158-79.156c29.275,10.82,50.671,29.924,76.549,42.326c-8.083-13.21-16.167-26.42-24.25-39.63 c0.555-0.408,1.109-0.816,1.664-1.223c20.448,22.03,40.896,44.059,61.345,66.089c-24.937-39.524-46.039-80.7-63.518-123.776 c12.294,6.756,18.797,18.243,25.59,29.087c14.556,23.239,27.935,47.212,42.247,70.608c11.956,19.544,24.626,38.65,36.806,58.06 c2.301,3.667,3.784,7.847,6.532,13.671c-5.383,1.427-9.5,3.706-13.344,3.313c-10.938-1.12-21.771-3.295-32.633-5.127 c-4.005-0.676-8.149-2.713-11.934-2.148c-21.095,3.145-41.62-1.655-62.35-3.649c-23.988-2.308-47.99-4.47-71.982-6.74 c-4.887-0.462-9.964-0.465-14.556-1.928c-2.998-0.955-6.831-3.749-7.549-6.449c-1.408-5.289,3.971-6.265,7.648-7.67 c1.858-0.71,4.033-0.594,6.067-0.838c29.955-3.589,59.56-1.835,88.808,5.703c2.569,0.662,5.27,0.811,7.91,1.198 C729.966,1019.454,730.136,1018.661,730.307,1017.867z"/>
    <path fill="#261123" d="M252.101,530.804c-14.881,6.126-29.762,12.253-46.212,19.025c1.479-3.024,2.1-4.293,3.59-7.338 c-6.655,2.813-11.954,5.053-20.135,8.512c5.865,1.686,8.761,2.518,12.422,3.571c-1.943,2.07-3.696,3.938-7.055,7.517 c19.499,0.439,37.299,0.839,55.256,1.243c0.568-3.588,0.31-6.9,1.749-9.106c0.793-1.217,4.45-0.856,6.79-0.732 c33.072,1.757,66.139,3.595,99.393,5.424c1.363-3.535,1.603-6.626,3.097-7.453c2.275-1.26,5.449-1.416,8.187-1.232 c13.892,0.934,27.75,2.497,41.652,3.159c32.7,1.558,65.418,2.745,98.13,4.022c2.271,0.089,4.561-0.309,6.899-2.681 c-14.177-2.591-28.367-5.116-42.528-7.79c-17.681-3.337-35.425-6.414-52.967-10.38c-7.718-1.745-15.002-5.407-22.102-9.593 c60.207,1.922,119.147,12.4,176.774,22.698c16.572-28.363,31.958-55.759,48.414-82.498c11.569-18.799,24.678-36.645,36.9-55.049 c2.655-3.998,5.116-8.355,6.544-12.898c7.673-24.413,18.714-47.151,33.463-68.016c3.691-5.222,8.643-9.552,14.584-15.992 c0.223,9.664-0.874,16.543-3.967,23.11c-5.237,11.116-10.553,22.196-15.692,33.356c-1.145,2.487-3.234,6.397-2.267,7.688 c5.252,7.009,0.705,12.886-2.114,18.14c-14.895,27.762-29.33,55.859-45.935,82.591c-16.81,27.063-35.998,52.648-54.074,78.928 c-6.02,8.752-13.77,13.044-24.795,12.652c-40.12-1.428-80.255-2.498-120.392-3.351c-12.637-0.269-25.296,0.745-37.948,0.86 c-23.718,0.217-47.44,0.046-71.155,0.395c-6.437,0.094-13.231,0.386-19.213,2.459c-17.394,6.026-35.24,6.673-53.321,6.716 c-36.042,0.086-72.084,0.445-108.125,0.826c-11.429,0.121-22.853,0.668-34.279,1.03c-6.027,0.19-10.491-3.862-10.39-10.835 c0.056-3.846,1.569-7.958,3.389-11.448c16.701-32.031,37.263-61.63,59.408-89.994c26.674-34.165,54.624-67.335,82.06-100.905 c0.447-0.547,1.376-0.7,2.867-1.414c-19.073,37.966-42.052,72.839-64.616,107.951c0.642,0.525,1.284,1.049,1.926,1.573 c18.606-16.234,37.211-32.468,55.817-48.702c-17.51,29.053-38.119,55.698-60.114,82.231c5.794-2.908,11.65-5.701,17.367-8.755 c6.496-3.47,13.016-6.935,19.249-10.843c5.845-3.665,11.329-7.906,17.224-11.578c-20.834,23.282-44.489,43.255-70.469,60.788 c17.393-5.388,34.785-10.776,52.178-16.164c0.381,0.557,0.763,1.114,1.144,1.671c-3.657,3.86-7.314,7.72-12.84,13.553 c13.529-3.378,24.583-6.139,35.638-8.899C251.708,529.5,251.904,530.152,252.101,530.804z"/>
    <path fill="#261123" d="M464.869,465.802c-1.821-2.535-3.346-5.349-5.498-7.549c-45.329-46.335-14.33-106.53,22.466-125.357 c12.908-6.604,26.745-10.838,41.102-11.316c17.622-0.587,33.505,6.687,44.761,19.517c16.447,18.747,26.914,40.355,23.775,66.992 c-2.441,20.72-11.488,37.78-26.894,50.414c-34.499,28.29-74.232,40.581-118.919,33.162c-24.807-4.119-46.8-15.106-65.164-31.986 c-18.303-16.823-36.41-34.044-45.436-58.487c-5.911-16.008-7.527-31.549-1.761-47.855c6.876-19.444,17.025-36.408,35.158-47.187 c4.73-2.812,10.623-4.024,16.153-4.956c2.168-0.365,6.323,1.582,6.87,3.325c0.791,2.518,0.033,6.554-1.667,8.632 c-5.406,6.611-12.372,12.046-17.21,18.996c-6.234,8.957-11.684,18.624-16.225,28.555c-6.737,14.733-3.978,29.281,5.507,41.733 c24.447,32.095,54.748,55.993,95.305,64.486c1.584,0.332,3.221,0.566,4.831,0.553C462.707,467.47,463.385,466.71,464.869,465.802z M504.676,463.562c18.138-4.795,33.431-14.37,46.699-27.567c27.344-27.199,21.669-71.519-18.028-84.728 c-7.763-2.583-15.122-2.687-22.65,0.629c-19.327,8.512-32.106,22.537-39.417,42.592c-5.349,14.673-2.901,26.347,8.431,36.383 c9.469,8.385,19.172,16.451,22.202,29.645C502.143,461.52,503.466,462.272,504.676,463.562z"/>
    <path fill="#261123" d="M608.638,194.467c23.783-5.577,47.418-11.926,71.383-16.567c46.572-9.019,93.32-17.132,140.024-25.457 c4.755-0.848,9.814-1.328,14.542-0.654c5.892,0.839,7.675,6.395,3.918,11.004c-18.333,22.491-31.513,48.461-48.707,71.749 c-14.09,19.084-27.052,38.999-40.663,58.441c-2.559,3.655-5.523,7.167-8.895,10.049c-1.469,1.254-5.724,1.762-6.457,0.832 c-1.468-1.862-2.557-5.432-1.732-7.448c3.55-8.674,7.151-17.468,12.015-25.437c12.557-20.571,25.793-40.727,39.566-62.316 c-3.051,1.416-5.778,2.296-8.087,3.814c-17.446,11.464-34.456,23.64-52.325,34.393c-11.496,6.918-24.169,11.905-36.428,17.51 c-2.441,1.116-5.395,1.109-9.165-0.312c24.285-18.233,48.57-36.466,72.854-54.7c-0.251-0.78-0.502-1.561-0.754-2.341 c-24.538,4.513-48.785,12.321-76.818,8.055c20.606-7.461,38.834-14.06,57.062-20.659c-40.308,3.119-80.558,4.11-120.842,3.229 C608.965,196.59,608.802,195.528,608.638,194.467z"/>
    <path fill="#261123" d="M427.009,227.093c14.554,11.926,34.659,14.519,44.826,31.309c-0.469,1.034-0.938,2.068-1.407,3.102 c-4.844-1.278-9.955-1.948-14.482-3.944c-15.722-6.932-31.226-14.358-46.855-21.504c-2.116-0.968-4.472-1.411-8.427-2.619 c4.232,5.44,7.34,9.436,12.188,15.669c-7.031-2.928-11.413-4.752-14.811-6.167c-3.625,4.04-6.646,7.407-9.666,10.774 c-2.614-2.601-5.228-5.202-7.775-7.736c-1.436,4.81-2.973,9.96-4.709,15.773c-4.016-1.316-6.895-2.259-9.992-3.274 c-3.288,5.115-1.576,15.756-12.656,11.513c-6.962,15.851-13.641,31.149-20.482,46.373c-0.35,0.779-2.093,0.931-3.856,1.647 c-8.016-9.745-0.011-19.39-0.075-30.402c-3.421,3.965-6.103,7.074-10.219,11.845c1.858-6.519,3.116-10.929,4.373-15.339 c-0.483-0.33-0.965-0.659-1.448-0.989c-2.802,3.303-5.651,6.569-8.398,9.917c-9.843,11.998-19.87,23.855-29.351,36.134 c-3.229,4.182-5.951,5.051-11.25,1.265c4.041-7.879,7.63-16.091,12.249-23.677c21.135-34.714,45.612-66.924,74.078-95.965 c3.426-3.496,8.776-6.677,13.479-7.07c17.871-1.493,35.84-2.271,53.779-2.412c32.727-0.258,65.46,0.066,98.189,0.314 c4.639,0.035,9.271,1.008,13.884,1.544c0.124,7.224-3.841,8.274-8.065,8.609c-11.001,0.872-22.01,1.694-33.03,2.242 c-10.146,0.504-20.31,0.625-30.611,1.953c20.364,7.13,42.323,6.713,63.919,12.939c-3.579,6.404-8.725,5.525-13.2,5.213 c-26.926-1.879-53.837-3.971-80.75-6.023C433.3,227.868,430.158,227.436,427.009,227.093z"/>
    <path fill="#261123" d="M669.307,309.391c4.676,8.929,6.235,17.8,1.221,26.074c-14.246,23.512-23.946,49.017-33.753,74.485 c-9.531,24.754-23.655,47.108-36.317,70.214c-8.793,16.046-18.375,31.66-27.634,47.45c-1.033,1.762-2.104,3.546-3.431,5.082 c-3.666,4.244-10.523,6.146-14.272,3.661c-4.761-3.156-5.699-7.861-3.65-12.977c2.125-5.306,4.406-10.576,7.019-15.656 c17.186-33.427,34.873-66.605,51.56-100.278c7.425-14.983,12.547-31.09,19.376-46.391c6.326-14.174,13.76-27.849,20.27-41.946 C653.775,310.277,661.512,310.613,669.307,309.391z"/>
  </g>
</svg>