<?xml version="1.0" encoding="utf-8"?>
<svg version="1.1" id="Layer_1" x="0px" y="0px" viewBox="0 0 1200 1200" enable-background="new 0 0 1200 1200" xmlns="http://www.w3.org/2000/svg">
  <path style="stroke: rgb(0, 0, 0); fill: rgb(255, 255, 255);" d="M 74.641 156.938 L 953.11 66.986 L 1129.187 1006.699 L 187.56 1127.273 L 74.641 156.938 Z"/>
  <g>
    <g>
      <g>
        <path fill="#9D442C" d="M328.287,837.573c0.628,0,0.629-0.976,0-0.976C327.659,836.597,327.658,837.573,328.287,837.573 L328.287,837.573z"/>
      </g>
    </g>
    <path fill="#261123" d="M1150,1012.81c-8.678,3.626-15.94,7.735-23.743,9.742c-46.374,11.932-93.677,18.086-141.27,22.885 c-39.157,3.949-78.162,9.488-117.178,14.742c-62.928,8.475-126.078,15.713-188.649,26.331 c-100.441,17.045-202.037,26.605-301.842,47.859c-24.871,5.296-50.858,5.431-76.353,7.687c-23.038,2.039-46.092,3.958-69.168,5.504 c-14.634,0.98-29.149,2.436-43.4-4.436c-12.375-5.967-16.025-10.436-17.717-23.632c-3.313-25.83-7.247-51.598-11.665-77.265 c-7.766-45.118-16.529-90.066-24.012-135.229c-4.502-27.169-7.584-54.582-10.926-81.932c-3.821-31.265-7.742-62.532-10.686-93.886 c-4.595-48.945-7.788-98.025-12.687-146.937c-7.986-79.731-11.905-159.86-24.342-239.168c-5.408-34.484-8.577-69.322-12.663-104.01 c-3.561-30.229-6.975-60.476-10.486-90.711c-0.222-1.909-0.771-3.778-1.088-5.679c-0.677-4.046-3.266-9.655-1.543-11.832 c3.691-4.667,9.326-10.087,14.689-10.714c16.048-1.877,32.359-2.265,48.547-2.003c26.566,0.43,53.112,2.52,79.673,2.676 c56.112,0.33,112.25,0.728,168.336-0.631c29.463-0.714,58.809-5.471,88.263-7.672c25.009-1.869,50.317-1.029,75.102-4.322 c50.669-6.733,101.628-10.889,151.849-21.874c47.985-10.496,96.433-19.409,145.771-22.864c31.339-2.194,62.391-8.372,93.604-12.526 c13.239-1.761,26.742-2.65,39.152,3.326c11.216,5.402,21.24,12.088,23.996,26.152c6.988,35.663,15.636,71.021,21.88,106.805 c8.527,48.863,16.084,97.919,22.867,147.056c6.72,48.678,11.834,97.577,17.898,146.348c4.794,38.552,10.461,77.001,14.839,115.598 c5.725,50.474,15.689,100.049,27.596,149.4c7.72,32,11.308,64.993,18.942,97.018c8.646,36.271,20.008,71.887,29.626,107.938 c3.013,11.295,4.028,23.11,6.336,34.612c0.74,3.687,2.654,7.147,4.11,10.679C1145.467,1002.232,1147.358,1006.588,1150,1012.81z M815.31,634.459c-17.146-11.058-33.111-21.589-49.307-31.753c-39.619-24.863-79.386-49.489-119.014-74.338 c-30.032-18.832-60.265-37.371-89.826-56.921c-44.332-29.319-87.896-59.801-132.28-89.04 c-30.819-20.303-62.412-39.438-93.758-58.936c-47.226-29.376-93.782-59.939-142.078-87.443 c-32.167-18.32-63.269-37.984-93.765-58.797c-2.553-1.742-5.436-2.999-9.212-5.048c0.759,6.135,1.192,10.537,1.862,14.902 c3.937,25.623,8.612,51.155,11.75,76.874c5.411,44.354,10.296,88.783,14.626,133.255c4.517,46.4,8.39,92.868,12.03,139.347 c2.842,36.287,4.3,72.687,7.448,108.944c4.42,50.91,9.153,101.813,15.027,152.572c5.354,46.264,11.489,92.48,18.957,138.444 c8.201,50.472,18.034,100.688,27.833,150.882c2.077,10.641,7.078,20.711,11.541,33.33c27.795-19.397,54.498-36.205,79.12-55.647 c35.941-28.379,70.135-58.957,105.541-88.028c35.793-29.388,71.836-58.492,108.339-86.991 c65.211-50.912,130.81-101.329,196.326-151.85C737.469,706.605,777.038,673.372,815.31,634.459z M823.768,606.549 c5.826-23.864,11.429-45.579,16.362-67.445c3.345-14.826,5.322-29.961,8.668-44.786c5.634-24.96,12.249-49.7,17.701-74.697 c3.015-13.821,4.059-28.061,6.781-41.958c4.622-23.588,9.629-47.107,14.927-70.553c4.226-18.7,10.321-37.048,13.479-55.905 c6.843-40.861,16.031-81.06,28.833-120.464c5.258-16.182,9.906-32.562,15.37-50.636c-7.083-0.116-11.883-0.732-16.547-0.186 c-44.34,5.193-88.763,9.836-132.946,16.154c-35.007,5.006-69.88,11.325-104.495,18.578c-27.842,5.834-55.235,13.373-83.787,15.875 c-34.739,3.045-69.318,7.878-104.022,11.391c-30.298,3.068-60.655,5.613-91.02,7.948c-24.001,1.846-48.037,3.42-72.087,4.392 c-27.005,1.091-54.039,1.522-81.066,1.962c-34.348,0.558-68.7,0.911-103.051,1.191c-10.758,0.088-21.521-0.346-32.282-0.541 c19.298,15.285,38.666,28.293,58.454,40.626c22.49,14.017,45.491,27.212,68.017,41.173c19.153,11.871,38.043,24.175,56.868,36.562 c15.966,10.506,31.406,21.827,47.557,32.031c23.616,14.92,47.975,28.674,71.434,43.827c25.94,16.756,51.033,34.818,76.835,51.794 c46.296,30.46,92.731,60.711,139.328,90.709c35.856,23.083,71.976,45.758,108.116,68.394 C774.482,576.57,798.016,590.756,823.768,606.549z M272.415,1113.43c5.311,0.655,7.217,1.223,9.061,1.068 c27.932-2.35,56.038-3.525,83.74-7.501c46.23-6.637,92.148-15.421,138.295-22.675c55.867-8.783,111.795-17.201,167.772-25.247 c52.567-7.556,105.207-14.633,157.867-21.518c35.621-4.658,71.377-8.29,106.988-13.012c21.92-2.907,43.685-6.991,65.515-10.571 c30.068-4.931,60.143-9.812,90.183-14.91c4.152-0.704,8.114-2.524,12.355-3.889c-81.761-118.571-167.028-232.741-263.08-339.191 c-5.255,4.05-9.249,6.886-12.976,10.037c-46.546,39.353-92.445,79.502-139.766,117.9c-36.998,30.021-75.859,57.737-113.681,86.752 c-30.048,23.051-59.795,46.493-89.639,69.809c-26.326,20.568-53.085,40.617-78.779,61.947 c-35.172,29.198-69.416,59.512-104.292,89.072C293.451,1098.728,284.014,1104.881,272.415,1113.43z M960.631,117.074 c-0.806,0.004-1.612,0.008-2.418,0.013c-0.795,1.591-1.92,3.101-2.337,4.785c-7.818,31.521-15.584,63.056-23.294,94.603 c-9.583,39.207-19.786,78.28-28.451,117.689c-7.72,35.113-13.305,70.689-20.554,105.913 c-12.873,62.546-30.854,124.161-33.268,188.968c91.857,95.193,168.485,203.659,250.206,308.39 c0.454-4.207-0.319-7.792-1.222-11.344c-9.446-37.177-19.286-74.259-28.232-111.555c-5.274-21.989-9.272-44.291-13.609-66.498 c-7.445-38.128-16.266-76.071-21.708-114.488c-10.353-73.083-17.794-146.578-28.173-219.656 c-11.902-83.806-25.625-167.354-38.699-250.992C966.474,147.571,963.395,132.347,960.631,117.074z"/>
    <path fill="#261123" d="M581.771,642.64c38.972-1.829,77.945-3.657,116.917-5.486c-0.028-0.745-0.056-1.491-0.084-2.236 c-34.383-3.8-68.918-6.582-103.106-11.686c-34.02-5.079-67.692-12.49-101.359-20.173c50.271-8.364,99.874-0.463,150.24,3.821 c-9.169-5.352-18.347-10.69-27.506-16.059c-41.143-24.121-82.615-47.705-123.247-72.657c-15.381-9.445-30.128-20.584-40.856-35.789 c-1.025-1.453-1.567-3.247-0.723-7.061c20.886,10.543,41.773,21.086,62.659,31.628c0.455-0.529,0.91-1.058,1.366-1.586 c-4.223-3.273-8.592-6.376-12.645-9.848c-18.28-15.657-36.585-31.287-54.606-47.237c-4.211-3.727-9.399-7.983-4.177-16.772 c5.978,2.237,12.78,3.656,18.371,7.062c31.054,18.919,61.938,38.127,92.639,57.614c26.959,17.112,53.817,34.403,80.329,52.196 c31.379,21.059,62.461,42.569,93.413,64.253c10.326,7.234,21.682,13.86,26.154,26.916c0.766,2.237,1.116,4.617,2.083,8.75 c-58.137,45.809-116.329,91.931-174.847,137.636c-22.115,17.272-44.876,33.726-67.577,50.231 c-6.33,4.602-13.281,8.531-20.408,11.746c-2.166,0.977-5.877-1.473-8.88-2.353c0.926-2.526,1.11-5.914,2.891-7.445 c18.66-16.046,37.304-32.133,56.479-47.553c38.733-31.147,77.8-61.878,116.702-92.814c2.489-1.979,4.745-4.25,5.808-8.44 c-15.387,7.121-31.022,13.753-46.112,21.457c-38.912,19.865-77.576,40.215-116.354,60.343c-5.564,2.888-11.134,6.329-17.734,2.482 c3.199-8.769,22.354-23.497,57.374-43.879c21.047-12.249,42.388-23.991,63.111-38.018c-10.061-0.371-20.122-0.742-31.426-1.159 c21.177-16.399,45.648-22.374,71.116-32.016c-23.764-5.212-45.352-9.947-66.94-14.682 C581.147,643.429,581.459,643.035,581.771,642.64z M692.648,674.265c-0.777-0.894-1.554-1.788-2.331-2.682 c-3.648,3.217-7.295,6.434-10.942,9.651c0.621,0.698,1.243,1.397,1.864,2.095C685.042,680.308,688.845,677.286,692.648,674.265z"/>
    <path fill="#261123" d="M323.784,892.232c-0.942,26.86-14.966,49.242-22.963,74.504c27.161-31.058,54.322-62.115,81.483-93.173 c0.939,0.722,1.879,1.445,2.819,2.167c-20.134,43.382-53.545,77.616-81.825,115.834c39.87-29.576,80.307-57.898,124.026-81.3 c-10.551,17.615-26.235,30.09-41.177,43.327c-41.599,36.851-83.076,73.841-124.596,110.781c-5.148,4.58-9.816,9.89-15.531,13.59 c-5.464,3.537-12.002,5.415-19.341,8.569c-6.76-14.354-10.579-27.347-11.931-41.029c-3.821-38.65-7.503-77.314-11.135-115.983 c-2.947-31.376-5.85-62.758-8.582-94.153c-4.788-55.009-5.888-110.041-1.389-165.154c1.11-13.595,0.63-27.32,1.85-41.083 c19.928,110.001,34.419,220.668,42.5,332.513c3.145-14.34,6.29-28.68,9.436-43.02c3.225-14.701,6.449-29.403,9.674-44.104 c0.675-0.065,1.351-0.131,2.026-0.196c1.263,18.37,2.526,36.74,3.789,55.111c0.568,0.212,1.135,0.424,1.703,0.636 c6.901-21.42,13.801-42.839,21.261-65.994c3.246,22.941-2.154,43.885-2.46,65.329c6.192-7.783,12.384-15.565,19.869-24.974 c1.557,4.124,2.358,6.245,3.634,9.627C313.105,906.055,318.445,899.143,323.784,892.232z"/>
    <path fill="#261123" d="M199.072,309.608c0.991,3.255,1.193,7.109,3.122,9.652c5.642,7.437,12.29,14.114,17.905,21.569 c2.922,3.879,4.5,8.772,7.485,14.831c-15.15,0.511-18.487-13.866-31.281-16.606c7.623,15.451,20.293,25.472,28.6,38.281 c-0.745,0.692-1.491,1.383-2.237,2.074c-3.494-2.109-6.988-4.218-12.06-7.28c4.68,15.198,16.332,25.447,19.666,42.406 c-19.292-10.166-25.329-29.457-40.423-40.143c21.293,41.638,43.127,82.884,66.428,123.798 c-11.767-14.75-24.053-29.122-35.154-44.357c-10.982-15.072-20.767-31.015-32.27-46.332c1.696,19.312,12.112,37.19,10.869,56.959 c-2.109-0.463-3.468-0.761-6.051-1.327c6.413,23.87,12.663,47.138,18.914,70.406c-1.07,0.338-2.14,0.675-3.21,1.013 c-22.001-40.346-33.892-84.816-52.223-127.177c1.257,7.481,2.116,15.055,3.844,22.426c5.619,23.965,12.785,47.638,17.05,71.83 c4.946,28.059,7.646,56.525,10.848,84.868c0.62,5.486-0.938,11.218-1.579,17.725c-7.378-2.288-6.927-7.286-7.664-11.257 c-10.683-57.565-20.754-115.249-32.065-172.689c-6.363-32.314-15.103-64.154-22.033-96.366 c-3.189-14.823-4.491-30.045-6.869-45.051c-1.385-8.74-3.19-17.413-4.832-26.112c-1.53-8.107-3.092-16.208-4.472-23.434 c6.891-6.51,11.82-3.434,16.99,0.044c21.215,14.275,42.413,28.581,63.817,42.57c70.369,45.988,140.842,91.817,211.207,137.81 c4.205,2.748,7.816,6.405,11.434,9.414c-4.218,7.869-8.777,6.447-13.451,3.979c-19.126-10.101-38.784-19.334-57.221-30.568 c-28.156-17.155-55.215-36.104-83.223-53.514c-18.288-11.368-37.43-21.359-56.19-31.967 C201.517,307.924,200.294,308.766,199.072,309.608z"/>
    <path fill="#261123" d="M416.646,549.771c2.923,3.654,6.698,7.379,9.266,11.806c4.238,7.305,2.42,14.516-1.438,21.695 c-17.696,32.926-35.643,65.73-52.603,99.035c-12.267,24.09-23.171,48.875-34.557,73.409c-1.399,3.015-2.016,6.392-3.812,12.277 c20.676-10.224,39.164-19.367,57.531-28.449c1.767,1.434,2.906,2.312,3.996,3.248c10.862,9.336,11.069,20.492,0.029,29.102 c-5.404,4.214-11.488,7.602-17.44,11.063c-19.505,11.341-39.153,22.437-58.624,33.836c-14.147,8.282-18.519,7.487-29.331-3.579 c-5.168-5.29-4.703-10.678-2.813-16.291c6.424-19.081,12.733-38.229,20.033-56.982c20.391-52.386,49.018-100.709,74.973-150.348 c2.043-3.907,3.63-8.051,5.665-11.963C393.685,565.773,399.824,553.839,416.646,549.771z"/>
    <path fill="#261123" d="M630.367,439.471c20.412,4.157,40.21,9.809,57.529,21.789c16.873,11.672,34,22.978,53.493,36.114 c-13.196-18.261-24.696-34.176-36.196-50.09c0.656-0.561,1.312-1.122,1.969-1.683c8.435,8.327,16.871,16.654,25.306,24.981 c0.607-0.395,1.215-0.79,1.822-1.185c-5.017-10.821-10.033-21.643-15.554-33.55c20.441,10.937,30.772,30.239,46.184,49.365 c-6.77-24.261-12.655-45.351-18.54-66.442c1.087-0.521,2.174-1.042,3.26-1.563c8.649,13.346,17.298,26.692,27.261,42.066 c-2.255-19.724-4.277-37.405-6.689-58.499c11.672,15.977,17.083,31.175,21.718,46.764c1.062-0.119,2.124-0.237,3.185-0.356 c0.179-5.43,0.622-10.866,0.493-16.288c-0.766-31.981-1.827-63.956-2.419-95.94c-0.172-9.273,0.872-18.569,2.613-27.979 c13.512,41.793,13.864,85.434,19.175,128.875c2.572-11.727,5.148-23.454,7.716-35.183c3.157-14.422,6.335-28.839,9.445-43.272 c1.035-4.805,1.982-9.633,2.809-14.478c2.473-14.495,4.7-29.035,7.336-43.499c2.728-14.966,8.938-30.071,7.962-44.739 c-1.195-17.954,4.844-34.492,4.981-51.953c0.068-8.575,3.579-17.161,5.812-25.667c1.361-5.183,3.258-10.225,5.826-18.138 c-23.747,8.568-45.386,16.376-68.808,24.827c9.785-19.32,32.625-22.28,41.422-40.232c-10.593-1.518-20.234-2.9-31.184-4.469 c7.564-5.867,18.894-3.972,22.319-16.083c-4.334-0.313-8.36-0.958-12.352-0.792c-3.906,0.162-7.76,1.318-11.67,1.739 c-5.456,0.588-12.023,1.466-12.603-6.131c-0.514-6.726,5.442-8.775,11.045-9.486c9.268-1.176,18.699-1.321,27.865-2.984 c17.403-3.155,34.64-7.211,52.001-10.614c7.198-1.411,14.516-2.734,21.817-2.975c9.941-0.328,12.903,2.49,11.474,12.195 c-2.502,16.991-5.279,34.035-9.513,50.656c-7.157,28.093-14.833,56.098-23.586,83.729c-10.985,34.678-23.428,68.891-34.915,103.414 c-3.872,11.635-7.68,23.429-9.913,35.448c-8.811,47.421-17.067,94.946-25.341,142.466c-2.364,13.576-3.739,27.33-6.342,40.853 c-0.73,3.794-3.496,8.904-6.613,10.121c-4.441,1.733-9.632,0.051-11.072-6.416c-0.335-1.503-2.749-2.625-4.325-3.758 c-35.962-25.833-71.951-51.627-107.903-77.472c-6.797-4.887-13.666-9.711-20.119-15.029c-5.905-4.866-12.471-8.716-15.464-17.069 C641.397,446.149,634.77,443.209,630.367,439.471z"/>
    <path fill="#261123" d="M762.286,191.224c-18.867-5.603-36.531-11.112-54.349-16.066c-18.078-5.026-36.544-8.232-55.291-5.117 c-17.863,2.968-35.722,6.324-53.265,10.765c-17.902,4.532-35.281,10.851-51.301,26.039c9.572,1.526,16.506,2.951,23.511,3.69 c23.735,2.5,42.393,14.961,59.106,30.626c8.534,7.999,9.919,18.815,7.391,30.081c-8.856,39.455-40.741,55.96-73.784,53.621 c-8.797-0.622-17.533-2.471-26.226-4.127c-14.805-2.82-27.06-10.216-33.765-23.817c-5.763-11.691-10.212-24.165-13.954-36.678 c-3.318-11.095,2.288-21.576,6.64-31.144c10.437-22.946,23.111-44.749,45.209-58.798c8.605-5.47,17.659-10.533,27.085-14.364 c51.443-20.908,103.813-25.667,156.737-6.107c10.374,3.834,20.182,10.162,28.986,16.973 C761.99,172.196,766.734,180.181,762.286,191.224z M521.133,245.87c-2.229,15.838,1.611,30.844,10.838,43.935 c3.282,4.657,9.976,8.573,15.658,9.506c9.981,1.639,20.69,2.297,30.513,0.382c8.145-1.588,16.287-6.423,22.922-11.712 c8.25-6.577,8.879-20.405,1.966-26.18c-14.217-11.876-29.644-20.693-49.502-17.891C543.571,245.315,533.399,245.184,521.133,245.87 z"/>
    <path fill="#261123" d="M324.062,202.32c16.268,4.944,32.549,9.843,48.797,14.851c7.509,2.314,15.151,4.377,22.338,7.471 c3.47,1.494,6.027,5.109,11.486,9.987c-17.166,3.878-28.021-4.94-39.964-7.464c-11.976-2.531-23.537-7.023-35.695-10.784 c-2.351,3.21-4.554,6.217-6.739,9.2c7.184,6.958,19.976,6.949,23.142,19.686c-10.628,3.354-19.965,4.078-29.997-0.789 c-19.887-9.646-40.402-18-60.272-27.678c-7.871-3.833-14.773-9.69-22.018-14.767c-9.566-6.703-18.14-14.934-30.22-17.536 c-2.856-0.615-5.165-3.772-7.531-5.608c2.212-7.453,7.648-6.433,12.355-6.757c46.716-3.213,93.417-1.806,140.12,0.412 c15.244,0.724,30.524,0.848,45.739,1.927c8.621,0.612,17.143,2.606,28.152,4.368c-7.369,9.16-13.015,16.208-22.495,16.892 c-22.035,1.588-44.126,2.4-66.198,3.455c-3.361,0.161-6.741-0.062-10.112-0.108C324.654,200.159,324.358,201.24,324.062,202.32z"/>
    <path fill="#261123" d="M581.874,399.952c-11.033-6.17-21.774-11.837-32.184-18.058c-43.053-25.724-85.974-51.669-129.042-77.368 c-4.605-2.748-10.006-4.132-14.76-6.668c-5.404-2.882-7.985-7.148-4.745-13.4c1.079-2.082,1.774-4.398,2.394-6.676 c2.314-8.508,4.276-9.576,11.963-5.052c26.704,15.715,53.476,31.331,79.866,47.562c28.057,17.255,55.72,35.151,83.536,52.798 C592.22,381.54,592.719,384.18,581.874,399.952z"/>
    <path fill="#261123" d="M940.489,842.559c-6.567-8.374-13.025-16.837-19.722-25.105c-17.616-21.751-35.336-43.417-53.964-66.283 c2.353,23.831,18.619,44.348,12.036,71.888c-17.658-21.461-22.157-45.841-32.642-71.152c-3.146,14.343-5.603,25.543-8.059,36.743 c-0.609-0.09-1.217-0.18-1.826-0.27c-1.43-16.205-2.86-32.41-4.29-48.616c-7.129,21.142-16.285,40.622-28.016,58.925 c-1.194,1.863-2.671,3.545-5.953,4.375c3.396-15.481,6.791-30.963,10.928-49.822c-17.482,14.333-31.876,27.278-47.457,38.587 c-15.538,11.278-26.004,30.281-50.467,33.174c2.88-7.064,4.096-13.29,7.541-17.819c7.112-9.35,14.658-18.636,23.364-26.459 c27.733-24.917,55.997-49.248,84.259-73.57c5.861-5.044,12.59-9.077,19.092-13.698c3.324,2.18,6.352,3.286,8.078,5.437 c15.969,19.898,31.794,39.912,47.503,60.016c26.338,33.708,47.554,71.215,76.77,102.821c18.011,19.484,35.984,39.072,52.758,59.606 c12.408,15.19,23.058,31.845,34.016,48.167c2.415,3.596,2.821,8.541,4.846,15.12c-26.163,3.216-49.97,5.384-73.494,9.265 c-19.857,3.276-39.342,8.753-59.077,12.842c-11,2.279-22.213,3.521-33.252,5.636c-3.75,0.719-7.218,2.814-10.891,4.055 c-14.758,4.987-29.44,10.85-46.966,5.562c7.012-9.124,16.009-12.087,25.041-12.81c23.624-1.891,45.046-9.673,64.995-21.925 c15.792-9.699,33.796-9.452,51.173-12.046c6.779-1.012,13.641-1.466,21.777-2.31c-10.982-10.924-26.779-14.522-34.753-30.023 c7.277,0.955,13.189,1.731,20.314,2.666c-8.508-10.09-16.44-19.496-24.373-28.903c0.823-0.875,1.646-1.75,2.47-2.625 c15.289,10.931,30.578,21.862,45.867,32.793c-9.044-32.773-29.66-56.922-52.712-79.399l0.342,0.663 c-4.847-7.728-9.215-15.834-14.827-22.96C949.175,842.891,944.06,843.333,940.489,842.559z"/>
    <path fill="#261123" d="M724.186,851.849c15.519-0.045,22.418,7.688,25.402,20.958c4.557,20.266,11.564,39.435,25.252,55.853 c4.799,5.757,8.702,8.144,16.103,6.183c17.541-4.648,35.138-9.284,52.953-12.647c19.768-3.732,39.802-6.052,59.724-8.957 c1.454-0.212,3.149-0.682,4.378-0.175c3.894,1.607,9.266,2.654,11.049,5.69c3.185,5.42-2.128,9.692-6.174,11.607 c-12.777,6.046-25.684,12.244-39.172,16.268c-23.927,7.138-48.322,12.708-72.5,19.014c-0.822,0.214-1.421,1.281-3.606,3.364 c3.371,4.632,6.962,9.513,10.496,14.435c6.262,8.722,5.651,13.39-2.33,18.239c-7.318,4.446-12.417,2.226-17.227-6.998 c-4.029-7.725-8.451-15.245-12.968-23.337c-23.863,6.094-46.07,12.411-68.58,17.352c-28.329,6.218-56.879,11.447-85.399,16.754 c-4.727,0.88-9.924,0.651-14.649-0.315c-3.875-0.792-9.542-2.715-10.462-5.46c-1.051-3.137,1.347-8.505,3.875-11.554 c6.25-7.543,13.407-14.339,20.241-21.394c21.497-22.194,43.221-44.174,64.414-66.656c7.71-8.179,14.127-17.57,21.213-26.344 C712.068,866.482,718.034,859.331,724.186,851.849z M725.298,894.347c-22.163,23.95-45.206,48.849-68.248,73.749 c30.82-5.946,60.654-13.366,88.215-23.631C737.881,925.933,731.246,909.279,725.298,894.347z"/>
    <path fill="#261123" d="M661.131,861.077c-20.453,25.533-40.586,51.403-72.587,64.257c-2.209,0.887-4.571,2.253-6.009,4.071 c-18.729,23.697-44.944,38.068-68.757,55.415c-19.497,14.204-39.126,28.227-58.676,42.359c-2.346,1.696-4.559,3.575-5.523,7.87 c12.908-6.522,25.815-13.044,38.723-19.565c0.454,0.412,0.909,0.824,1.363,1.236c-1.781,2.315-3.563,4.631-6.747,8.77 c7.721-1.805,13.871-3.242,20.022-4.68c0.416,0.892,0.833,1.784,1.249,2.676c-14.433,8.635-28.866,17.27-45.545,27.249 c5.445-0.492,8.553-0.688,11.639-1.065c23.915-2.924,47.806-6.058,71.752-8.701c5.573-0.615,12.407-1.536,13.699,9.135 c-4.943,1.091-9.907,2.321-14.923,3.273c-36.235,6.878-72.558,13.325-108.685,20.725c-14.406,2.951-28.315,8.254-42.584,11.972 c-18.992,4.948-38.094,9.486-57.214,13.917c-1.957,0.453-5.754-0.473-6.254-1.729c-0.889-2.238-0.876-5.997,0.506-7.716 c2.381-2.963,5.996-5.011,9.275-7.166c50.188-32.985,100.632-65.588,150.526-99.011c26.557-17.789,51.485-38.068,78.445-55.18 c20.181-12.809,37.174-28.88,55.132-44.163c11.886-10.116,26.017-17.593,39.144-26.251 C659.779,859.544,660.455,860.311,661.131,861.077z"/>
    <path fill="#261123" d="M579.998,1049.451c13.676-10.936,30.087-12.921,45.627-16.715c11.885-2.902,24.222-4.036,36.406-5.584 c4.582-0.582,9.069-2.12,13.744,2.236c2.339,2.18,8.28,1.023,12.503,0.562c19.058-2.083,38.051-4.852,57.146-6.435 c4.535-0.376,11.04-2.911,14.949,4.511c-5.068,6.419-12.776,6.539-19.575,7.598c-33.042,5.144-66.156,9.828-99.242,14.692 c-17.389,2.556-34.545,7.087-52.427,5.279C585.113,1055.188,581.137,1056.183,579.998,1049.451z"/>
    <path fill="#261123" d="M965.403,867.401c0.8,4.192,1.6,8.385,2.629,13.775c-13.143-2.895-23.18-8.005-29.798-19.694 c-5.031-8.888-11.691-16.853-16.479-26.443c7.012,1.75,10.515,10.666,18.883,7.258c8.37,8.591,16.738,17.179,25.106,25.767 C965.745,868.064,965.403,867.401,965.403,867.401z"/>
    <path fill="#261123" d="M895.568,485.854c2.88,1.113,5.342,1.569,5.372,2.151c0.597,11.498,9.188,21.119,7.262,33.303 c-2.756,17.429-8.948,34.081-9.805,52.076c-0.379,7.964-7.23,15.621-11.233,23.597c12.843,3.688,16.074-8.324,21.587-17.493 c9.569,10.573,3.603,17.971-1.23,23.542c4.378,16.662,15.955,24.774,29.643,30.684c0.854,0.369,2.195,1.437,2.093,1.928 c-2.984,14.42,11.611,18.634,16.423,28.479c0.43,0.881,0.75,1.817,2.083,5.084c-14.343-10.712-26.972-20.145-40.319-30.113 c3.067,12.305,54.589,80.748,78.89,102.743c-6.907-13.178-13.815-26.356-20.722-39.534c0.664-0.507,1.328-1.014,1.991-1.522 c9.536,12.512,19.071,25.024,28.607,37.536c0.686-0.297,1.373-0.593,2.059-0.89c-4.018-9.493-8.035-18.986-12.053-28.479 c0.44-0.321,0.88-0.643,1.32-0.964c6.963,10.137,13.925,20.275,20.888,30.412c0.602-0.284,1.203-0.568,1.805-0.852 c-3.12-21.184-6.239-42.367-9.625-65.359c3.181,1.675,5.013,2.641,8.033,4.232c-4.038-32.149-7.675-63.596-12.015-94.946 c-4.287-30.967-9.142-61.848-10.083-95.487c7.338,5.408,7.376,11.098,8.134,16.129c3.152,20.917,6.634,41.819,8.729,62.852 c2.787,27.987,8.876,55.295,14.403,82.776c5.724,28.457,9.646,57.275,15.197,85.771c6.022,30.913,12.977,61.645,19.637,92.431 c0.723,3.345,1.501,7.025,3.433,9.698c7.023,9.718,6.164,18.807-2.23,29.39c-3.497-3.129-7.338-5.838-10.273-9.313 c-14.923-17.668-29.983-35.241-44.303-53.393c-28.944-36.692-57.506-73.686-86.057-110.686c-4.495-5.825-8.189-12.28-12.1-18.539 c-5.357-8.573-9.086-18.068-18.907-23.522c-4.265-2.368-6.744-8.205-9.632-12.724c-2.378-3.721-3.345-8.661-6.36-11.602 c-10.792-10.525-9.171-22.926-6.396-35.562c6.757-30.771,13.622-61.518,20.692-92.218 C891.428,493.464,893.81,489.796,895.568,485.854z"/>
    <path fill="#261123" d="M936.199,610.686c-6.957-11.639-6.906-23.556-6.346-35.327c1.636-34.418,2.987-68.976,13.158-102.225 c6.026-19.701,13.526-38.95,20.349-58.408c0.954-2.722,1.826-5.472,2.549-7.646c-14.567-15.634-28.666-30.603-42.527-45.789 c-2.588-2.836-5.518-6.387-5.942-9.892c-0.459-3.797,0.642-9.388,3.249-11.505c2.665-2.165,7.98-1.09,12.14-1.358 c0.405-0.026,0.931,0.388,1.254,0.735c13.857,14.921,34.064,21.076,48.545,35.069c13.514,13.059,11.686,29.418,8.219,45.439 c-2.586,11.952-6.965,23.51-10.399,35.286c-13.791,47.302-22.419,95.49-24.775,144.757 C955.184,610.028,952.01,611.771,936.199,610.686z"/>
    <path fill="#261123" d="M961.995,265.219c-3.041,11.201-5.166,19.025-7.583,27.926c-1.097-1.472-1.761-2.362-3.464-4.647 c-1.934,5.267-3.611,9.833-5.71,15.546c-1.458-23.54,0.984-45.77,4.114-67.969c1.367-9.691,2.536-19.411,4.001-29.087 c0.509-3.361,1.102-6.899,2.611-9.872c2.213-4.361,8.39-4.372,10.726-0.073c1.36,2.502,1.986,5.583,2.259,8.468 c3.783,40.024,7.501,80.054,11.047,120.099c0.318,3.595-0.663,7.306-1.142,11.932c-7.682-3.349-6.975-9.228-7.667-14.194 c-2.233-16.031-4.201-32.098-6.381-48.136C964.498,272.938,963.577,270.748,961.995,265.219z"/>
  </g>
</svg>